<?xml version="1.0" standalone="no"?><!DOCTYPE svg PUBLIC "-//W3C//DTD SVG 1.1//EN" "http://www.w3.org/Graphics/SVG/1.1/DTD/svg11.dtd"><svg height="1024" node-id="1" sillyvg="true" template-height="1024" template-width="1024" version="1.1" viewBox="0 0 1024 1024" width="1024" xmlns="http://www.w3.org/2000/svg" xmlns:xlink="http://www.w3.org/1999/xlink"><defs node-id="43"><linearGradient gradientUnits="userSpaceOnUse" id="paint0_linear_615_1366" node-id="28" spreadMethod="pad" x1="428.032" x2="551.936" y1="-35.84" y2="727.04"><stop offset="0" stop-color="#c0cbcd"></stop><stop offset="1" stop-color="#83a69d"></stop></linearGradient><linearGradient gradientUnits="userSpaceOnUse" id="paint1_linear_615_1366" node-id="31" spreadMethod="pad" x1="827.077" x2="827.077" y1="630.154" y2="1260.31"><stop offset="0" stop-color="#607942"></stop><stop offset="1" stop-color="#2c5206"></stop></linearGradient><linearGradient gradientUnits="userSpaceOnUse" id="paint2_linear_615_1366" node-id="34" spreadMethod="pad" x1="128" x2="144.918" y1="49.2308" y2="441.421"><stop offset="0" stop-color="#5c6a77"></stop><stop offset="1" stop-color="#818b97" stop-opacity="0"></stop></linearGradient><linearGradient gradientUnits="userSpaceOnUse" id="paint3_linear_615_1366" node-id="37" spreadMethod="pad" x1="867.692" x2="852.363" y1="-50.0661" y2="345.965"><stop offset="0" stop-color="#5c6a77"></stop><stop offset="1" stop-color="#818b97" stop-opacity="0"></stop></linearGradient><clipPath id="clip0_615_1366" node-id="40"><path d="M 160.00 0.00 L 864.00 0.00 C 952.37 0.00 1024.00 71.63 1024.00 160.00 L 1024.00 864.00 C 1024.00 952.37 952.37 1024.00 864.00 1024.00 L 160.00 1024.00 C 71.63 1024.00 0.00 952.37 0.00 864.00 L 0.00 160.00 C -0.00 71.63 71.63 0.00 160.00 0.00 Z" fill="#000000" fill-rule="nonzero" node-id="70" stroke="none" target-height="1024" target-width="1024" target-x="0" target-y="0"></path></clipPath><mask height="485" id="mask0_615_1366" maskUnits="userSpaceOnUse" node-id="8" width="156" x="591" y="535"><path d="M 599.69 570.03 C 594.49 585.36 591.62 601.90 592.00 618.09 C 595.08 750.31 609.53 886.71 652.65 1019.59 L 746.66 1019.59 C 691.52 885.29 665.37 722.02 651.12 545.62 C 651.56 537.15 639.80 533.80 631.68 536.13 C 616.18 540.59 604.89 554.71 599.69 570.03 Z" fill="#868162" fill-rule="nonzero" node-id="74" stroke="none" target-height="485.79004" target-width="155.03998" target-x="591.62" target-y="533.8"></path></mask></defs><g clip-path="url(#clip0_615_1366)" id="sillyvg_g_0" node-id="78"><path d="M 160.00 0.00 L 864.00 0.00 C 952.37 0.00 1024.00 71.63 1024.00 160.00 L 1024.00 864.00 C 1024.00 952.37 952.37 1024.00 864.00 1024.00 L 160.00 1024.00 C 71.63 1024.00 0.00 952.37 0.00 864.00 L 0.00 160.00 C -0.00 71.63 71.63 0.00 160.00 0.00 Z" fill="url(#paint0_linear_615_1366)" fill-rule="nonzero" node-id="80" stroke="none" target-height="1024" target-width="1024" target-x="0" target-y="0"></path><path d="M -236.31 1035.03 C -236.31 1035.03 -225.25 687.39 25.52 633.03 C 244.77 600.70 413.80 851.61 609.85 851.61 C 838.34 851.61 946.02 706.00 1167.86 706.00 C 1329.66 706.00 1487.66 832.59 1707.99 788.71 C 1781.28 774.11 1890.46 748.99 1890.46 748.99 L 1886.83 1227.99 L -236.31 1260.31 L -236.31 1035.03 Z" fill="url(#paint1_linear_615_1366)" fill-opacity="0.7" fill-rule="evenodd" node-id="82" stroke="none" target-height="659.61005" target-width="2126.77" target-x="-236.31" target-y="600.7"></path><path d="M 426.16 682.90 C 560.76 538.94 689.34 543.84 704.04 546.51 C 682.17 520.82 650.55 504.16 617.32 498.32 C 584.09 492.49 549.41 497.15 517.95 509.35 C 472.65 526.91 432.48 562.09 417.49 608.31 C 409.44 633.14 409.70 662.64 426.16 682.90 Z" fill="#236002" fill-rule="nonzero" node-id="84" stroke="none" target-height="190.41003" target-width="294.59998" target-x="409.44" target-y="492.49"></path><path d="M 456.85 613.87 C 553.69 532.58 608.12 518.45 704.04 546.51 C 682.17 520.82 650.55 504.16 617.32 498.32 C 584.09 492.49 549.41 497.15 517.95 509.35 C 472.65 526.91 432.48 562.09 417.49 608.31 C 409.44 633.14 434.39 632.72 456.85 613.87 Z" fill="#358013" fill-rule="nonzero" node-id="86" stroke="none" target-height="140.65002" target-width="294.59998" target-x="409.44" target-y="492.49"></path><path d="M 599.69 570.03 C 594.49 585.36 591.62 601.90 592.00 618.09 C 595.08 750.31 609.53 886.71 652.65 1019.59 L 746.66 1019.59 C 691.52 885.29 665.37 722.02 651.12 545.62 C 651.56 537.15 639.80 533.80 631.68 536.13 C 616.18 540.59 604.89 554.71 599.69 570.03 Z" fill="#563913" fill-rule="nonzero" node-id="88" stroke="none" target-height="485.79004" target-width="155.03998" target-x="591.62" target-y="533.8"></path><path d="M 638.51 662.64 C 638.51 656.39 643.57 651.33 649.82 651.33 L 695.06 651.33 C 701.30 651.33 706.37 656.39 706.37 662.64 L 706.37 662.64 C 706.37 668.89 701.30 673.95 695.06 673.95 L 649.82 673.95 C 643.57 673.95 638.51 668.89 638.51 662.64 L 638.51 662.64 Z" fill="#000000" fill-rule="nonzero" group-id="1" node-id="92" stroke="none" target-height="22.619995" target-width="67.859985" target-x="638.51" target-y="651.33"></path><path d="M 552.28 738.98 C 552.28 732.73 557.34 727.67 563.59 727.67 L 608.82 727.67 C 615.07 727.67 620.13 732.73 620.13 738.98 L 620.13 738.98 C 620.13 745.23 615.07 750.29 608.82 750.29 L 563.59 750.29 C 557.34 750.29 552.28 745.23 552.28 738.98 L 552.28 738.98 Z" fill="#000000" fill-rule="nonzero" group-id="1" node-id="94" stroke="none" target-height="22.619995" target-width="67.849976" target-x="552.28" target-y="727.67"></path><path d="M 672.44 847.83 C 672.44 841.59 677.50 836.52 683.75 836.52 L 728.99 836.52 C 735.23 836.52 740.29 841.59 740.29 847.83 L 740.29 847.83 C 740.29 854.08 735.23 859.14 728.99 859.14 L 683.75 859.14 C 677.50 859.14 672.44 854.08 672.44 847.83 L 672.44 847.83 Z" fill="#000000" fill-rule="nonzero" group-id="1" node-id="96" stroke="none" target-height="22.619995" target-width="67.849976" target-x="672.44" target-y="836.52"></path><path d="M 586.21 924.17 C 586.21 917.92 591.27 912.86 597.51 912.86 L 642.75 912.86 C 649.00 912.86 654.06 917.92 654.06 924.17 L 654.06 924.17 C 654.06 930.42 649.00 935.48 642.75 935.48 L 597.51 935.48 C 591.27 935.48 586.21 930.42 586.21 924.17 L 586.21 924.17 Z" fill="#000000" fill-rule="nonzero" group-id="1" node-id="98" stroke="none" target-height="22.619995" target-width="67.849976" target-x="586.21" target-y="912.86"></path><path d="M 599.69 570.03 C 594.49 585.36 591.62 601.90 592.00 618.09 C 595.08 750.31 609.53 886.71 652.65 1019.59 L 706.37 1019.59 C 706.37 1019.59 615.89 799.06 610.74 550.25 C 610.58 542.71 602.12 562.89 599.69 570.03 Z" fill="#92672d" fill-opacity="0.4" fill-rule="nonzero" group-id="2" node-id="103" stroke="none" target-height="476.88" target-width="114.75" target-x="591.62" target-y="542.71"></path><path d="M 643.26 542.78 C 642.20 546.73 639.83 551.41 635.74 551.26 C 632.26 546.82 628.70 542.48 625.08 538.25 C 593.81 501.70 557.39 472.86 516.93 451.32 C 478.36 430.79 436.10 416.89 391.12 409.28 C 386.62 408.52 382.09 407.82 377.54 407.19 C 372.21 407.06 373.92 398.53 377.56 394.65 C 406.72 363.64 451.99 350.15 494.20 355.67 C 536.40 361.18 575.21 384.32 603.88 415.79 C 635.02 449.98 655.30 498.13 643.26 542.78 Z" fill="#358013" fill-rule="nonzero" node-id="106" stroke="none" target-height="201.25998" target-width="283.09" target-x="372.21" target-y="350.15"></path><path d="M 635.74 551.26 C 639.83 551.41 642.20 546.73 643.26 542.78 C 655.30 498.13 635.02 449.98 603.88 415.79 C 575.21 384.32 536.40 361.18 494.20 355.67 C 451.99 350.15 406.72 363.64 377.56 394.65 C 374.15 398.27 372.44 405.97 376.58 407.06 C 400.08 394.39 426.93 386.98 455.44 386.98 C 540.66 386.98 606.22 453.22 616.03 528.04 C 619.09 531.38 622.11 534.78 625.08 538.25 C 628.70 542.48 632.26 546.82 635.74 551.26 Z" fill="#236002" fill-rule="nonzero" node-id="108" stroke="none" target-height="201.25998" target-width="282.86" target-x="372.44" target-y="350.15"></path><path d="M 635.85 498.28 C 635.01 514.54 637.10 531.78 646.74 544.90 C 707.78 427.97 845.61 423.02 845.61 423.02 C 890.85 426.56 830.77 358.00 784.83 355.88 C 769.98 354.12 755.02 355.87 740.83 360.57 C 682.60 379.84 639.01 437.03 635.85 498.28 Z" fill="#358013" fill-rule="nonzero" node-id="110" stroke="none" target-height="190.78003" target-width="255.83997" target-x="635.01" target-y="354.12"></path><path d="M 635.85 498.28 C 635.01 514.54 637.10 531.78 646.74 544.90 C 655.02 532.96 659.80 521.39 669.61 510.67 C 673.85 453.42 737.78 352.81 839.25 383.44 C 840.13 383.75 841.01 384.06 841.88 384.37 C 827.58 368.38 806.06 357.51 784.98 355.01 C 770.13 353.25 755.02 355.87 740.83 360.57 C 682.60 379.84 639.01 437.03 635.85 498.28 Z" fill="#236002" fill-rule="nonzero" node-id="112" stroke="none" target-height="192.09003" target-width="206.87" target-x="635.01" target-y="352.81"></path><path d="M 691.52 573.58 C 676.70 562.46 653.79 553.13 636.28 547.05 C 628.72 544.42 625.49 534.60 628.09 527.02 C 630.69 519.45 637.61 514.09 644.96 510.89 C 656.38 505.91 669.22 505.17 681.65 506.03 C 729.45 509.34 775.95 536.14 800.27 577.42 C 823.00 615.99 840.76 743.05 808.86 699.40 C 795.43 681.02 760.79 625.53 691.52 573.58 Z" fill="#236002" fill-rule="nonzero" node-id="114" stroke="none" target-height="237.87997" target-width="215.27002" target-x="625.49" target-y="505.17"></path><path d="M 629.32 529.05 C 694.35 535.41 738.88 579.94 769.98 613.16 C 801.08 646.39 804.30 571.07 765.03 539.65 C 697.88 485.93 625.08 507.14 629.32 529.05 Z" fill="#358013" fill-rule="nonzero" node-id="116" stroke="none" target-height="160.46002" target-width="179.21997" target-x="625.08" target-y="485.93"></path><path d="M 641.34 579.24 C 641.34 608.12 622.16 618.82 593.27 618.82 C 564.38 618.82 545.21 608.12 545.21 579.24 C 545.21 550.35 568.53 519.86 593.27 519.86 C 618.01 519.86 641.34 550.35 641.34 579.24 Z" fill="#264510" fill-rule="nonzero" node-id="118" stroke="none" target-height="98.96002" target-width="96.130005" target-x="545.21" target-y="519.86"></path><path d="M 676.68 545.31 C 676.68 574.20 657.50 584.89 628.62 584.89 C 599.73 584.89 580.55 574.20 580.55 545.31 C 580.55 516.42 603.88 485.93 628.62 485.93 C 653.35 485.93 676.68 516.42 676.68 545.31 Z" fill="#469b1a" fill-rule="nonzero" node-id="120" stroke="none" target-height="98.96002" target-width="96.130005" target-x="580.55" target-y="485.93"></path><path d="M 713.43 594.78 C 713.43 623.67 694.26 634.37 665.37 634.37 C 636.48 634.37 617.31 623.67 617.31 594.78 C 617.31 565.89 640.63 535.41 665.37 535.41 C 690.11 535.41 713.43 565.89 713.43 594.78 Z" fill="#173208" fill-rule="nonzero" node-id="122" stroke="none" target-height="98.96002" target-width="96.119995" target-x="617.31" target-y="535.41"></path><path d="M 183.50 334.77 L 305.89 334.77 C 343.59 334.77 374.15 303.79 374.15 265.58 C 374.15 227.37 343.59 196.39 305.89 196.39 C 294.51 196.39 283.78 199.21 274.35 204.20 C 261.21 165.59 225.04 137.85 182.48 137.85 C 128.83 137.85 85.33 181.93 85.33 236.31 C 85.33 237.42 85.35 238.53 85.39 239.64 C 69.73 248.17 59.08 264.93 59.08 284.21 C 59.08 312.13 81.41 334.77 108.96 334.77 L 182.48 334.77 C 182.63 334.77 183.50 334.77 183.50 334.77 L 182.48 334.77 L 183.50 334.77 Z" fill="url(#paint2_linear_615_1366)" fill-opacity="0.9" fill-rule="nonzero" group-id="3" node-id="126" stroke="none" target-height="196.91998" target-width="315.07" target-x="59.08" target-y="137.85"></path><path d="M 820.81 236.31 L 698.42 236.31 C 660.72 236.31 590.77 256.00 590.77 167.12 C 590.77 105.74 660.72 97.93 698.42 97.93 C 709.80 97.93 720.52 100.75 729.96 105.74 C 743.10 67.12 779.26 39.38 821.83 39.38 C 875.48 39.38 918.97 83.47 918.97 137.85 C 918.97 138.96 918.96 140.07 918.92 141.18 C 934.58 149.71 945.23 166.47 945.23 185.75 C 945.23 213.67 922.90 236.31 895.34 236.31 L 821.83 236.31 C 821.67 236.31 820.81 236.31 820.81 236.31 Z" fill="url(#paint3_linear_615_1366)" fill-opacity="0.9" fill-rule="nonzero" group-id="4" node-id="131" stroke="none" target-height="216.62" target-width="354.45996" target-x="590.77" target-y="39.38"></path></g></svg>