<?xml version="1.0" standalone="no"?><!DOCTYPE svg PUBLIC "-//W3C//DTD SVG 1.1//EN" "http://www.w3.org/Graphics/SVG/1.1/DTD/svg11.dtd"><svg height="1024" node-id="1" sillyvg="true" template-height="1024" template-width="1024" version="1.1" viewBox="0 0 1024 1024" width="1024" xmlns="http://www.w3.org/2000/svg" xmlns:xlink="http://www.w3.org/1999/xlink"><defs node-id="28"><linearGradient gradientUnits="userSpaceOnUse" id="paint0_linear_610_4739" node-id="10" spreadMethod="pad" x1="0" x2="0" y1="0" y2="1024"><stop offset="0" stop-color="#a2e9ff"></stop><stop offset="0.552083" stop-color="#ddfdff"></stop></linearGradient><linearGradient gradientUnits="userSpaceOnUse" id="paint1_linear_610_4739" node-id="13" spreadMethod="pad" x1="2" x2="2" y1="2" y2="1022"><stop offset="0" stop-color="#a2e9ff"></stop><stop offset="0.552083" stop-color="#ddfdff"></stop></linearGradient><linearGradient gradientUnits="userSpaceOnUse" id="paint2_linear_610_4739" node-id="16" spreadMethod="pad" x1="1103.87" x2="1103.87" y1="499.427" y2="926.305"><stop offset="0" stop-color="#aaf3fa"></stop><stop offset="1" stop-color="#d5fafd"></stop></linearGradient><linearGradient gradientUnits="userSpaceOnUse" id="paint3_linear_610_4739" node-id="19" spreadMethod="pad" x1="-175.729" x2="-175.729" y1="569.406" y2="950.591"><stop offset="0" stop-color="#7edee7"></stop><stop offset="1" stop-color="#b5f1f5"></stop></linearGradient><linearGradient gradientUnits="userSpaceOnUse" id="paint4_linear_610_4739" node-id="22" spreadMethod="pad" x1="-9" x2="-9" y1="727" y2="1021.71"><stop offset="0" stop-color="#4297a8"></stop><stop offset="1" stop-color="#77c8d3"></stop></linearGradient><clipPath id="clip0_610_4739" node-id="25"><path d="M 162.00 2.00 L 862.00 2.00 C 950.37 2.00 1022.00 73.63 1022.00 162.00 L 1022.00 862.00 C 1022.00 950.37 950.37 1022.00 862.00 1022.00 L 162.00 1022.00 C 73.63 1022.00 2.00 950.37 2.00 862.00 L 2.00 162.00 C 2.00 73.63 73.63 2.00 162.00 2.00 Z" fill="#000000" fill-rule="nonzero" node-id="61" stroke="none" target-height="1020" target-width="1020" target-x="2" target-y="2"></path></clipPath></defs><path d="M 160.00 0.00 L 864.00 0.00 C 952.37 0.00 1024.00 71.63 1024.00 160.00 L 1024.00 864.00 C 1024.00 952.37 952.37 1024.00 864.00 1024.00 L 160.00 1024.00 C 71.63 1024.00 0.00 952.37 0.00 864.00 L 0.00 160.00 C -0.00 71.63 71.63 0.00 160.00 0.00 Z" fill="url(#paint0_linear_610_4739)" fill-rule="nonzero" node-id="65" stroke="none" target-height="1024" target-width="1024" target-x="0" target-y="0"></path><g node-id="79"><g clip-path="url(#clip0_610_4739)" group-id="1" id="sillyvg_g_0" node-id="67"><path d="M 162.00 2.00 L 862.00 2.00 C 950.37 2.00 1022.00 73.63 1022.00 162.00 L 1022.00 862.00 C 1022.00 950.37 950.37 1022.00 862.00 1022.00 L 162.00 1022.00 C 73.63 1022.00 2.00 950.37 2.00 862.00 L 2.00 162.00 C 2.00 73.63 73.63 2.00 162.00 2.00 Z" fill="url(#paint1_linear_610_4739)" fill-rule="nonzero" group-id="1" node-id="69" stroke="none" target-height="1020" target-width="1020" target-x="2" target-y="2"></path><path d="M 1103.87 591.00 C 1103.87 591.00 959.23 499.43 849.97 499.43 C 705.46 499.43 608.83 624.31 491.93 624.31 C 355.69 624.31 338.55 588.23 262.15 588.23 C 154.17 588.23 11.66 655.89 -63.50 631.47 C -124.16 611.76 -197.17 571.96 -197.17 571.96 L -197.17 906.22 L 1103.87 926.30 L 1103.87 591.00 Z" fill="url(#paint2_linear_610_4739)" fill-rule="evenodd" group-id="1" node-id="71" stroke="none" target-height="426.87" target-width="1301.04" target-x="-197.17" target-y="499.43"></path><path d="M -175.73 814.32 C -175.73 814.32 -169.13 604.03 -19.61 571.14 C 111.12 551.59 211.91 703.37 328.81 703.37 C 465.06 703.37 529.26 615.28 661.54 615.28 C 758.02 615.28 852.23 691.86 983.60 665.32 C 1275.42 606.36 1125.32 596.24 1125.32 596.24 L 1125.32 930.50 L -175.73 950.59 L -175.73 814.32 Z" fill="url(#paint3_linear_610_4739)" fill-rule="evenodd" group-id="1" node-id="73" stroke="none" target-height="399" target-width="1451.15" target-x="-175.73" target-y="551.59"></path><path d="M -9.00 827.46 C -9.00 827.46 53.77 743.10 103.03 734.61 C 152.29 726.12 179.55 808.35 179.55 808.35 C 179.55 808.35 202.61 804.75 215.14 808.35 C 227.67 811.95 237.59 827.46 237.59 827.46 C 237.59 827.46 253.54 777.91 319.79 777.91 C 386.04 777.91 419.70 844.85 419.70 844.85 C 419.70 844.85 441.75 827.46 464.72 827.46 C 487.69 827.46 513.68 844.85 513.68 844.85 C 513.68 844.85 529.90 777.91 598.35 777.91 C 666.80 777.91 696.00 834.72 696.00 834.72 C 696.00 834.72 723.66 817.27 750.53 817.27 C 777.40 817.27 809.47 834.72 809.47 834.72 C 809.47 834.72 818.47 779.60 858.50 747.12 C 898.53 714.63 985.68 734.61 985.68 734.61 L 1033.35 759.70 L 1033.35 1021.71 L -9.00 1021.71 L -9.00 827.46 Z" fill="url(#paint4_linear_610_4739)" fill-rule="evenodd" group-id="1" node-id="75" stroke="none" target-height="307.08002" target-width="1042.35" target-x="-9" target-y="714.63"></path><path d="M 718.43 244.86 C 718.43 291.80 680.37 329.86 633.43 329.86 C 586.48 329.86 548.43 291.80 548.43 244.86 C 548.43 197.91 586.48 159.86 633.43 159.86 C 680.37 159.86 718.43 197.91 718.43 244.86 Z" fill="#feffca" fill-rule="nonzero" group-id="1" node-id="77" stroke="none" target-height="169.99998" target-width="170" target-x="548.43" target-y="159.86"></path></g></g></svg>