<?xml version="1.0" standalone="no"?><!DOCTYPE svg PUBLIC "-//W3C//DTD SVG 1.1//EN" "http://www.w3.org/Graphics/SVG/1.1/DTD/svg11.dtd"><svg height="1024" node-id="1" sillyvg="true" template-height="1024" template-width="1024" version="1.1" viewBox="0 0 1024 1024" width="1024" xmlns="http://www.w3.org/2000/svg" xmlns:xlink="http://www.w3.org/1999/xlink"><defs node-id="16"><linearGradient gradientUnits="userSpaceOnUse" id="paint0_linear_604_1409" node-id="9" spreadMethod="pad" x1="0" x2="0" y1="0" y2="1024"><stop offset="0" stop-color="#71ddff"></stop><stop offset="0.661458" stop-color="#b7eeff"></stop><stop offset="0.807292" stop-color="#c4f1ff"></stop></linearGradient><clipPath id="clip0_604_1409" node-id="13"><path d="M 160.00 0.00 L 864.00 0.00 C 952.37 0.00 1024.00 71.63 1024.00 160.00 L 1024.00 864.00 C 1024.00 952.37 952.37 1024.00 864.00 1024.00 L 160.00 1024.00 C 71.63 1024.00 0.00 952.37 0.00 864.00 L 0.00 160.00 C -0.00 71.63 71.63 0.00 160.00 0.00 Z" fill="#000000" fill-rule="nonzero" node-id="27" stroke="none" target-height="1024" target-width="1024" target-x="0" target-y="0"></path></clipPath></defs><g clip-path="url(#clip0_604_1409)" id="sillyvg_g_0" node-id="31"><path d="M 160.00 0.00 L 864.00 0.00 C 952.37 0.00 1024.00 71.63 1024.00 160.00 L 1024.00 864.00 C 1024.00 952.37 952.37 1024.00 864.00 1024.00 L 160.00 1024.00 C 71.63 1024.00 0.00 952.37 0.00 864.00 L 0.00 160.00 C -0.00 71.63 71.63 0.00 160.00 0.00 Z" fill="url(#paint0_linear_604_1409)" fill-rule="nonzero" node-id="33" stroke="none" target-height="1024" target-width="1024" target-x="0" target-y="0"></path><path d="M -219.43 675.98 C -219.43 675.98 -74.22 585.14 35.47 585.14 C 180.55 585.14 277.55 709.03 394.91 709.03 C 531.69 709.03 548.90 673.23 625.60 673.23 C 734.00 673.23 877.07 740.35 952.52 716.13 C 1013.41 696.58 1086.72 657.09 1086.72 657.09 L 1086.72 988.66 L -219.43 1008.59 L -219.43 675.98 Z" fill="#40a4ff" fill-rule="evenodd" node-id="35" stroke="none" target-height="423.45" target-width="1306.1499" target-x="-219.43" target-y="585.14"></path><path d="M 1075.21 909.70 C 1075.21 909.70 1068.59 701.09 918.48 668.48 C 787.23 649.08 686.04 799.63 568.69 799.63 C 431.91 799.63 367.45 712.26 234.65 712.26 C 137.80 712.26 43.22 788.22 -88.67 761.89 C -132.54 753.13 -197.90 738.06 -197.90 738.06 L -195.73 1025.48 L 1075.21 1044.87 L 1075.21 909.70 Z" fill="#0edaa4" fill-rule="evenodd" node-id="37" stroke="none" target-height="395.78998" target-width="1273.11" target-x="-197.9" target-y="649.08"></path><path d="M -642.51 1079.17 C -642.51 1079.17 -633.70 801.52 -433.90 758.11 C -259.22 732.29 -124.54 932.68 31.66 932.68 C 213.70 932.68 299.50 816.38 476.25 816.38 C 605.16 816.38 731.04 917.49 906.58 882.44 C 964.98 870.78 1051.97 850.72 1051.97 850.72 L 1049.07 1233.27 L -642.51 1259.08 L -642.51 1079.17 Z" fill="#dab65a" fill-rule="evenodd" node-id="39" stroke="none" target-height="526.79" target-width="1694.48" target-x="-642.51" target-y="732.29"></path><path d="M 719.24 243.81 C 719.24 290.94 681.03 329.14 633.90 329.14 C 586.78 329.14 548.57 290.94 548.57 243.81 C 548.57 196.68 586.78 158.48 633.90 158.48 C 681.03 158.48 719.24 196.68 719.24 243.81 Z" fill="#fac555" fill-rule="nonzero" node-id="41" stroke="none" target-height="170.66002" target-width="170.66998" target-x="548.57" target-y="158.48"></path></g></svg>