<?xml version="1.0" standalone="no"?><!DOCTYPE svg PUBLIC "-//W3C//DTD SVG 1.1//EN" "http://www.w3.org/Graphics/SVG/1.1/DTD/svg11.dtd"><svg height="1024" node-id="1" sillyvg="true" template-height="1024" template-width="1024" version="1.1" viewBox="0 0 1024 1024" width="1024" xmlns="http://www.w3.org/2000/svg" xmlns:xlink="http://www.w3.org/1999/xlink"><defs node-id="86"><linearGradient gradientUnits="userSpaceOnUse" id="paint0_linear_604_1696" node-id="56" spreadMethod="pad" x1="-139.458" x2="-139.458" y1="0" y2="1302.92"><stop offset="0" stop-color="#3ba6fe"></stop><stop offset="1" stop-color="#d8f4ff"></stop></linearGradient><linearGradient gradientUnits="userSpaceOnUse" id="paint1_linear_604_1696" node-id="59" spreadMethod="pad" x1="692.512" x2="692.512" y1="87.9891" y2="185.513"><stop offset="0" stop-color="#ffffff"></stop><stop offset="1" stop-color="#ffffff" stop-opacity="0.01"></stop></linearGradient><linearGradient gradientUnits="userSpaceOnUse" id="paint2_linear_604_1696" node-id="62" spreadMethod="pad" x1="416.282" x2="563.806" y1="616.708" y2="800.216"><stop offset="0" stop-color="#91cfff"></stop><stop offset="1" stop-color="#198fea"></stop></linearGradient><linearGradient gradientUnits="userSpaceOnUse" id="paint3_linear_604_1696" node-id="65" spreadMethod="pad" x1="609.573" x2="809.362" y1="787.037" y2="1025.61"><stop offset="0" stop-color="#91cfff"></stop><stop offset="1" stop-color="#198fea"></stop></linearGradient><linearGradient gradientUnits="userSpaceOnUse" id="paint4_linear_604_1696" node-id="68" spreadMethod="pad" x1="337.742" x2="494.852" y1="868.689" y2="1121.63"><stop offset="0" stop-color="#91cfff"></stop><stop offset="1" stop-color="#198fea"></stop></linearGradient><linearGradient gradientUnits="userSpaceOnUse" id="paint5_linear_604_1696" node-id="71" spreadMethod="pad" x1="118.341" x2="168.328" y1="767.046" y2="861.102"><stop offset="0" stop-color="#91cfff"></stop><stop offset="1" stop-color="#198fea"></stop></linearGradient><linearGradient gradientUnits="userSpaceOnUse" id="paint6_linear_604_1696" node-id="74" spreadMethod="pad" x1="157.47" x2="181.425" y1="846.685" y2="887.027"><stop offset="0" stop-color="#91cfff"></stop><stop offset="1" stop-color="#198fea"></stop></linearGradient><linearGradient gradientUnits="userSpaceOnUse" id="paint7_linear_604_1696" node-id="77" spreadMethod="pad" x1="211.595" x2="245.41" y1="696.569" y2="750.26"><stop offset="0" stop-color="#91cfff"></stop><stop offset="1" stop-color="#198fea"></stop></linearGradient><linearGradient gradientUnits="userSpaceOnUse" id="paint8_linear_604_1696" node-id="80" spreadMethod="pad" x1="308.459" x2="308.459" y1="231.619" y2="365.714"><stop offset="0" stop-color="#ffffff"></stop><stop offset="1" stop-color="#ffffff" stop-opacity="0.01"></stop></linearGradient><clipPath id="clip0_604_1696" node-id="83"><path d="M 160.00 0.00 L 864.00 0.00 C 952.37 0.00 1024.00 71.63 1024.00 160.00 L 1024.00 864.00 C 1024.00 952.37 952.37 1024.00 864.00 1024.00 L 160.00 1024.00 C 71.63 1024.00 0.00 952.37 0.00 864.00 L 0.00 160.00 C -0.00 71.63 71.63 0.00 160.00 0.00 Z" fill="#000000" fill-rule="nonzero" node-id="143" stroke="none" target-height="1024" target-width="1024" target-x="0" target-y="0"></path></clipPath></defs><g clip-path="url(#clip0_604_1696)" id="sillyvg_g_0" node-id="147"><path d="M 160.00 0.00 L 864.00 0.00 C 952.37 0.00 1024.00 71.63 1024.00 160.00 L 1024.00 864.00 C 1024.00 952.37 952.37 1024.00 864.00 1024.00 L 160.00 1024.00 C 71.63 1024.00 0.00 952.37 0.00 864.00 L 0.00 160.00 C -0.00 71.63 71.63 0.00 160.00 0.00 Z" fill="url(#paint0_linear_604_1696)" fill-rule="nonzero" node-id="149" stroke="none" target-height="1024" target-width="1024" target-x="0" target-y="0"></path><path d="M 784.80 185.51 L 725.56 185.51 C 707.31 185.51 692.51 170.17 692.51 151.25 C 692.51 132.32 707.31 116.98 725.56 116.98 C 731.07 116.98 736.26 118.38 740.83 120.85 C 747.18 101.73 764.70 87.99 785.30 87.99 C 811.27 87.99 832.33 109.82 832.33 136.75 C 832.33 137.30 832.32 137.85 832.30 138.40 C 839.88 142.62 845.04 150.92 845.04 160.47 C 845.04 174.30 834.23 185.51 820.89 185.51 L 785.30 185.51 C 785.22 185.51 784.80 185.51 784.80 185.51 L 785.30 185.51 L 784.80 185.51 Z" fill="url(#paint1_linear_604_1696)" fill-opacity="0.6" fill-rule="nonzero" group-id="1" node-id="153" stroke="none" target-height="97.52" target-width="152.52997" target-x="692.51" target-y="87.99"></path><path d="M 479.85 499.81 L 1230.75 913.30 L 1230.75 1267.45 L -207.24 1267.45 L -200.44 930.38 L 479.85 499.81 Z" fill="#198fea" fill-rule="evenodd" node-id="156" stroke="none" target-height="767.63995" target-width="1437.99" target-x="-207.24" target-y="499.81"></path><path d="M 469.51 532.87 L 511.76 543.21 L 508.50 515.78 L 741.07 644.32 L 701.62 644.32 L 684.94 656.60 L 591.15 603.64 L 663.24 672.58 L 644.42 686.44 L 656.02 717.96 L 572.33 755.76 L 487.30 671.52 L 542.00 681.49 L 507.36 627.80 L 591.15 666.76 L 520.26 603.64 L 552.17 614.40 L 469.51 532.87 Z" fill="url(#paint2_linear_604_1696)" fill-rule="evenodd" node-id="158" stroke="none" target-height="239.97998" target-width="271.56" target-x="469.51" target-y="515.78"></path><path d="M 750.66 671.07 L 802.99 651.43 L 1028.46 806.97 L 993.12 843.77 L 954.18 830.58 L 978.73 858.83 L 918.00 922.15 L 830.10 883.63 L 880.24 973.86 L 722.09 861.91 L 717.88 790.76 L 678.23 736.64 L 715.24 746.13 L 702.59 694.69 L 758.74 688.73 L 750.66 671.07 Z" fill="url(#paint3_linear_604_1696)" fill-rule="evenodd" node-id="160" stroke="none" target-height="322.43" target-width="350.22998" target-x="678.23" target-y="651.43"></path><path d="M 417.68 751.58 L 497.21 793.90 L 497.21 765.40 L 661.45 909.80 L 635.46 852.03 L 731.41 883.63 L 825.47 996.83 L 752.64 1007.18 L 605.29 937.10 L 679.66 1017.55 L 591.87 1030.03 L 417.68 873.61 L 417.68 823.88 L 469.51 852.03 L 417.68 751.58 Z" fill="url(#paint4_linear_604_1696)" fill-rule="evenodd" node-id="162" stroke="none" target-height="278.45" target-width="407.78998" target-x="417.68" target-y="751.58"></path><path d="M 157.75 765.15 L 150.49 726.75 L 232.50 755.76 L 314.50 822.57 L 232.62 813.98 L 157.75 765.15 Z" fill="url(#paint5_linear_604_1696)" fill-rule="evenodd" node-id="164" stroke="none" target-height="95.82001" target-width="164.01" target-x="150.49" target-y="726.75"></path><path d="M 196.88 871.80 L 170.49 828.46 L 236.89 844.04 L 226.21 861.62 L 196.88 871.80 Z" fill="url(#paint6_linear_604_1696)" fill-rule="evenodd" node-id="166" stroke="none" target-height="43.339966" target-width="66.399994" target-x="170.49" target-y="828.46"></path><path d="M 228.46 696.76 L 254.47 696.76 L 242.46 671.52 L 277.62 686.89 L 314.50 717.06 L 267.07 731.09 L 228.46 696.76 Z" fill="url(#paint7_linear_604_1696)" fill-rule="evenodd" node-id="168" stroke="none" target-height="59.570007" target-width="86.03999" target-x="228.46" target-y="671.52"></path><path d="M 180.82 365.71 L 262.76 365.71 C 288.00 365.71 308.46 344.62 308.46 318.60 C 308.46 292.58 288.00 271.49 262.76 271.49 C 255.14 271.49 247.96 273.41 241.64 276.80 C 232.85 250.51 208.63 231.62 180.14 231.62 C 144.22 231.62 115.10 261.64 115.10 298.67 C 115.10 299.43 115.11 300.18 115.14 300.93 C 104.65 306.74 97.52 318.15 97.52 331.28 C 97.52 350.30 112.48 365.71 130.92 365.71 L 180.14 365.71 C 180.24 365.71 180.82 365.71 180.82 365.71 L 180.14 365.71 L 180.82 365.71 Z" fill="url(#paint8_linear_604_1696)" fill-opacity="0.5" fill-rule="nonzero" group-id="2" node-id="172" stroke="none" target-height="134.09" target-width="210.94" target-x="97.52" target-y="231.62"></path><path d="M 487.62 304.76 C 487.62 311.49 482.16 316.95 475.43 316.95 C 468.70 316.95 463.24 311.49 463.24 304.76 C 463.24 298.03 468.70 292.57 475.43 292.57 C 482.16 292.57 487.62 298.03 487.62 304.76 Z" fill="#ffffff" fill-rule="nonzero" node-id="175" stroke="none" target-height="24.380005" target-width="24.380005" target-x="463.24" target-y="292.57"></path><path d="M 475.43 743.62 C 475.43 750.35 469.97 755.81 463.24 755.81 C 456.51 755.81 451.05 750.35 451.05 743.62 C 451.05 736.89 456.51 731.43 463.24 731.43 C 469.97 731.43 475.43 736.89 475.43 743.62 Z" fill="#ffffff" fill-opacity="0.8" fill-rule="nonzero" group-id="3" node-id="179" stroke="none" target-height="24.380005" target-width="24.380005" target-x="451.05" target-y="731.43"></path><path d="M 768.00 182.86 C 768.00 189.59 762.54 195.05 755.81 195.05 C 749.08 195.05 743.62 189.59 743.62 182.86 C 743.62 176.12 749.08 170.67 755.81 170.67 C 762.54 170.67 768.00 176.12 768.00 182.86 Z" fill="#ffffff" fill-opacity="0.9" fill-rule="nonzero" group-id="4" node-id="184" stroke="none" target-height="24.380005" target-width="24.380005" target-x="743.62" target-y="170.67"></path><path d="M 719.24 536.38 C 719.24 543.11 713.78 548.57 707.05 548.57 C 700.32 548.57 694.86 543.11 694.86 536.38 C 694.86 529.65 700.32 524.19 707.05 524.19 C 713.78 524.19 719.24 529.65 719.24 536.38 Z" fill="#ffffff" fill-opacity="0.7" fill-rule="nonzero" group-id="5" node-id="189" stroke="none" target-height="24.380005" target-width="24.380005" target-x="694.86" target-y="524.19"></path><path d="M 658.29 828.95 C 658.29 835.68 652.83 841.14 646.10 841.14 C 639.36 841.14 633.90 835.68 633.90 828.95 C 633.90 822.22 639.36 816.76 646.10 816.76 C 652.83 816.76 658.29 822.22 658.29 828.95 Z" fill="#ffffff" fill-opacity="0.7" fill-rule="nonzero" group-id="6" node-id="194" stroke="none" target-height="24.380005" target-width="24.389954" target-x="633.9" target-y="816.76"></path><path d="M 499.81 566.86 C 499.81 570.22 497.08 572.95 493.71 572.95 C 490.35 572.95 487.62 570.22 487.62 566.86 C 487.62 563.49 490.35 560.76 493.71 560.76 C 497.08 560.76 499.81 563.49 499.81 566.86 Z" fill="#ffffff" fill-rule="nonzero" node-id="197" stroke="none" target-height="12.190002" target-width="12.190002" target-x="487.62" target-y="560.76"></path><path d="M 402.29 591.24 C 402.29 594.60 399.56 597.33 396.19 597.33 C 392.82 597.33 390.09 594.60 390.09 591.24 C 390.09 587.87 392.82 585.14 396.19 585.14 C 399.56 585.14 402.29 587.87 402.29 591.24 Z" fill="#ffffff" fill-rule="nonzero" node-id="199" stroke="none" target-height="12.190002" target-width="12.200012" target-x="390.09" target-y="585.14"></path><path d="M 280.38 591.24 C 280.38 594.60 277.65 597.33 274.29 597.33 C 270.92 597.33 268.19 594.60 268.19 591.24 C 268.19 587.87 270.92 585.14 274.29 585.14 C 277.65 585.14 280.38 587.87 280.38 591.24 Z" fill="#ffffff" fill-rule="nonzero" node-id="201" stroke="none" target-height="12.190002" target-width="12.190002" target-x="268.19" target-y="585.14"></path><path d="M 195.05 396.19 C 195.05 399.56 192.32 402.29 188.95 402.29 C 185.59 402.29 182.86 399.56 182.86 396.19 C 182.86 392.82 185.59 390.09 188.95 390.09 C 192.32 390.09 195.05 392.82 195.05 396.19 Z" fill="#ffffff" fill-rule="nonzero" node-id="203" stroke="none" target-height="12.200012" target-width="12.190002" target-x="182.86" target-y="390.09"></path><path d="M 329.14 310.86 C 329.14 314.22 326.41 316.95 323.05 316.95 C 319.68 316.95 316.95 314.22 316.95 310.86 C 316.95 307.49 319.68 304.76 323.05 304.76 C 326.41 304.76 329.14 307.49 329.14 310.86 Z" fill="#ffffff" fill-rule="nonzero" node-id="205" stroke="none" target-height="12.190002" target-width="12.190002" target-x="316.95" target-y="304.76"></path><path d="M 816.76 761.90 L 817.00 763.56 L 817.59 764.98 L 818.55 766.21 L 819.78 767.17 L 821.20 767.77 L 822.86 768.00 L 824.51 767.77 L 825.93 767.17 L 827.17 766.21 L 828.13 764.98 L 828.72 763.56 L 828.95 761.90 L 828.72 760.25 L 828.13 758.83 L 827.17 757.59 L 825.93 756.64 L 824.51 756.04 L 822.86 755.81 L 821.20 756.04 L 819.78 756.64 L 818.55 757.59 L 817.59 758.83 L 817.00 760.25 L 816.76 761.90 Z" fill="#ffffff" fill-rule="nonzero" group-id="7" node-id="209" stroke="none" target-height="12.190002" target-width="12.190002" target-x="816.76" target-y="755.81"></path><path d="M 853.33 676.57 L 853.57 678.23 L 854.16 679.65 L 855.12 680.88 L 856.35 681.84 L 857.77 682.43 L 859.43 682.67 L 861.08 682.43 L 862.50 681.84 L 863.74 680.88 L 864.70 679.65 L 865.29 678.23 L 865.52 676.57 L 865.29 674.92 L 864.70 673.50 L 863.74 672.26 L 862.50 671.30 L 861.08 670.71 L 859.43 670.48 L 857.77 670.71 L 856.35 671.30 L 855.12 672.26 L 854.16 673.50 L 853.57 674.92 L 853.33 676.57 Z" fill="#ffffff" fill-rule="nonzero" group-id="8" node-id="214" stroke="none" target-height="12.190002" target-width="12.190002" target-x="853.33" target-y="670.48"></path><path d="M 560.76 749.71 L 561.00 751.37 L 561.59 752.79 L 562.55 754.02 L 563.78 754.98 L 565.20 755.58 L 566.86 755.81 L 568.51 755.58 L 569.93 754.98 L 571.17 754.02 L 572.13 752.79 L 572.72 751.37 L 572.95 749.71 L 572.72 748.06 L 572.13 746.64 L 571.17 745.40 L 569.93 744.45 L 568.51 743.85 L 566.86 743.62 L 565.20 743.85 L 563.78 744.45 L 562.55 745.40 L 561.59 746.64 L 561.00 748.06 L 560.76 749.71 Z" fill="#ffffff" fill-rule="nonzero" group-id="9" node-id="219" stroke="none" target-height="12.190002" target-width="12.190002" target-x="560.76" target-y="743.62"></path><path d="M 597.33 615.62 L 597.57 617.27 L 598.16 618.69 L 599.12 619.93 L 600.35 620.89 L 601.77 621.48 L 603.43 621.71 L 605.08 621.48 L 606.50 620.89 L 607.74 619.93 L 608.70 618.69 L 609.29 617.27 L 609.52 615.62 L 609.29 613.96 L 608.70 612.55 L 607.74 611.31 L 606.50 610.35 L 605.08 609.76 L 603.43 609.52 L 601.77 609.76 L 600.35 610.35 L 599.12 611.31 L 598.16 612.55 L 597.57 613.96 L 597.33 615.62 Z" fill="#ffffff" fill-rule="nonzero" group-id="10" node-id="224" stroke="none" target-height="12.190002" target-width="12.190002" target-x="597.33" target-y="609.52"></path><path d="M 512.00 469.33 L 512.23 470.99 L 512.83 472.41 L 513.78 473.64 L 515.02 474.60 L 516.44 475.19 L 518.09 475.43 L 519.75 475.19 L 521.17 474.60 L 522.40 473.64 L 523.36 472.41 L 523.96 470.99 L 524.19 469.33 L 523.96 467.68 L 523.36 466.26 L 522.40 465.02 L 521.17 464.06 L 519.75 463.47 L 518.09 463.24 L 516.44 463.47 L 515.02 464.06 L 513.78 465.02 L 512.83 466.26 L 512.23 467.68 L 512.00 469.33 Z" fill="#ffffff" fill-rule="nonzero" group-id="11" node-id="229" stroke="none" target-height="12.190002" target-width="12.190002" target-x="512" target-y="463.24"></path><path d="M 621.71 505.91 L 621.95 507.56 L 622.54 508.98 L 623.50 510.22 L 624.74 511.17 L 626.15 511.77 L 627.81 512.00 L 629.46 511.77 L 630.88 511.17 L 632.12 510.22 L 633.08 508.98 L 633.67 507.56 L 633.90 505.91 L 633.67 504.25 L 633.08 502.83 L 632.12 501.60 L 630.88 500.64 L 629.46 500.04 L 627.81 499.81 L 626.15 500.04 L 624.74 500.64 L 623.50 501.60 L 622.54 502.83 L 621.95 504.25 L 621.71 505.91 Z" fill="#ffffff" fill-rule="nonzero" group-id="12" node-id="234" stroke="none" target-height="12.190002" target-width="12.190002" target-x="621.71" target-y="499.81"></path><path d="M 719.24 298.67 L 719.47 300.32 L 720.07 301.74 L 721.02 302.98 L 722.26 303.93 L 723.68 304.53 L 725.33 304.76 L 726.99 304.53 L 728.41 303.93 L 729.64 302.98 L 730.60 301.74 L 731.19 300.32 L 731.43 298.67 L 731.19 297.01 L 730.60 295.59 L 729.64 294.36 L 728.41 293.40 L 726.99 292.81 L 725.33 292.57 L 723.68 292.81 L 722.26 293.40 L 721.02 294.36 L 720.07 295.59 L 719.47 297.01 L 719.24 298.67 Z" fill="#ffffff" fill-rule="nonzero" group-id="13" node-id="239" stroke="none" target-height="12.190002" target-width="12.190002" target-x="719.24" target-y="292.57"></path><path d="M 400.25 830.88 L 398.83 831.76 L 397.37 832.22 L 395.80 832.28 L 394.27 831.95 L 392.91 831.25 L 391.67 830.13 L 390.78 828.71 L 390.32 827.24 L 390.26 825.68 L 390.59 824.15 L 391.30 822.78 L 392.42 821.54 L 393.84 820.66 L 395.30 820.20 L 396.87 820.14 L 398.39 820.47 L 399.76 821.17 L 401.00 822.29 L 401.89 823.71 L 402.35 825.18 L 402.41 826.74 L 402.08 828.27 L 401.37 829.64 L 400.25 830.88 Z" fill="#ffffff" fill-rule="nonzero" group-id="14" node-id="244" stroke="none" target-height="12.140015" target-width="12.149994" target-x="390.26" target-y="820.14"></path><path d="M 258.92 837.51 L 257.50 838.39 L 256.04 838.85 L 254.47 838.91 L 252.94 838.58 L 251.58 837.87 L 250.34 836.76 L 249.45 835.34 L 248.99 833.87 L 248.93 832.31 L 249.26 830.78 L 249.97 829.41 L 251.09 828.17 L 252.51 827.28 L 253.97 826.83 L 255.54 826.77 L 257.06 827.10 L 258.43 827.80 L 259.67 828.92 L 260.56 830.34 L 261.02 831.81 L 261.08 833.37 L 260.75 834.90 L 260.04 836.26 L 258.92 837.51 Z" fill="#ffffff" fill-rule="nonzero" group-id="15" node-id="249" stroke="none" target-height="12.139954" target-width="12.149994" target-x="248.93" target-y="826.77"></path><path d="M 275.77 743.80 L 274.36 744.68 L 272.89 745.14 L 271.32 745.20 L 269.80 744.87 L 268.43 744.17 L 267.19 743.05 L 266.30 741.63 L 265.84 740.16 L 265.78 738.60 L 266.11 737.07 L 266.82 735.70 L 267.94 734.46 L 269.36 733.58 L 270.82 733.12 L 272.39 733.06 L 273.92 733.39 L 275.28 734.09 L 276.52 735.21 L 277.41 736.63 L 277.87 738.10 L 277.93 739.66 L 277.60 741.19 L 276.89 742.56 L 275.77 743.80 Z" fill="#ffffff" fill-rule="nonzero" group-id="16" node-id="254" stroke="none" target-height="12.140015" target-width="12.149994" target-x="265.78" target-y="733.06"></path><path d="M 926.48 725.33 L 926.71 726.99 L 927.30 728.41 L 928.26 729.64 L 929.50 730.60 L 930.92 731.19 L 932.57 731.43 L 934.23 731.19 L 935.65 730.60 L 936.88 729.64 L 937.84 728.41 L 938.43 726.99 L 938.67 725.33 L 938.43 723.68 L 937.84 722.26 L 936.88 721.02 L 935.65 720.06 L 934.23 719.47 L 932.57 719.24 L 930.92 719.47 L 929.50 720.06 L 928.26 721.02 L 927.30 722.26 L 926.71 723.68 L 926.48 725.33 Z" fill="#ffffff" fill-rule="nonzero" group-id="17" node-id="259" stroke="none" target-height="12.190002" target-width="12.190002" target-x="926.48" target-y="719.24"></path><path d="M 902.10 664.38 L 902.33 666.04 L 902.92 667.46 L 903.88 668.69 L 905.12 669.65 L 906.54 670.24 L 908.19 670.48 L 909.85 670.24 L 911.26 669.65 L 912.50 668.69 L 913.46 667.46 L 914.05 666.04 L 914.29 664.38 L 914.05 662.73 L 913.46 661.31 L 912.50 660.07 L 911.26 659.11 L 909.85 658.52 L 908.19 658.29 L 906.54 658.52 L 905.12 659.11 L 903.88 660.07 L 902.92 661.31 L 902.33 662.73 L 902.10 664.38 Z" fill="#ffffff" fill-rule="nonzero" group-id="18" node-id="264" stroke="none" target-height="12.190002" target-width="12.190002" target-x="902.1" target-y="658.29"></path><path d="M 816.76 518.10 L 817.00 519.75 L 817.59 521.17 L 818.55 522.41 L 819.78 523.36 L 821.20 523.96 L 822.86 524.19 L 824.51 523.96 L 825.93 523.36 L 827.17 522.41 L 828.13 521.17 L 828.72 519.75 L 828.95 518.10 L 828.72 516.44 L 828.13 515.02 L 827.17 513.79 L 825.93 512.83 L 824.51 512.23 L 822.86 512.00 L 821.20 512.23 L 819.78 512.83 L 818.55 513.79 L 817.59 515.02 L 817.00 516.44 L 816.76 518.10 Z" fill="#ffffff" fill-rule="nonzero" group-id="19" node-id="269" stroke="none" target-height="12.190002" target-width="12.190002" target-x="816.76" target-y="512"></path><path d="M 731.43 615.62 L 731.66 617.27 L 732.26 618.69 L 733.21 619.93 L 734.45 620.89 L 735.87 621.48 L 737.52 621.71 L 739.18 621.48 L 740.60 620.89 L 741.83 619.93 L 742.79 618.69 L 743.38 617.27 L 743.62 615.62 L 743.38 613.96 L 742.79 612.55 L 741.83 611.31 L 740.60 610.35 L 739.18 609.76 L 737.52 609.52 L 735.87 609.76 L 734.45 610.35 L 733.21 611.31 L 732.26 612.55 L 731.66 613.96 L 731.43 615.62 Z" fill="#ffffff" fill-rule="nonzero" group-id="20" node-id="274" stroke="none" target-height="12.190002" target-width="12.190002" target-x="731.43" target-y="609.52"></path><path d="M 707.05 408.38 L 707.28 410.04 L 707.87 411.46 L 708.83 412.69 L 710.07 413.65 L 711.49 414.24 L 713.14 414.48 L 714.80 414.24 L 716.22 413.65 L 717.45 412.69 L 718.41 411.46 L 719.00 410.04 L 719.24 408.38 L 719.00 406.73 L 718.41 405.31 L 717.45 404.07 L 716.22 403.11 L 714.80 402.52 L 713.14 402.29 L 711.49 402.52 L 710.07 403.11 L 708.83 404.07 L 707.87 405.31 L 707.28 406.73 L 707.05 408.38 Z" fill="#ffffff" fill-rule="nonzero" group-id="21" node-id="279" stroke="none" target-height="12.190002" target-width="12.190002" target-x="707.05" target-y="402.29"></path><path d="M 121.90 737.52 L 122.14 739.18 L 122.73 740.60 L 123.69 741.83 L 124.93 742.79 L 126.34 743.38 L 128.00 743.62 L 129.65 743.38 L 131.07 742.79 L 132.31 741.83 L 133.27 740.60 L 133.86 739.18 L 134.09 737.52 L 133.86 735.87 L 133.27 734.45 L 132.31 733.21 L 131.07 732.25 L 129.65 731.66 L 128.00 731.43 L 126.34 731.66 L 124.93 732.25 L 123.69 733.21 L 122.73 734.45 L 122.14 735.87 L 121.90 737.52 Z" fill="#ffffff" fill-rule="nonzero" group-id="22" node-id="284" stroke="none" target-height="12.190002" target-width="12.189995" target-x="121.9" target-y="731.43"></path><path d="M 158.48 603.43 L 158.71 605.08 L 159.30 606.50 L 160.26 607.74 L 161.50 608.70 L 162.92 609.29 L 164.57 609.52 L 166.23 609.29 L 167.65 608.70 L 168.88 607.74 L 169.84 606.50 L 170.43 605.08 L 170.67 603.43 L 170.43 601.77 L 169.84 600.35 L 168.88 599.12 L 167.65 598.16 L 166.23 597.57 L 164.57 597.33 L 162.92 597.57 L 161.50 598.16 L 160.26 599.12 L 159.30 600.35 L 158.71 601.77 L 158.48 603.43 Z" fill="#ffffff" fill-rule="nonzero" group-id="23" node-id="289" stroke="none" target-height="12.190002" target-width="12.190002" target-x="158.48" target-y="597.33"></path><path d="M 97.52 530.29 L 97.76 531.94 L 98.35 533.36 L 99.31 534.60 L 100.54 535.55 L 101.96 536.15 L 103.62 536.38 L 105.27 536.15 L 106.69 535.55 L 107.93 534.60 L 108.89 533.36 L 109.48 531.94 L 109.71 530.29 L 109.48 528.63 L 108.89 527.21 L 107.93 525.98 L 106.69 525.02 L 105.27 524.42 L 103.62 524.19 L 101.96 524.42 L 100.54 525.02 L 99.31 525.98 L 98.35 527.21 L 97.76 528.63 L 97.52 530.29 Z" fill="#ffffff" fill-rule="nonzero" group-id="24" node-id="294" stroke="none" target-height="12.190002" target-width="12.190002" target-x="97.52" target-y="524.19"></path><path d="M 24.38 432.76 L 24.62 434.42 L 25.21 435.84 L 26.17 437.07 L 27.40 438.03 L 28.82 438.62 L 30.48 438.86 L 32.13 438.62 L 33.55 438.03 L 34.79 437.07 L 35.74 435.84 L 36.34 434.42 L 36.57 432.76 L 36.34 431.11 L 35.74 429.69 L 34.79 428.45 L 33.55 427.49 L 32.13 426.90 L 30.48 426.67 L 28.82 426.90 L 27.40 427.49 L 26.17 428.45 L 25.21 429.69 L 24.62 431.11 L 24.38 432.76 Z" fill="#ffffff" fill-rule="nonzero" group-id="25" node-id="299" stroke="none" target-height="12.189972" target-width="12.190001" target-x="24.38" target-y="426.67"></path><path d="M 426.67 688.76 L 426.90 690.42 L 427.49 691.84 L 428.45 693.07 L 429.69 694.03 L 431.11 694.62 L 432.76 694.86 L 434.42 694.62 L 435.84 694.03 L 437.07 693.07 L 438.03 691.84 L 438.62 690.42 L 438.86 688.76 L 438.62 687.11 L 438.03 685.69 L 437.07 684.45 L 435.84 683.49 L 434.42 682.90 L 432.76 682.67 L 431.11 682.90 L 429.69 683.49 L 428.45 684.45 L 427.49 685.69 L 426.90 687.11 L 426.67 688.76 Z" fill="#ffffff" fill-rule="nonzero" group-id="26" node-id="304" stroke="none" target-height="12.190002" target-width="12.189972" target-x="426.67" target-y="682.67"></path><path d="M 316.95 481.52 L 317.19 483.18 L 317.78 484.60 L 318.74 485.83 L 319.97 486.79 L 321.39 487.39 L 323.05 487.62 L 324.70 487.39 L 326.12 486.79 L 327.36 485.83 L 328.32 484.60 L 328.91 483.18 L 329.14 481.52 L 328.91 479.87 L 328.32 478.45 L 327.36 477.21 L 326.12 476.26 L 324.70 475.66 L 323.05 475.43 L 321.39 475.66 L 319.97 476.26 L 318.74 477.21 L 317.78 478.45 L 317.19 479.87 L 316.95 481.52 Z" fill="#ffffff" fill-rule="nonzero" group-id="27" node-id="309" stroke="none" target-height="12.190002" target-width="12.190002" target-x="316.95" target-y="475.43"></path><path d="M 408.38 414.48 L 406.73 414.71 L 405.31 415.30 L 404.07 416.26 L 403.11 417.50 L 402.52 418.92 L 402.29 420.57 L 402.52 422.23 L 403.11 423.65 L 404.07 424.88 L 405.31 425.84 L 406.73 426.43 L 408.38 426.67 L 410.04 426.43 L 411.45 425.84 L 412.69 424.88 L 413.65 423.65 L 414.24 422.23 L 414.48 420.57 L 414.24 418.92 L 413.65 417.50 L 412.69 416.26 L 411.45 415.30 L 410.04 414.71 L 408.38 414.48 Z" fill="#ffffff" fill-rule="nonzero" group-id="28" node-id="314" stroke="none" target-height="12.190002" target-width="12.190002" target-x="402.29" target-y="414.48"></path><path d="M 615.62 304.76 L 613.96 305.00 L 612.54 305.59 L 611.31 306.55 L 610.35 307.78 L 609.76 309.20 L 609.52 310.86 L 609.76 312.51 L 610.35 313.93 L 611.31 315.17 L 612.54 316.13 L 613.96 316.72 L 615.62 316.95 L 617.27 316.72 L 618.69 316.13 L 619.93 315.17 L 620.89 313.93 L 621.48 312.51 L 621.71 310.86 L 621.48 309.20 L 620.89 307.78 L 619.93 306.55 L 618.69 305.59 L 617.27 305.00 L 615.62 304.76 Z" fill="#ffffff" fill-rule="nonzero" group-id="29" node-id="319" stroke="none" target-height="12.190002" target-width="12.190002" target-x="609.52" target-y="304.76"></path><path d="M 323.05 304.76 L 324.70 305.00 L 326.12 305.59 L 327.36 306.55 L 328.32 307.78 L 328.91 309.20 L 329.14 310.86 L 328.91 312.51 L 328.32 313.93 L 327.36 315.17 L 326.12 316.13 L 324.70 316.72 L 323.05 316.95 L 321.39 316.72 L 319.97 316.13 L 318.74 315.17 L 317.78 313.93 L 317.19 312.51 L 316.95 310.86 L 317.19 309.20 L 317.78 307.78 L 318.74 306.55 L 319.97 305.59 L 321.39 305.00 L 323.05 304.76 Z" fill="#ffffff" fill-rule="nonzero" group-id="30" node-id="324" stroke="none" target-height="12.190002" target-width="12.190002" target-x="316.95" target-y="304.76"></path><path d="M 128.00 207.24 L 129.66 207.47 L 131.07 208.06 L 132.31 209.02 L 133.27 210.26 L 133.86 211.68 L 134.10 213.33 L 133.86 214.99 L 133.27 216.41 L 132.31 217.64 L 131.07 218.60 L 129.66 219.19 L 128.00 219.43 L 126.34 219.19 L 124.93 218.60 L 123.69 217.64 L 122.73 216.41 L 122.14 214.99 L 121.90 213.33 L 122.14 211.68 L 122.73 210.26 L 123.69 209.02 L 124.93 208.06 L 126.34 207.47 L 128.00 207.24 Z" fill="#ffffff" fill-rule="nonzero" group-id="31" node-id="329" stroke="none" target-height="12.189987" target-width="12.200005" target-x="121.9" target-y="207.24"></path><path d="M 469.33 158.48 L 467.68 158.71 L 466.26 159.30 L 465.02 160.26 L 464.07 161.50 L 463.47 162.92 L 463.24 164.57 L 463.47 166.23 L 464.07 167.65 L 465.02 168.88 L 466.26 169.84 L 467.68 170.43 L 469.33 170.67 L 470.99 170.43 L 472.41 169.84 L 473.64 168.88 L 474.60 167.65 L 475.19 166.23 L 475.43 164.57 L 475.19 162.92 L 474.60 161.50 L 473.64 160.26 L 472.41 159.30 L 470.99 158.71 L 469.33 158.48 Z" fill="#ffffff" fill-rule="nonzero" group-id="32" node-id="334" stroke="none" target-height="12.190002" target-width="12.190002" target-x="463.24" target-y="158.48"></path><path d="M 359.62 97.52 L 357.96 97.76 L 356.54 98.35 L 355.31 99.31 L 354.35 100.54 L 353.76 101.96 L 353.52 103.62 L 353.76 105.27 L 354.35 106.69 L 355.31 107.93 L 356.54 108.89 L 357.96 109.48 L 359.62 109.71 L 361.27 109.48 L 362.69 108.89 L 363.93 107.93 L 364.89 106.69 L 365.48 105.27 L 365.71 103.62 L 365.48 101.96 L 364.89 100.54 L 363.93 99.31 L 362.69 98.35 L 361.27 97.76 L 359.62 97.52 Z" fill="#ffffff" fill-rule="nonzero" group-id="33" node-id="339" stroke="none" target-height="12.190002" target-width="12.190002" target-x="353.52" target-y="97.52"></path><path d="M 505.90 207.24 L 504.25 207.47 L 502.83 208.07 L 501.59 209.02 L 500.64 210.26 L 500.04 211.68 L 499.81 213.33 L 500.04 214.99 L 500.64 216.41 L 501.59 217.64 L 502.83 218.60 L 504.25 219.19 L 505.90 219.43 L 507.56 219.19 L 508.98 218.60 L 510.21 217.64 L 511.17 216.41 L 511.77 214.99 L 512.00 213.33 L 511.77 211.68 L 511.17 210.26 L 510.21 209.02 L 508.98 208.07 L 507.56 207.47 L 505.90 207.24 Z" fill="#ffffff" fill-rule="nonzero" group-id="34" node-id="344" stroke="none" target-height="12.189987" target-width="12.190002" target-x="499.81" target-y="207.24"></path><path d="M 566.86 73.14 L 565.20 73.38 L 563.78 73.97 L 562.55 74.93 L 561.59 76.16 L 561.00 77.58 L 560.76 79.24 L 561.00 80.89 L 561.59 82.31 L 562.55 83.55 L 563.78 84.51 L 565.20 85.10 L 566.86 85.33 L 568.51 85.10 L 569.93 84.51 L 571.17 83.55 L 572.13 82.31 L 572.72 80.89 L 572.95 79.24 L 572.72 77.58 L 572.13 76.16 L 571.17 74.93 L 569.93 73.97 L 568.51 73.38 L 566.86 73.14 Z" fill="#ffffff" fill-rule="nonzero" group-id="35" node-id="349" stroke="none" target-height="12.190002" target-width="12.190002" target-x="560.76" target-y="73.14"></path><path d="M 640.00 48.76 L 638.34 49.00 L 636.93 49.59 L 635.69 50.55 L 634.73 51.78 L 634.14 53.20 L 633.90 54.86 L 634.14 56.51 L 634.73 57.93 L 635.69 59.17 L 636.93 60.13 L 638.34 60.72 L 640.00 60.95 L 641.65 60.72 L 643.07 60.13 L 644.31 59.17 L 645.27 57.93 L 645.86 56.51 L 646.10 54.86 L 645.86 53.20 L 645.27 51.78 L 644.31 50.55 L 643.07 49.59 L 641.65 49.00 L 640.00 48.76 Z" fill="#ffffff" fill-rule="nonzero" group-id="36" node-id="354" stroke="none" target-height="12.190002" target-width="12.199951" target-x="633.9" target-y="48.76"></path><path d="M 902.10 432.76 L 902.33 434.42 L 902.92 435.84 L 903.88 437.07 L 905.12 438.03 L 906.54 438.62 L 908.19 438.86 L 909.85 438.62 L 911.26 438.03 L 912.50 437.07 L 913.46 435.84 L 914.05 434.42 L 914.29 432.76 L 914.05 431.11 L 913.46 429.69 L 912.50 428.45 L 911.26 427.49 L 909.85 426.90 L 908.19 426.67 L 906.54 426.90 L 905.12 427.49 L 903.88 428.45 L 902.92 429.69 L 902.33 431.11 L 902.10 432.76 Z" fill="#ffffff" fill-rule="nonzero" group-id="37" node-id="359" stroke="none" target-height="12.189972" target-width="12.190002" target-x="902.1" target-y="426.67"></path><path d="M 816.76 286.48 L 817.00 288.13 L 817.59 289.55 L 818.55 290.79 L 819.78 291.74 L 821.20 292.34 L 822.86 292.57 L 824.51 292.34 L 825.93 291.74 L 827.17 290.79 L 828.13 289.55 L 828.72 288.13 L 828.95 286.48 L 828.72 284.82 L 828.13 283.40 L 827.17 282.17 L 825.93 281.21 L 824.51 280.62 L 822.86 280.38 L 821.20 280.62 L 819.78 281.21 L 818.55 282.17 L 817.59 283.40 L 817.00 284.82 L 816.76 286.48 Z" fill="#ffffff" fill-rule="nonzero" group-id="38" node-id="364" stroke="none" target-height="12.190002" target-width="12.190002" target-x="816.76" target-y="280.38"></path></g></svg>