<?xml version="1.0" standalone="no"?><!DOCTYPE svg PUBLIC "-//W3C//DTD SVG 1.1//EN" "http://www.w3.org/Graphics/SVG/1.1/DTD/svg11.dtd"><svg height="1024" node-id="1" sillyvg="true" template-height="1024" template-width="1024" version="1.1" viewBox="0 0 1024 1024" width="1024" xmlns="http://www.w3.org/2000/svg" xmlns:xlink="http://www.w3.org/1999/xlink"><defs node-id="53"><linearGradient gradientUnits="userSpaceOnUse" id="paint0_linear_604_1687" node-id="17" spreadMethod="pad" x1="-139.458" x2="-139.458" y1="0" y2="1302.92"><stop offset="0" stop-color="#231440"></stop><stop offset="1" stop-color="#685aab"></stop></linearGradient><linearGradient gradientUnits="userSpaceOnUse" id="paint1_linear_604_1687" node-id="20" spreadMethod="pad" x1="445" x2="445" y1="380" y2="589"><stop offset="0" stop-color="#b6a5c4"></stop><stop offset="1" stop-color="#31253b"></stop></linearGradient><linearGradient gradientUnits="userSpaceOnUse" id="paint2_linear_604_1687" node-id="23" spreadMethod="pad" x1="631.358" x2="632.926" y1="511.463" y2="778.179"><stop offset="0" stop-color="#b6a5c4"></stop><stop offset="1" stop-color="#31253b"></stop></linearGradient><linearGradient gradientUnits="userSpaceOnUse" id="paint3_linear_604_1687" node-id="26" spreadMethod="pad" x1="425" x2="425" y1="632" y2="874"><stop offset="0" stop-color="#b6a5c4"></stop><stop offset="1" stop-color="#31253b"></stop></linearGradient><linearGradient gradientUnits="userSpaceOnUse" id="paint4_linear_604_1687" node-id="29" spreadMethod="pad" x1="890" x2="890" y1="662" y2="935"><stop offset="0" stop-color="#b6a5c4"></stop><stop offset="1" stop-color="#31253b"></stop></linearGradient><linearGradient gradientUnits="userSpaceOnUse" id="paint5_linear_604_1687" node-id="32" spreadMethod="pad" x1="253.181" x2="253.181" y1="547.518" y2="616.137"><stop offset="0" stop-color="#b6a5c4"></stop><stop offset="1" stop-color="#31253b"></stop></linearGradient><linearGradient gradientUnits="userSpaceOnUse" id="paint6_linear_604_1687" node-id="35" spreadMethod="pad" x1="253" x2="253" y1="802" y2="870.62"><stop offset="0" stop-color="#b6a5c4"></stop><stop offset="1" stop-color="#31253b"></stop></linearGradient><linearGradient gradientUnits="userSpaceOnUse" id="paint7_linear_604_1687" node-id="38" spreadMethod="pad" x1="389" x2="389" y1="821" y2="889.62"><stop offset="0" stop-color="#b6a5c4"></stop><stop offset="1" stop-color="#31253b"></stop></linearGradient><linearGradient gradientUnits="userSpaceOnUse" id="paint8_linear_604_1687" node-id="41" spreadMethod="pad" x1="267.501" x2="267.501" y1="620.354" y2="651.396"><stop offset="0" stop-color="#b6a5c4"></stop><stop offset="1" stop-color="#31253b"></stop></linearGradient><linearGradient gradientUnits="userSpaceOnUse" id="paint9_linear_604_1687" node-id="44" spreadMethod="pad" x1="309.019" x2="309.019" y1="507.965" y2="550.624"><stop offset="0" stop-color="#b6a5c4"></stop><stop offset="1" stop-color="#31253b"></stop></linearGradient><linearGradient gradientUnits="userSpaceOnUse" id="paint10_linear_604_1687" node-id="47" spreadMethod="pad" x1="385.838" x2="385.838" y1="914" y2="956.659"><stop offset="0" stop-color="#b6a5c4"></stop><stop offset="1" stop-color="#31253b"></stop></linearGradient><clipPath id="clip0_604_1687" node-id="50"><path d="M 160.00 0.00 L 864.00 0.00 C 952.37 0.00 1024.00 71.63 1024.00 160.00 L 1024.00 864.00 C 1024.00 952.37 952.37 1024.00 864.00 1024.00 L 160.00 1024.00 C 71.63 1024.00 0.00 952.37 0.00 864.00 L 0.00 160.00 C -0.00 71.63 71.63 0.00 160.00 0.00 Z" fill="#000000" fill-rule="nonzero" node-id="122" stroke="none" target-height="1024" target-width="1024" target-x="0" target-y="0"></path></clipPath></defs><g clip-path="url(#clip0_604_1687)" id="sillyvg_g_0" node-id="126"><path d="M 160.00 0.00 L 864.00 0.00 C 952.37 0.00 1024.00 71.63 1024.00 160.00 L 1024.00 864.00 C 1024.00 952.37 952.37 1024.00 864.00 1024.00 L 160.00 1024.00 C 71.63 1024.00 0.00 952.37 0.00 864.00 L 0.00 160.00 C -0.00 71.63 71.63 0.00 160.00 0.00 Z" fill="url(#paint0_linear_604_1687)" fill-rule="nonzero" node-id="128" stroke="none" target-height="1024" target-width="1024" target-x="0" target-y="0"></path><path d="M 633.90 353.52 C 633.90 427.58 573.87 487.62 499.81 487.62 C 425.75 487.62 365.71 427.58 365.71 353.52 C 365.71 279.47 425.75 219.43 499.81 219.43 C 573.87 219.43 633.90 279.47 633.90 353.52 Z" fill="#fb6849" fill-rule="nonzero" node-id="130" stroke="none" target-height="268.19" target-width="268.19003" target-x="365.71" target-y="219.43"></path><path d="M 489.04 385.00 L 1026.79 681.11 L 1026.79 1022.03 L -3.00 1022.03 L 1.87 693.35 L 489.04 385.00 Z" fill="#30243b" fill-rule="evenodd" node-id="132" stroke="none" target-height="637.03" target-width="1029.79" target-x="-3" target-y="385"></path><path d="M 445.00 394.89 L 481.71 403.89 L 478.88 380.00 L 681.00 491.94 L 646.71 491.94 L 632.22 502.64 L 550.71 456.52 L 613.36 516.55 L 597.01 528.62 L 607.09 556.08 L 534.35 589.00 L 460.46 515.63 L 508.00 524.32 L 477.89 477.56 L 550.71 511.49 L 489.10 456.52 L 516.84 465.89 L 445.00 394.89 Z" fill="url(#paint1_linear_604_1687)" fill-rule="evenodd" node-id="134" stroke="none" target-height="209" target-width="236" target-x="445" target-y="380"></path><path d="M 694.29 514.84 L 716.28 510.96 L 936.25 631.45 L 905.75 663.59 L 871.86 652.33 L 893.33 676.74 L 840.90 732.05 L 764.37 699.04 L 808.37 777.15 L 670.45 680.73 L 666.43 618.96 L 631.72 572.15 L 663.91 580.21 L 652.66 535.60 L 701.40 530.13 L 694.29 514.84 Z" fill="url(#paint2_linear_604_1687)" fill-rule="evenodd" node-id="136" stroke="none" target-height="266.19003" target-width="304.53003" target-x="631.72" target-y="510.96"></path><path d="M 425.00 632.00 L 494.04 668.78 L 494.04 644.01 L 636.62 769.51 L 614.05 719.30 L 697.35 746.76 L 779.00 845.15 L 715.78 854.14 L 587.87 793.23 L 652.42 863.16 L 576.21 874.00 L 425.00 738.06 L 425.00 694.84 L 470.00 719.30 L 425.00 632.00 Z" fill="url(#paint3_linear_604_1687)" fill-rule="evenodd" node-id="138" stroke="none" target-height="242" target-width="354" target-x="425" target-y="632"></path><path d="M 856.50 732.89 L 934.71 774.38 L 981.00 688.50 L 1096.21 774.38 L 1096.21 888.01 L 1070.65 831.37 L 1165.01 862.35 L 1257.50 973.34 L 1185.89 983.49 L 1040.99 914.78 L 1114.11 993.66 L 1027.79 1005.89 L 856.50 852.53 L 856.50 803.78 L 907.47 831.37 L 856.50 732.89 Z" fill="url(#paint4_linear_604_1687)" fill-rule="evenodd" node-id="140" stroke="none" target-height="317.39" target-width="401" target-x="856.5" target-y="688.5"></path><path d="M 258.38 575.02 L 253.18 547.52 L 311.91 568.30 L 370.63 616.14 L 312.00 609.99 L 258.38 575.02 Z" fill="url(#paint5_linear_604_1687)" fill-rule="evenodd" node-id="142" stroke="none" target-height="68.619995" target-width="117.45001" target-x="253.18" target-y="547.52"></path><path d="M 258.20 829.50 L 253.00 802.00 L 311.73 822.78 L 370.45 870.62 L 311.82 864.47 L 258.20 829.50 Z" fill="url(#paint6_linear_604_1687)" fill-rule="evenodd" node-id="144" stroke="none" target-height="68.619995" target-width="117.45001" target-x="253" target-y="802"></path><path d="M 394.20 848.50 L 389.00 821.00 L 447.73 841.78 L 506.45 889.62 L 447.82 883.47 L 394.20 848.50 Z" fill="url(#paint7_linear_604_1687)" fill-rule="evenodd" node-id="146" stroke="none" target-height="68.619995" target-width="117.45001" target-x="389" target-y="821"></path><path d="M 286.40 651.40 L 267.50 620.35 L 315.06 631.51 L 307.41 644.10 L 286.40 651.40 Z" fill="url(#paint8_linear_604_1687)" fill-rule="evenodd" node-id="148" stroke="none" target-height="31.050049" target-width="47.559998" target-x="267.5" target-y="620.35"></path><path d="M 309.02 526.04 L 327.65 526.04 L 319.05 507.96 L 344.22 518.98 L 370.63 540.58 L 336.67 550.62 L 309.02 526.04 Z" fill="url(#paint9_linear_604_1687)" fill-rule="evenodd" node-id="150" stroke="none" target-height="42.660004" target-width="61.610016" target-x="309.02" target-y="507.96"></path><path d="M 385.84 932.08 L 404.47 932.08 L 395.87 914.00 L 421.04 925.01 L 447.45 946.62 L 413.49 956.66 L 385.84 932.08 Z" fill="url(#paint10_linear_604_1687)" fill-rule="evenodd" node-id="152" stroke="none" target-height="42.659973" target-width="61.610016" target-x="385.84" target-y="914"></path></g></svg>