<?xml version="1.0" standalone="no"?><!DOCTYPE svg PUBLIC "-//W3C//DTD SVG 1.1//EN" "http://www.w3.org/Graphics/SVG/1.1/DTD/svg11.dtd"><svg height="1024" node-id="1" sillyvg="true" template-height="1024" template-width="1024" version="1.1" viewBox="0 0 1024 1024" width="1024" xmlns="http://www.w3.org/2000/svg" xmlns:xlink="http://www.w3.org/1999/xlink"><defs node-id="31"><linearGradient gradientUnits="userSpaceOnUse" id="paint0_linear_604_2068" node-id="25" spreadMethod="pad" x1="62.2431" x2="901.02" y1="29.6157" y2="992.377"><stop offset="0" stop-color="#2b37f1"></stop><stop offset="1" stop-color="#2c76f1"></stop></linearGradient><clipPath id="clip0_604_2068" node-id="28"><path d="M 160.00 0.00 L 864.00 0.00 C 952.37 0.00 1024.00 71.63 1024.00 160.00 L 1024.00 864.00 C 1024.00 952.37 952.37 1024.00 864.00 1024.00 L 160.00 1024.00 C 71.63 1024.00 0.00 952.37 0.00 864.00 L 0.00 160.00 C -0.00 71.63 71.63 0.00 160.00 0.00 Z" fill="#000000" fill-rule="nonzero" node-id="40" stroke="none" target-height="1024" target-width="1024" target-x="0" target-y="0"></path></clipPath></defs><g clip-path="url(#clip0_604_2068)" id="sillyvg_g_0" node-id="44"><path d="M 160.00 0.00 L 864.00 0.00 C 952.37 0.00 1024.00 71.63 1024.00 160.00 L 1024.00 864.00 C 1024.00 952.37 952.37 1024.00 864.00 1024.00 L 160.00 1024.00 C 71.63 1024.00 0.00 952.37 0.00 864.00 L 0.00 160.00 C -0.00 71.63 71.63 0.00 160.00 0.00 Z" fill="url(#paint0_linear_604_2068)" fill-rule="nonzero" node-id="46" stroke="none" target-height="1024" target-width="1024" target-x="0" target-y="0"></path><path d="M 548.57 103.62 C 548.57 106.99 545.84 109.71 542.48 109.71 C 539.11 109.71 536.38 106.99 536.38 103.62 C 536.38 100.25 539.11 97.52 542.48 97.52 C 545.84 97.52 548.57 100.25 548.57 103.62 Z" fill="#e7e7ea" fill-rule="nonzero" node-id="48" stroke="none" target-height="12.190002" target-width="12.190002" target-x="536.38" target-y="97.52"></path><path d="M 816.76 262.10 C 816.76 265.46 814.03 268.19 810.67 268.19 C 807.30 268.19 804.57 265.46 804.57 262.10 C 804.57 258.73 807.30 256.00 810.67 256.00 C 814.03 256.00 816.76 258.73 816.76 262.10 Z" fill="#e7e7ea" fill-rule="nonzero" node-id="50" stroke="none" target-height="12.190002" target-width="12.190002" target-x="804.57" target-y="256"></path><path d="M 451.05 286.48 C 451.05 289.84 448.32 292.57 444.95 292.57 C 441.59 292.57 438.86 289.84 438.86 286.48 C 438.86 283.11 441.59 280.38 444.95 280.38 C 448.32 280.38 451.05 283.11 451.05 286.48 Z" fill="#e7e7ea" fill-rule="nonzero" node-id="52" stroke="none" target-height="12.190002" target-width="12.190002" target-x="438.86" target-y="280.38"></path><path d="M 231.62 152.38 C 231.62 155.75 228.89 158.48 225.52 158.48 C 222.16 158.48 219.43 155.75 219.43 152.38 C 219.43 149.01 222.16 146.29 225.52 146.29 C 228.89 146.29 231.62 149.01 231.62 152.38 Z" fill="#e7e7ea" fill-rule="nonzero" node-id="54" stroke="none" target-height="12.190002" target-width="12.190002" target-x="219.43" target-y="146.29"></path><path d="M 97.52 286.48 C 97.52 289.84 94.79 292.57 91.43 292.57 C 88.06 292.57 85.33 289.84 85.33 286.48 C 85.33 283.11 88.06 280.38 91.43 280.38 C 94.79 280.38 97.52 283.11 97.52 286.48 Z" fill="#e7e7ea" fill-rule="nonzero" node-id="56" stroke="none" target-height="12.190002" target-width="12.189995" target-x="85.33" target-y="280.38"></path><path d="M 231.62 323.05 C 231.62 326.41 228.89 329.14 225.52 329.14 C 222.16 329.14 219.43 326.41 219.43 323.05 C 219.43 319.68 222.16 316.95 225.52 316.95 C 228.89 316.95 231.62 319.68 231.62 323.05 Z" fill="#e7e7ea" fill-rule="nonzero" node-id="58" stroke="none" target-height="12.190002" target-width="12.190002" target-x="219.43" target-y="316.95"></path><path d="M 560.76 585.14 L 694.86 585.14 L 694.86 633.90 L 560.76 633.90 Z" fill="#191944" fill-rule="nonzero" node-id="60" stroke="none" target-height="48.76001" target-width="134.09998" target-x="560.76" target-y="585.14"></path><path d="M 719.24 591.24 C 719.24 540.74 678.30 499.81 627.81 499.81 C 577.32 499.81 536.38 540.74 536.38 591.24" fill="#cbd2ff" fill-rule="evenodd" node-id="62" stroke="none" target-height="91.42999" target-width="182.85999" target-x="536.38" target-y="499.81"></path><path d="M 719.24 591.24 C 719.24 540.74 678.30 499.81 627.81 499.81 L 627.81 591.24" fill="#5767dc" fill-rule="evenodd" node-id="64" stroke="none" target-height="91.42999" target-width="91.42999" target-x="627.81" target-y="499.81"></path><path d="M 512.00 1275.31 L 750.86 1275.31 L 710.38 621.71 L 542.76 621.71 L 512.00 1275.31 Z" fill="#cbd2ff" fill-rule="evenodd" node-id="66" stroke="none" target-height="653.60004" target-width="238.85999" target-x="512" target-y="621.71"></path><path d="M 710.38 621.71 L 750.86 1275.31 L 694.86 1035.70 L 665.67 621.71 L 710.38 621.71 Z" fill="#5767dc" fill-rule="nonzero" node-id="68" stroke="none" target-height="653.60004" target-width="85.19" target-x="665.67" target-y="621.71"></path><path d="M 443.53 662.62 C 433.12 605.11 451.09 548.21 488.17 507.13" fill="none" group-id="1" node-id="72" stroke="#ffffff" stroke-linecap="round" stroke-opacity="0.597935" stroke-width="1.88235" target-height="155.48999" target-width="55.05002" target-x="433.12" target-y="507.13"></path><path d="M 801.71 574.51 C 784.27 518.74 741.94 476.67 690.03 457.47" fill="none" group-id="2" node-id="77" stroke="#f3f8ff" stroke-linecap="round" stroke-opacity="0.317871" stroke-width="1.88235" target-height="117.04001" target-width="111.67999" target-x="690.03" target-y="457.47"></path><path d="M 580.76 593.42 L 542.39 437.44 C 537.85 418.98 549.23 400.31 567.81 395.74 C 586.39 391.17 605.13 402.43 609.67 420.89 L 648.04 576.87" fill="#a5add8" fill-rule="evenodd" node-id="80" stroke="none" target-height="202.24997" target-width="110.19" target-x="537.85" target-y="391.17"></path><path d="M 580.76 593.42 L 542.39 437.44 C 537.85 418.98 549.23 400.31 567.81 395.74 L 616.82 590.61 L 580.76 593.42 Z" fill="#e5e9ff" fill-rule="evenodd" node-id="82" stroke="none" target-height="197.68" target-width="78.97003" target-x="537.85" target-y="395.74"></path><path d="M 615.94 686.36 L 499.15 797.79 C 485.33 810.98 463.41 810.57 450.19 796.86 L 450.19 796.86 C 436.96 783.16 437.45 761.36 451.27 748.18 L 568.05 636.74" fill="#b2bbed" fill-rule="evenodd" node-id="84" stroke="none" target-height="174.23999" target-width="178.98001" target-x="436.96" target-y="636.74"></path><path d="M 450.19 796.86 C 436.96 783.16 437.45 761.36 451.27 748.18 L 568.05 636.74 L 595.58 665.24 L 450.19 796.86 Z" fill="#e5e9ff" fill-rule="evenodd" node-id="86" stroke="none" target-height="160.12" target-width="158.62003" target-x="436.96" target-y="636.74"></path><path d="M 659.99 675.52 L 815.14 720.06 C 833.50 725.33 852.74 714.80 858.09 696.52 L 858.09 696.52 C 863.46 678.25 852.91 659.16 834.55 653.90 L 679.40 609.35" fill="#e5e9ff" fill-rule="evenodd" node-id="88" stroke="none" target-height="115.98004" target-width="203.47003" target-x="659.99" target-y="609.35"></path><path d="M 659.99 675.52 L 815.14 720.06 C 833.50 725.33 852.74 714.80 858.09 696.52 L 670.03 645.22 L 659.99 675.52 Z" fill="#9fa9e0" fill-rule="evenodd" node-id="90" stroke="none" target-height="80.11005" target-width="198.10004" target-x="659.99" target-y="645.22"></path><path d="M 611.66 574.00 C 642.62 566.38 673.87 585.15 681.43 615.91 C 689.00 646.68 670.03 677.80 639.07 685.41 C 608.10 693.03 576.86 674.26 569.29 643.50 C 561.72 612.74 580.70 581.62 611.66 574.00 L 611.66 574.00 Z" fill="#34346d" fill-rule="evenodd" node-id="92" stroke="none" target-height="126.650024" target-width="127.28003" target-x="561.72" target-y="566.38"></path></g></svg>