<?xml version="1.0" standalone="no"?><!DOCTYPE svg PUBLIC "-//W3C//DTD SVG 1.1//EN" "http://www.w3.org/Graphics/SVG/1.1/DTD/svg11.dtd"><svg height="1024" node-id="1" sillyvg="true" template-height="1024" template-width="1024" version="1.1" viewBox="0 0 1024 1024" width="1024" xmlns="http://www.w3.org/2000/svg" xmlns:xlink="http://www.w3.org/1999/xlink"><defs node-id="35"><linearGradient gradientUnits="objectBoundingBox" id="linear-gradient" node-id="5" spreadMethod="pad" x1="0.5" x2="0.506" y1="0" y2="0.766"><stop offset="0" stop-color="#f8f8f8" stop-opacity="0.71"></stop><stop offset="1" stop-color="#e2e7f2" stop-opacity="0"></stop></linearGradient><linearGradient gradientUnits="objectBoundingBox" id="linear-gradient-2" node-id="8" spreadMethod="pad" x1="0.5" x2="0.5" y1="0" y2="0.522"><stop offset="0" stop-color="#f8f8f8"></stop><stop offset="1" stop-color="#f8f8f8" stop-opacity="0"></stop></linearGradient><linearGradient gradientUnits="objectBoundingBox" id="linear-gradient-3" node-id="11" spreadMethod="pad" x1="0.765" x2="0.338" y1="-0.019" y2="1.006"><stop offset="0" stop-color="#f8f8f8"></stop><stop offset="1" stop-color="#e2e7f2" stop-opacity="0"></stop></linearGradient><linearGradient gradientUnits="objectBoundingBox" id="linear-gradient-4" node-id="14" spreadMethod="pad" x1="0.7653618" x2="0.65030736" y1="-0.019008985" y2="0.8153854"><stop offset="0" stop-color="#f8f8f8"></stop><stop offset="1" stop-color="#e2e7f2" stop-opacity="0"></stop></linearGradient><linearGradient gradientUnits="objectBoundingBox" id="linear-gradient-5" node-id="15" spreadMethod="pad" x1="0.5" x2="0.5" y1="0" y2="1"><stop offset="0" stop-color="#eaeef2"></stop><stop offset="1" stop-color="#e1e6ed"></stop></linearGradient><linearGradient gradientUnits="objectBoundingBox" id="linear-gradient-6" node-id="18" spreadMethod="pad" x1="0.5" x2="0.5" y1="0" y2="1"><stop offset="0" stop-color="#f8f8f8"></stop><stop offset="1" stop-color="#e2e7f2" stop-opacity="0"></stop></linearGradient></defs><g node-id="72"><path d="M 0.00 0.00 L 1024.00 0.00 L 1024.00 1024.00 L 0.00 1024.00 Z" fill="#ffffff" fill-opacity="0" fill-rule="nonzero" group-id="1" id="矩形_336" node-id="20" stroke="none" target-height="1024" target-width="1024" target-x="0" target-y="0"></path></g><g node-id="73"><g node-id="74"><path d="M 63.16 779.08 L 62.15 774.56 L 59.56 762.17 L 56.03 743.67 L 52.22 720.83 L 50.43 708.43 L 48.77 695.40 L 47.39 682.26 L 46.34 669.15 L 45.70 656.14 L 45.56 643.83 L 45.79 635.69 L 46.31 628.16 L 47.10 621.21 L 48.28 614.31 L 49.79 608.29 L 51.59 603.06 L 53.34 599.24 L 55.27 596.02 L 57.39 593.33 L 59.69 591.12 L 63.01 588.71 L 66.20 586.86 L 69.28 585.51 L 72.28 584.63 L 76.46 583.99 L 80.51 583.98 L 84.49 584.59 L 88.39 585.72 L 92.19 587.29 L 95.92 589.30 L 101.21 592.88 L 106.17 597.01 L 110.77 601.51 L 114.84 606.02 L 118.55 610.58 L 121.53 614.59 L 125.83 620.99 L 127.35 623.51 L 126.21 619.42 L 123.32 608.26 L 119.49 591.70 L 117.51 582.08 L 115.54 571.39 L 113.78 560.41 L 112.28 548.99 L 111.17 537.49 L 110.53 526.17 L 110.42 518.63 L 110.62 511.44 L 111.11 504.59 L 111.98 497.77 L 113.22 491.56 L 114.81 485.90 L 116.37 481.74 L 118.17 478.03 L 120.20 474.72 L 122.46 471.78 L 125.08 469.15 L 127.99 466.97 L 131.25 465.21 L 134.87 463.88 L 138.67 463.13 L 142.33 462.93 L 145.91 463.28 L 149.44 464.16 L 152.83 465.49 L 156.20 467.26 L 159.56 469.49 L 162.94 472.23 L 167.07 476.24 L 171.18 480.89 L 175.26 486.26 L 179.02 491.86 L 182.70 497.90 L 186.29 504.40 L 191.27 514.40 L 195.92 524.81 L 200.21 535.35 L 204.05 545.64 L 207.57 555.80 L 210.56 565.05 L 215.35 581.19 L 218.30 592.23 L 219.31 596.32 L 218.85 592.24 L 218.04 581.39 L 217.77 574.32 L 217.74 565.90 L 218.04 557.17 L 218.81 547.87 L 219.62 541.64 L 220.73 535.49 L 222.13 529.41 L 223.90 523.45 L 226.04 517.87 L 228.55 512.64 L 230.77 508.90 L 233.23 505.50 L 235.95 502.43 L 238.94 499.67 L 242.19 497.28 L 245.79 495.31 L 249.76 493.75 L 254.15 492.60 L 257.69 492.29 L 261.24 492.61 L 264.85 493.58 L 268.58 495.26 L 272.02 497.35 L 275.55 499.99 L 279.19 503.24 L 282.96 507.16 L 287.53 512.61 L 292.19 518.89 L 296.94 526.07 L 301.38 533.42 L 305.79 541.30 L 310.18 549.74 L 316.40 562.62 L 322.33 575.93 L 327.93 589.36 L 333.06 602.40 L 337.85 615.24 L 342.00 626.89 L 348.81 647.16 L 353.16 660.97 L 354.68 666.07 Z" fill="url(#linear-gradient)" fill-rule="nonzero" group-id="2,3" id="路径_63" node-id="22" stroke="none" target-height="316.15002" target-width="309.12" target-x="45.56" target-y="462.93"></path></g><g node-id="75"><path d="M 1002.00 809.00 L 1001.74 813.35 L 1000.99 817.69 L 999.74 822.05 L 997.96 826.45 L 995.60 830.91 L 992.64 835.46 L 988.83 840.31 L 984.27 845.25 L 978.88 850.28 L 972.57 855.42 L 965.25 860.66 L 958.13 865.23 L 950.20 869.84 L 941.39 874.49 L 931.64 879.18 L 920.88 883.90 L 907.84 889.10 L 893.51 894.27 L 877.79 899.39 L 860.59 904.46 L 842.40 909.29 L 823.09 913.90 L 802.61 918.29 L 782.07 922.23 L 760.61 925.91 L 738.18 929.31 L 715.72 932.31 L 692.54 935.00 L 668.60 937.37 L 644.65 939.36 L 620.18 941.01 L 595.17 942.32 L 570.16 943.25 L 544.83 943.81 L 519.19 944.00 L 493.55 943.81 L 468.22 943.25 L 443.21 942.32 L 418.20 941.01 L 393.73 939.36 L 369.78 937.37 L 345.84 935.00 L 322.66 932.31 L 300.20 929.31 L 277.77 925.91 L 256.31 922.23 L 235.78 918.29 L 215.29 913.90 L 195.98 909.29 L 177.79 904.46 L 160.60 899.39 L 144.87 894.27 L 130.54 889.10 L 117.50 883.90 L 106.74 879.18 L 96.99 874.49 L 88.18 869.84 L 80.25 865.23 L 73.13 860.66 L 65.82 855.42 L 59.50 850.28 L 54.11 845.25 L 49.55 840.31 L 45.74 835.46 L 42.78 830.91 L 40.43 826.45 L 38.64 822.05 L 37.39 817.69 L 36.64 813.35 L 36.38 809.00 L 36.64 804.65 L 37.39 800.31 L 38.64 795.95 L 40.43 791.55 L 42.78 787.09 L 45.74 782.54 L 49.55 777.69 L 54.11 772.75 L 59.50 767.72 L 65.82 762.58 L 73.13 757.34 L 80.25 752.77 L 88.18 748.16 L 96.99 743.51 L 106.74 738.82 L 117.50 734.10 L 130.54 728.90 L 144.87 723.73 L 160.60 718.61 L 177.79 713.54 L 195.98 708.71 L 215.29 704.10 L 235.78 699.71 L 256.31 695.77 L 277.77 692.09 L 300.20 688.69 L 322.66 685.69 L 345.84 683.00 L 369.78 680.63 L 393.73 678.64 L 418.20 676.99 L 443.21 675.68 L 468.22 674.75 L 493.55 674.19 L 519.19 674.00 L 544.83 674.19 L 570.16 674.75 L 595.17 675.68 L 620.18 676.99 L 644.65 678.64 L 668.60 680.63 L 692.54 683.00 L 715.72 685.69 L 738.18 688.69 L 760.61 692.09 L 782.07 695.77 L 802.61 699.71 L 823.09 704.10 L 842.40 708.71 L 860.59 713.54 L 877.79 718.61 L 893.51 723.73 L 907.84 728.90 L 920.88 734.10 L 931.64 738.82 L 941.39 743.51 L 950.20 748.16 L 958.13 752.77 L 965.25 757.34 L 972.57 762.58 L 978.88 767.72 L 984.27 772.75 L 988.83 777.69 L 992.64 782.54 L 995.60 787.09 L 997.96 791.55 L 999.74 795.95 L 1000.99 800.31 L 1001.74 804.65 L 1002.00 809.00 Z" fill="url(#linear-gradient-2)" fill-rule="nonzero" group-id="2,4" id="椭圆_16" node-id="23" stroke="none" target-height="270" target-width="965.62" target-x="36.38" target-y="674"></path></g><g node-id="76"><path d="M 804.83 676.92 L 809.85 673.96 L 813.75 671.17 L 816.70 668.53 L 819.36 665.58 L 821.35 662.81 L 822.78 660.18 L 824.38 656.07 L 825.33 652.31 L 826.62 645.39 L 827.16 643.32 L 827.93 641.49 L 828.92 639.85 L 830.20 638.46 L 832.01 637.22 L 834.50 636.15 L 840.33 634.19 L 845.39 632.33 L 850.10 630.26 L 854.02 628.04 L 856.39 626.31 L 858.44 624.38 L 860.20 622.23 L 861.63 619.86 L 862.80 617.09 L 863.70 613.85 L 865.07 619.20 L 866.70 624.06 L 870.13 633.30 L 871.52 637.86 L 872.43 642.51 L 872.69 645.66 L 872.58 649.02 L 872.07 652.62 L 871.16 656.15 L 869.67 660.11 L 867.49 664.57 L 865.70 668.30 L 864.30 672.00 L 863.29 675.69 L 862.24 681.31 L 861.63 686.88 L 860.96 697.86 L 860.49 703.21 L 859.68 708.34 L 858.86 711.67 L 857.72 714.89 L 856.24 718.02 L 854.41 720.95 L 852.03 723.81 L 849.06 726.62 L 845.71 729.06 L 842.16 731.08 L 838.38 732.70 L 834.46 733.98 L 830.49 734.95 L 826.46 735.62 L 820.41 736.18 L 814.71 736.29 L 809.20 736.06 L 804.55 735.64 L 797.42 734.57 L 794.72 734.01 L 793.65 731.72 L 791.29 725.58 L 790.06 721.55 L 788.92 716.74 L 788.14 711.71 L 787.82 706.32 L 787.94 702.70 L 788.42 699.09 L 789.25 695.46 L 790.49 691.97 L 792.22 688.58 L 794.49 685.28 L 797.20 682.33 L 800.61 679.54 L 804.83 676.92 Z" fill="url(#linear-gradient-3)" fill-rule="nonzero" group-id="2,5" id="路径_61" node-id="24" stroke="none" target-height="122.44" target-width="84.869995" target-x="787.82" target-y="613.85"></path></g><g node-id="77"><path d="M 878.81 695.16 L 882.79 694.84 L 886.03 694.29 L 888.63 693.56 L 891.15 692.54 L 893.22 691.43 L 894.88 690.24 L 897.10 688.20 L 898.81 686.17 L 901.69 682.29 L 903.14 680.71 L 904.77 679.58 L 905.97 679.11 L 907.46 678.89 L 909.31 678.97 L 914.85 679.67 L 919.49 680.02 L 922.47 679.98 L 925.15 679.61 L 927.56 678.93 L 929.79 677.85 L 931.92 676.24 L 933.97 674.02 L 933.07 678.64 L 932.59 682.92 L 932.18 687.13 L 931.58 691.14 L 930.94 693.72 L 929.93 696.30 L 928.54 698.88 L 926.81 701.24 L 924.37 703.73 L 921.08 706.37 L 918.44 708.50 L 916.15 710.77 L 914.18 713.18 L 911.56 717.04 L 909.26 720.98 L 907.05 724.92 L 904.79 728.63 L 903.13 730.97 L 901.29 733.10 L 899.24 735.02 L 896.97 736.64 L 894.28 737.98 L 891.10 739.02 L 887.75 739.57 L 884.40 739.68 L 881.03 739.35 L 876.08 738.26 L 871.40 736.63 L 866.97 734.61 L 863.23 732.56 L 857.57 728.87 L 855.45 727.25 L 855.51 724.93 L 855.70 722.53 L 856.16 719.12 L 856.91 715.52 L 858.11 711.52 L 859.78 707.61 L 862.06 703.85 L 863.92 701.58 L 866.13 699.58 L 868.73 697.82 L 871.55 696.51 L 874.88 695.61 L 878.81 695.16 Z" fill="url(#linear-gradient-4)" fill-rule="nonzero" group-id="2,6" id="路径_62" node-id="25" stroke="none" target-height="65.65997" target-width="78.51996" target-x="855.45" target-y="674.02"></path></g><g node-id="78"><path d="M 642.88 709.68 L 399.87 709.68 L 394.72 709.42 L 389.74 708.68 L 384.88 707.46 L 380.13 705.76 L 375.57 703.61 L 371.28 701.04 L 367.22 698.04 L 363.40 694.59 L 359.95 690.77 L 356.95 686.72 L 354.38 682.42 L 352.23 677.86 L 350.53 673.11 L 349.31 668.26 L 348.58 663.27 L 348.32 658.13 L 348.32 356.21 L 348.58 351.06 L 349.32 346.08 L 350.53 341.22 L 352.23 336.47 L 354.38 331.91 L 356.95 327.62 L 359.95 323.57 L 363.40 319.74 L 367.23 316.29 L 371.28 313.29 L 375.57 310.72 L 380.13 308.57 L 384.88 306.87 L 389.74 305.66 L 394.72 304.92 L 399.87 304.66 L 449.15 304.66 L 444.37 305.04 L 439.87 306.00 L 435.61 307.53 L 431.58 309.61 L 427.92 312.13 L 424.59 315.11 L 421.66 318.48 L 419.20 322.19 L 417.20 326.25 L 415.74 330.54 L 414.85 335.05 L 414.55 339.84 L 414.91 344.63 L 415.85 349.14 L 417.36 353.40 L 419.41 357.44 L 421.92 361.12 L 424.88 364.46 L 428.25 367.40 L 431.94 369.88 L 435.99 371.90 L 440.27 373.38 L 444.78 374.29 L 449.57 374.62 L 450.80 374.62 L 455.61 374.31 L 460.13 373.42 L 464.43 371.95 L 468.50 369.93 L 472.21 367.46 L 475.59 364.52 L 478.58 361.17 L 481.09 357.49 L 483.16 353.45 L 484.68 349.17 L 485.63 344.65 L 485.99 339.85 L 485.68 335.04 L 484.79 330.51 L 483.32 326.21 L 481.30 322.14 L 478.83 318.43 L 475.89 315.05 L 472.55 312.07 L 468.86 309.55 L 464.82 307.49 L 460.54 305.97 L 456.02 305.02 L 451.22 304.66 L 592.75 304.66 L 587.97 305.04 L 583.46 306.00 L 579.20 307.53 L 575.17 309.61 L 571.51 312.13 L 568.18 315.11 L 565.26 318.48 L 562.80 322.19 L 560.79 326.25 L 559.33 330.54 L 558.45 335.05 L 558.14 339.84 L 558.50 344.63 L 559.44 349.14 L 560.96 353.40 L 563.01 357.44 L 565.51 361.12 L 568.48 364.46 L 571.84 367.40 L 575.53 369.88 L 579.59 371.90 L 583.87 373.38 L 588.38 374.29 L 593.17 374.62 L 594.39 374.62 L 599.20 374.31 L 603.73 373.42 L 608.03 371.95 L 612.10 369.93 L 615.81 367.46 L 619.19 364.52 L 622.17 361.18 L 624.69 357.50 L 626.75 353.45 L 628.28 349.17 L 629.22 344.65 L 629.59 339.85 L 629.28 335.04 L 628.39 330.51 L 626.92 326.22 L 624.90 322.14 L 622.43 318.43 L 619.49 315.05 L 616.15 312.07 L 612.46 309.56 L 608.42 307.49 L 604.14 305.97 L 599.62 305.02 L 594.82 304.66 L 642.88 304.66 L 648.02 304.92 L 653.01 305.66 L 657.86 306.87 L 662.61 308.57 L 667.17 310.72 L 671.47 313.29 L 675.52 316.29 L 679.34 319.74 L 682.79 323.57 L 685.79 327.62 L 688.36 331.91 L 690.52 336.47 L 692.21 341.22 L 693.43 346.08 L 694.17 351.06 L 694.43 356.21 L 694.43 658.13 L 694.17 663.27 L 693.43 668.26 L 692.21 673.11 L 690.52 677.86 L 688.36 682.42 L 685.79 686.72 L 682.79 690.77 L 679.34 694.59 L 675.52 698.04 L 671.47 701.04 L 667.17 703.61 L 662.61 705.76 L 657.87 707.46 L 653.01 708.68 L 648.02 709.42 L 642.88 709.68 Z" fill="url(#linear-gradient-5)" fill-rule="nonzero" group-id="2,7" id="路径_8758" node-id="26" stroke="none" target-height="405.02" target-width="346.11" target-x="348.32" target-y="304.66"></path></g><g node-id="79"><path d="M 449.95 263.51 L 449.95 263.51 L 454.17 263.81 L 458.14 264.61 L 461.90 265.93 L 465.46 267.72 L 468.70 269.90 L 471.65 272.50 L 474.25 275.45 L 476.44 278.69 L 478.23 282.25 L 479.54 286.02 L 480.35 289.98 L 480.64 294.20 L 480.64 337.16 L 480.35 341.37 L 479.54 345.34 L 478.23 349.10 L 476.44 352.66 L 474.25 355.90 L 471.65 358.85 L 468.70 361.45 L 465.46 363.64 L 461.90 365.43 L 458.14 366.74 L 454.17 367.55 L 449.95 367.84 L 449.95 367.84 L 445.74 367.55 L 441.77 366.74 L 438.01 365.43 L 434.45 363.64 L 431.21 361.45 L 428.26 358.85 L 425.66 355.90 L 423.47 352.66 L 421.68 349.10 L 420.37 345.34 L 419.56 341.37 L 419.27 337.16 L 419.27 294.20 L 419.56 289.98 L 420.37 286.02 L 421.68 282.25 L 423.47 278.69 L 425.66 275.45 L 428.26 272.50 L 431.21 269.90 L 434.45 267.72 L 438.01 265.93 L 441.77 264.61 L 445.74 263.81 L 449.95 263.51 Z" fill="#f5f8fe" fill-rule="nonzero" group-id="2,8" id="矩形_302" node-id="27" stroke="none" target-height="104.32999" target-width="61.370026" target-x="419.27" target-y="263.51"></path></g><g node-id="80"><path d="M 592.75 263.51 L 592.75 263.51 L 596.97 263.81 L 600.94 264.61 L 604.70 265.93 L 608.26 267.72 L 611.50 269.90 L 614.45 272.50 L 617.05 275.45 L 619.23 278.69 L 621.03 282.25 L 622.34 286.02 L 623.14 289.98 L 623.44 294.20 L 623.44 337.16 L 623.14 341.37 L 622.34 345.34 L 621.03 349.10 L 619.23 352.66 L 617.05 355.90 L 614.45 358.85 L 611.50 361.45 L 608.26 363.64 L 604.70 365.43 L 600.94 366.74 L 596.97 367.55 L 592.75 367.84 L 592.75 367.84 L 588.54 367.55 L 584.57 366.74 L 580.81 365.43 L 577.25 363.64 L 574.01 361.45 L 571.06 358.85 L 568.46 355.90 L 566.27 352.66 L 564.48 349.10 L 563.17 345.34 L 562.36 341.37 L 562.07 337.16 L 562.07 294.20 L 562.36 289.98 L 563.17 286.02 L 564.48 282.25 L 566.27 278.69 L 568.46 275.45 L 571.06 272.50 L 574.01 269.90 L 577.25 267.72 L 580.81 265.93 L 584.57 264.61 L 588.54 263.81 L 592.75 263.51 Z" fill="#f5f8fe" fill-rule="nonzero" group-id="2,9" id="矩形_309" node-id="28" stroke="none" target-height="104.32999" target-width="61.369995" target-x="562.07" target-y="263.51"></path></g><g node-id="81"><path d="M 431.93 456.85 L 610.81 456.85 L 614.46 457.19 L 617.80 458.10 L 620.90 459.58 L 623.71 461.56 L 626.09 463.94 L 628.08 466.75 L 629.56 469.85 L 630.47 473.20 L 630.81 476.85 L 630.81 476.85 L 630.47 480.50 L 629.56 483.84 L 628.08 486.94 L 626.09 489.75 L 623.71 492.13 L 620.90 494.12 L 617.80 495.59 L 614.46 496.51 L 610.81 496.85 L 431.93 496.85 L 428.28 496.51 L 424.94 495.59 L 421.84 494.12 L 419.03 492.13 L 416.65 489.75 L 414.66 486.94 L 413.19 483.84 L 412.27 480.50 L 411.93 476.85 L 411.93 476.85 L 412.27 473.20 L 413.19 469.85 L 414.66 466.75 L 416.65 463.94 L 419.03 461.56 L 421.84 459.58 L 424.94 458.10 L 428.28 457.19 L 431.93 456.85 Z" fill="#ffffff" fill-rule="nonzero" group-id="2,10" id="矩形_316" node-id="29" stroke="none" target-height="40" target-width="218.88" target-x="411.93" target-y="456.85"></path></g><g node-id="82"><path d="M 431.93 537.49 L 521.93 537.49 L 525.58 537.83 L 528.93 538.74 L 532.03 540.22 L 534.84 542.21 L 537.22 544.59 L 539.20 547.39 L 540.68 550.49 L 541.59 553.84 L 541.93 557.49 L 541.93 557.49 L 541.59 561.14 L 540.68 564.48 L 539.20 567.58 L 537.22 570.39 L 534.84 572.77 L 532.03 574.76 L 528.93 576.24 L 525.58 577.15 L 521.93 577.49 L 431.93 577.49 L 428.28 577.15 L 424.94 576.24 L 421.84 574.76 L 419.03 572.77 L 416.65 570.39 L 414.66 567.58 L 413.19 564.48 L 412.27 561.14 L 411.93 557.49 L 411.93 557.49 L 412.27 553.84 L 413.19 550.49 L 414.66 547.39 L 416.65 544.59 L 419.03 542.21 L 421.84 540.22 L 424.94 538.74 L 428.28 537.83 L 431.93 537.49 Z" fill="#ffffff" fill-rule="nonzero" group-id="2,11" id="矩形_317" node-id="30" stroke="none" target-height="40" target-width="130" target-x="411.93" target-y="537.49"></path></g><g node-id="83"><path d="M 904.57 458.68 L 900.77 462.64 L 896.75 466.38 L 891.08 471.15 L 885.19 475.61 L 879.07 479.78 L 873.79 482.98 L 868.35 485.87 L 862.75 488.44 L 856.33 490.83 L 849.73 492.61 L 849.35 493.55 L 847.47 497.25 L 844.85 501.01 L 841.39 504.86 L 836.98 508.82 L 831.44 512.89 L 825.65 516.55 L 819.60 519.81 L 812.33 523.26 L 804.90 526.32 L 797.30 529.00 L 796.31 529.09 L 795.40 528.82 L 794.66 528.22 L 794.18 527.34 L 794.08 526.34 L 794.36 525.43 L 794.96 524.69 L 795.84 524.22 L 795.84 524.22 L 803.18 521.62 L 810.36 518.65 L 817.40 515.31 L 824.00 511.70 L 829.53 508.16 L 834.11 504.69 L 837.40 501.76 L 840.07 498.93 L 842.19 496.20 L 843.83 493.54 L 840.24 493.73 L 836.65 493.56 L 832.89 492.88 L 829.83 491.77 L 828.00 490.74 L 826.49 489.53 L 825.26 488.16 L 824.17 486.32 L 823.44 484.32 L 823.10 482.11 L 823.13 479.87 L 823.55 477.56 L 824.38 475.15 L 825.53 472.93 L 826.97 470.95 L 828.72 469.16 L 830.77 467.67 L 833.01 466.64 L 835.48 466.06 L 837.74 466.04 L 839.90 466.45 L 841.99 467.30 L 844.27 468.80 L 846.27 470.60 L 848.00 472.71 L 848.21 473.04 L 849.73 476.38 L 850.72 479.88 L 851.17 483.49 L 851.06 487.16 L 856.00 485.67 L 860.81 483.84 L 866.07 481.43 L 871.50 478.52 L 877.11 475.09 L 882.52 471.37 L 887.97 467.23 L 893.45 462.63 L 898.65 457.67 L 902.87 453.01 L 906.23 448.62 L 909.24 443.94 L 911.56 439.67 L 913.27 435.76 L 914.67 431.70 L 915.63 428.15 L 916.20 425.07 L 916.70 420.25 L 916.72 416.43 L 916.43 412.97 L 916.06 410.72 L 915.54 408.62 L 915.41 407.63 L 915.66 406.71 L 916.23 405.95 L 917.10 405.45 L 918.09 405.32 L 919.01 405.57 L 919.76 406.14 L 920.27 407.00 L 920.93 409.56 L 921.37 412.16 L 921.71 416.10 L 921.70 420.42 L 921.15 425.84 L 920.12 430.81 L 918.68 435.61 L 916.82 440.28 L 914.55 444.81 L 911.58 449.69 L 908.26 454.31 L 904.57 458.68 Z M 831.06 473.85 L 829.88 475.40 L 828.97 477.13 L 828.25 479.43 L 828.07 481.53 L 828.42 483.51 L 829.27 485.17 L 830.50 486.37 L 832.32 487.41 L 834.47 488.12 L 837.17 488.59 L 841.51 488.69 L 845.82 488.25 L 846.20 484.97 L 845.99 481.71 L 845.21 478.54 L 843.87 475.52 L 842.40 473.81 L 840.57 472.26 L 839.18 471.49 L 837.69 471.08 L 836.05 471.02 L 834.15 471.56 L 832.50 472.50 L 831.06 473.85 Z" fill="#e1e6ed" fill-rule="nonzero" group-id="2,12" id="路径_77" node-id="31" stroke="none" target-height="123.77002" target-width="127.630005" target-x="794.08" target-y="405.32"></path></g><g node-id="84"><path d="M 733.95 236.65 L 729.85 236.37 L 725.94 235.72 L 722.19 234.70 L 718.59 233.33 L 715.12 231.60 L 711.89 229.59 L 708.88 227.30 L 706.08 224.71 L 703.54 221.87 L 701.29 218.83 L 699.34 215.57 L 697.67 212.07 L 696.35 208.45 L 695.39 204.68 L 694.80 200.76 L 694.59 196.65 L 694.80 192.55 L 695.39 188.62 L 696.35 184.86 L 697.67 181.24 L 699.34 177.74 L 701.29 174.48 L 703.54 171.43 L 706.08 168.59 L 708.88 166.01 L 711.89 163.71 L 715.12 161.71 L 718.59 159.98 L 722.19 158.61 L 725.94 157.59 L 729.85 156.94 L 733.95 156.66 L 738.97 156.98 L 743.85 157.93 L 748.62 159.51 L 748.51 156.66 L 748.72 152.42 L 749.39 148.34 L 750.54 144.38 L 752.14 140.58 L 754.15 137.03 L 756.58 133.71 L 759.38 130.68 L 762.53 128.00 L 766.06 125.64 L 769.85 123.73 L 773.74 122.31 L 777.75 121.36 L 781.84 120.89 L 785.92 120.89 L 790.02 121.36 L 794.02 122.31 L 797.91 123.73 L 801.70 125.64 L 805.23 128.00 L 808.38 130.68 L 811.18 133.71 L 813.61 137.03 L 815.62 140.58 L 817.22 144.38 L 818.37 148.34 L 819.05 152.42 L 819.25 156.66 L 818.96 161.29 L 818.09 165.78 L 816.64 170.19 L 819.46 168.64 L 822.37 167.37 L 825.39 166.37 L 828.50 165.66 L 831.65 165.22 L 834.86 165.08 L 839.73 165.47 L 844.32 166.44 L 848.66 168.00 L 852.78 170.11 L 856.52 172.66 L 859.92 175.69 L 862.91 179.13 L 865.43 182.89 L 867.49 187.03 L 869.00 191.39 L 869.93 195.99 L 870.26 200.86 L 869.93 205.74 L 869.00 210.34 L 867.49 214.70 L 865.43 218.84 L 862.91 222.60 L 859.92 226.04 L 856.52 229.07 L 852.78 231.62 L 848.66 233.73 L 844.32 235.29 L 839.73 236.26 L 834.86 236.65 Z" fill="url(#linear-gradient-6)" fill-rule="nonzero" group-id="2,13" id="联合_67" node-id="32" stroke="none" target-height="115.759995" target-width="175.66998" target-x="694.59" target-y="120.89"></path></g><path d="M 180.53 276.15 L 176.85 275.89 L 173.39 275.17 L 170.11 274.00 L 167.01 272.41 L 164.18 270.47 L 161.61 268.15 L 159.34 265.53 L 157.44 262.65 L 155.87 259.48 L 154.73 256.14 L 154.02 252.61 L 153.77 248.86 L 154.02 245.11 L 154.73 241.58 L 155.87 238.23 L 157.44 235.06 L 159.34 232.18 L 161.61 229.56 L 164.18 227.25 L 167.01 225.30 L 170.11 223.71 L 173.39 222.54 L 176.85 221.83 L 180.53 221.57 L 183.93 221.78 L 187.23 222.43 L 190.46 223.51 L 190.38 221.57 L 190.50 218.68 L 190.95 215.90 L 191.72 213.21 L 192.79 210.63 L 194.15 208.21 L 195.79 205.94 L 197.68 203.88 L 199.82 202.05 L 202.22 200.44 L 204.79 199.14 L 207.43 198.17 L 210.16 197.52 L 212.94 197.20 L 215.71 197.20 L 218.49 197.52 L 221.22 198.17 L 223.86 199.14 L 226.43 200.44 L 228.83 202.05 L 230.96 203.88 L 232.86 205.94 L 234.50 208.21 L 235.86 210.63 L 236.93 213.21 L 237.70 215.90 L 238.15 218.68 L 238.27 221.57 L 238.07 224.72 L 237.48 227.79 L 236.50 230.80 L 239.38 229.29 L 242.42 228.20 L 245.58 227.53 L 248.83 227.31 L 252.13 227.61 L 255.24 228.29 L 258.17 229.37 L 260.95 230.82 L 263.48 232.57 L 265.78 234.64 L 267.80 236.97 L 269.50 239.54 L 270.89 242.34 L 271.91 245.30 L 272.53 248.42 L 272.76 251.73 L 272.53 255.04 L 271.91 258.16 L 270.89 261.12 L 269.50 263.92 L 267.80 266.49 L 265.78 268.82 L 263.48 270.89 L 260.95 272.64 L 258.17 274.09 L 255.24 275.17 L 252.13 275.85 L 248.83 276.15 Z" fill="url(#linear-gradient-6)" fill-rule="nonzero" group-id="2,14" id="联合_68" node-id="33" stroke="none" target-height="78.95" target-width="118.990005" target-x="153.77" target-y="197.2"></path></g></svg>