<?xml version="1.0" standalone="no"?><!DOCTYPE svg PUBLIC "-//W3C//DTD SVG 1.1//EN" "http://www.w3.org/Graphics/SVG/1.1/DTD/svg11.dtd"><svg height="1024" node-id="1" sillyvg="true" template-height="1024" template-width="1024" version="1.1" viewBox="0 0 1024 1024" width="1024" xmlns="http://www.w3.org/2000/svg" xmlns:xlink="http://www.w3.org/1999/xlink"><defs node-id="44"><linearGradient gradientUnits="objectBoundingBox" id="linear-gradient" node-id="5" spreadMethod="pad" x1="0.5000512" x2="0.5000512" y1="0.18401884" y2="1.0001024"><stop offset="0" stop-color="#eaeef2"></stop><stop offset="1" stop-color="#e1e6ed"></stop></linearGradient><linearGradient gradientUnits="objectBoundingBox" id="linear-gradient-2" node-id="8" spreadMethod="pad" x1="0.5" x2="0.506" y1="0" y2="0.766"><stop offset="0" stop-color="#f8f8f8" stop-opacity="0.71"></stop><stop offset="1" stop-color="#e2e7f2" stop-opacity="0"></stop></linearGradient><linearGradient gradientUnits="objectBoundingBox" id="linear-gradient-3" node-id="11" spreadMethod="pad" x1="0.5" x2="0.5" y1="0" y2="0.522"><stop offset="0" stop-color="#f8f8f8"></stop><stop offset="1" stop-color="#f8f8f8" stop-opacity="0"></stop></linearGradient><linearGradient gradientUnits="objectBoundingBox" id="linear-gradient-4" node-id="14" spreadMethod="pad" x1="0.765" x2="0.338" y1="-0.019" y2="1.006"><stop offset="0" stop-color="#f8f8f8"></stop><stop offset="1" stop-color="#e2e7f2" stop-opacity="0"></stop></linearGradient><linearGradient gradientUnits="objectBoundingBox" id="linear-gradient-5" node-id="17" spreadMethod="pad" x1="0.7653618" x2="0.65030736" y1="-0.019008985" y2="0.8153854"><stop offset="0" stop-color="#f8f8f8"></stop><stop offset="1" stop-color="#e2e7f2" stop-opacity="0"></stop></linearGradient><linearGradient gradientUnits="objectBoundingBox" id="linear-gradient-6" node-id="18" spreadMethod="pad" x1="0.5" x2="0.5" y1="0" y2="1"><stop offset="0" stop-color="#f8f8f8"></stop><stop offset="1" stop-color="#e2e7f2" stop-opacity="0"></stop></linearGradient><linearGradient gradientUnits="objectBoundingBox" id="linear-gradient-8" node-id="19" spreadMethod="pad" x1="0.5" x2="0.5" y1="0" y2="1"><stop offset="0" stop-color="#f8f8f8"></stop><stop offset="1" stop-color="#e2e7f2"></stop></linearGradient><linearGradient gradientUnits="objectBoundingBox" id="linear-gradient-10" node-id="22" spreadMethod="pad" x1="0.5" x2="0.5" y1="0" y2="1"><stop offset="0" stop-color="#eaeef2"></stop><stop offset="1" stop-color="#e1e6ed"></stop></linearGradient><linearGradient gradientUnits="objectBoundingBox" id="linear-gradient-12" node-id="23" spreadMethod="pad" x1="0.492" x2="0.492" y1="0.313" y2="1"><stop offset="0" stop-color="#eaeef2"></stop><stop offset="1" stop-color="#e1e6ed"></stop></linearGradient></defs><g node-id="99"><path d="M 0.00 0.00 L 1024.00 0.00 L 1024.00 1024.00 L 0.00 1024.00 Z" fill="#ffffff" fill-opacity="0" fill-rule="nonzero" group-id="1" id="矩形_354" node-id="25" stroke="none" target-height="1024" target-width="1024" target-x="0" target-y="0"></path></g><g node-id="100"><path d="M 229.45 706.32 L 228.45 705.40 L 227.73 704.22 L 227.26 702.72 L 226.98 700.24 L 227.07 697.32 L 227.81 691.29 L 228.42 685.78 L 228.31 683.46 L 227.81 681.96 L 227.10 681.24 L 226.17 680.82 L 224.91 680.70 L 222.89 680.88 L 220.58 681.31 L 216.75 681.92 L 215.08 681.82 L 213.89 681.28 L 213.35 680.66 L 213.01 679.67 L 212.93 678.14 L 213.27 676.83 L 214.04 675.54 L 215.36 674.23 L 217.79 672.58 L 221.01 670.99 L 224.50 669.64 L 228.24 668.43 L 235.43 666.58 L 240.94 665.46 L 243.14 665.08 L 245.14 664.96 L 250.00 665.09 L 252.94 665.47 L 256.01 666.19 L 258.93 667.34 L 261.47 668.97 L 263.50 671.17 L 265.03 673.76 L 266.15 676.56 L 266.88 679.26 L 267.58 683.80 L 267.69 685.69 L 267.70 687.92 L 267.55 693.54 L 266.97 700.94 L 266.43 704.83 L 265.70 708.51 L 264.69 711.96 L 263.49 714.63 L 262.43 716.16 L 261.30 717.15 L 260.06 717.71 L 258.54 717.90 L 257.51 717.73 L 256.81 717.31 L 256.06 716.22 L 255.68 714.60 L 255.61 710.72 L 255.64 708.37 L 255.47 706.35 L 255.13 705.14 L 254.55 704.28 L 253.72 703.71 L 252.20 703.48 L 249.97 703.75 L 244.82 705.23 L 239.15 706.99 L 236.33 707.62 L 233.86 707.86 L 232.27 707.75 L 230.94 707.35 L 229.83 706.67 L 229.45 706.32 Z" fill="url(#linear-gradient)" fill-rule="nonzero" group-id="2" id="路径_8752" node-id="26" stroke="none" target-height="52.940002" target-width="54.77002" target-x="212.93" target-y="664.96"></path></g><g node-id="101"><g node-id="102"><path d="M 92.78 831.08 L 91.77 826.56 L 89.18 814.17 L 85.65 795.67 L 81.84 772.83 L 80.04 760.43 L 78.39 747.40 L 77.01 734.26 L 75.96 721.15 L 75.32 708.14 L 75.18 695.83 L 75.41 687.69 L 75.93 680.16 L 76.71 673.21 L 77.90 666.31 L 79.41 660.29 L 81.21 655.06 L 82.95 651.24 L 84.89 648.02 L 87.01 645.33 L 89.31 643.12 L 92.63 640.71 L 95.82 638.86 L 98.90 637.51 L 101.90 636.63 L 106.07 635.99 L 110.13 635.98 L 114.11 636.59 L 118.01 637.72 L 121.81 639.29 L 125.54 641.30 L 130.83 644.88 L 135.79 649.01 L 140.39 653.51 L 144.46 658.02 L 148.17 662.58 L 151.14 666.59 L 155.45 672.99 L 156.97 675.51 L 155.83 671.42 L 152.93 660.26 L 149.11 643.70 L 147.13 634.08 L 145.16 623.39 L 143.40 612.41 L 141.90 600.99 L 140.79 589.49 L 140.15 578.17 L 140.04 570.63 L 140.24 563.44 L 140.72 556.59 L 141.59 549.77 L 142.84 543.56 L 144.43 537.90 L 145.99 533.74 L 147.79 530.03 L 149.82 526.72 L 152.08 523.78 L 154.69 521.15 L 157.61 518.97 L 160.86 517.21 L 164.49 515.88 L 168.29 515.13 L 171.95 514.93 L 175.53 515.28 L 179.06 516.16 L 182.45 517.49 L 185.81 519.26 L 189.18 521.49 L 192.56 524.23 L 196.69 528.24 L 200.79 532.89 L 204.88 538.26 L 208.64 543.86 L 212.32 549.90 L 215.91 556.40 L 220.89 566.40 L 225.54 576.81 L 229.83 587.35 L 233.67 597.64 L 237.19 607.80 L 240.18 617.05 L 244.97 633.19 L 247.92 644.23 L 248.93 648.32 L 248.47 644.24 L 247.66 633.39 L 247.39 626.32 L 247.36 617.90 L 247.66 609.17 L 248.43 599.87 L 249.24 593.64 L 250.35 587.49 L 251.75 581.41 L 253.52 575.45 L 255.66 569.87 L 258.17 564.64 L 260.38 560.90 L 262.85 557.50 L 265.57 554.43 L 268.56 551.67 L 271.81 549.28 L 275.41 547.31 L 279.38 545.75 L 283.77 544.60 L 287.31 544.29 L 290.86 544.61 L 294.47 545.58 L 298.20 547.26 L 301.63 549.35 L 305.17 551.99 L 308.81 555.24 L 312.57 559.16 L 317.15 564.61 L 321.81 570.89 L 326.56 578.07 L 330.99 585.42 L 335.41 593.30 L 339.80 601.74 L 346.01 614.62 L 351.95 627.93 L 357.55 641.36 L 362.67 654.40 L 367.46 667.24 L 371.62 678.89 L 378.43 699.16 L 382.77 712.97 L 384.30 718.07 Z" fill="url(#linear-gradient-2)" fill-rule="nonzero" group-id="3,4" id="路径_63" node-id="28" stroke="none" target-height="316.15002" target-width="309.12" target-x="75.18" target-y="514.93"></path></g><g node-id="103"><path d="M 1002.00 809.00 L 1001.74 813.35 L 1000.98 817.68 L 999.71 822.04 L 997.90 826.44 L 995.51 830.91 L 992.50 835.46 L 988.64 840.30 L 984.02 845.24 L 978.54 850.27 L 972.14 855.41 L 964.70 860.66 L 957.48 865.22 L 949.43 869.83 L 940.49 874.48 L 930.60 879.17 L 919.67 883.90 L 906.44 889.10 L 891.90 894.27 L 875.94 899.39 L 858.48 904.46 L 840.02 909.29 L 820.43 913.90 L 799.64 918.29 L 778.80 922.23 L 757.01 925.91 L 734.25 929.31 L 711.46 932.31 L 687.93 935.00 L 663.64 937.37 L 639.33 939.36 L 614.49 941.01 L 589.12 942.32 L 563.73 943.25 L 538.03 943.81 L 512.00 944.00 L 485.97 943.81 L 460.27 943.25 L 434.88 942.32 L 409.51 941.01 L 384.67 939.36 L 360.36 937.37 L 336.07 935.00 L 312.54 932.31 L 289.75 929.31 L 266.99 925.91 L 245.20 922.23 L 224.36 918.29 L 203.57 913.90 L 183.98 909.29 L 165.52 904.46 L 148.06 899.39 L 132.10 894.27 L 117.56 889.10 L 104.33 883.90 L 93.40 879.17 L 83.51 874.48 L 74.57 869.83 L 66.52 865.22 L 59.30 860.66 L 51.86 855.41 L 45.46 850.27 L 39.98 845.24 L 35.36 840.30 L 31.50 835.46 L 28.49 830.91 L 26.10 826.44 L 24.29 822.04 L 23.02 817.68 L 22.26 813.35 L 22.00 809.00 L 22.26 804.65 L 23.02 800.32 L 24.29 795.96 L 26.10 791.56 L 28.49 787.09 L 31.50 782.54 L 35.36 777.70 L 39.98 772.76 L 45.46 767.73 L 51.86 762.59 L 59.30 757.34 L 66.52 752.78 L 74.57 748.17 L 83.51 743.52 L 93.40 738.83 L 104.33 734.10 L 117.56 728.90 L 132.10 723.73 L 148.06 718.61 L 165.52 713.54 L 183.98 708.71 L 203.57 704.10 L 224.36 699.71 L 245.20 695.77 L 266.99 692.09 L 289.75 688.69 L 312.54 685.69 L 336.07 683.00 L 360.36 680.63 L 384.67 678.64 L 409.51 676.99 L 434.88 675.68 L 460.27 674.75 L 485.97 674.19 L 512.00 674.00 L 538.03 674.19 L 563.73 674.75 L 589.12 675.68 L 614.49 676.99 L 639.33 678.64 L 663.64 680.63 L 687.93 683.00 L 711.46 685.69 L 734.25 688.69 L 757.01 692.09 L 778.80 695.77 L 799.64 699.71 L 820.43 704.10 L 840.02 708.71 L 858.48 713.54 L 875.94 718.61 L 891.90 723.73 L 906.44 728.90 L 919.67 734.10 L 930.60 738.83 L 940.49 743.52 L 949.43 748.17 L 957.48 752.78 L 964.70 757.34 L 972.14 762.59 L 978.54 767.73 L 984.02 772.76 L 988.64 777.70 L 992.50 782.54 L 995.51 787.09 L 997.90 791.56 L 999.71 795.96 L 1000.98 800.32 L 1001.74 804.65 L 1002.00 809.00 Z" fill="url(#linear-gradient-3)" fill-rule="nonzero" group-id="3,5" id="椭圆_16" node-id="29" stroke="none" target-height="270" target-width="980" target-x="22" target-y="674"></path></g><g node-id="104"><path d="M 806.95 671.92 L 811.97 668.96 L 815.86 666.17 L 818.82 663.53 L 821.47 660.58 L 823.47 657.81 L 824.89 655.18 L 826.50 651.07 L 827.45 647.31 L 828.74 640.39 L 829.28 638.32 L 830.05 636.49 L 831.04 634.85 L 832.32 633.46 L 834.13 632.22 L 836.61 631.15 L 842.45 629.19 L 847.51 627.33 L 852.22 625.26 L 856.14 623.04 L 858.51 621.31 L 860.56 619.38 L 862.31 617.23 L 863.75 614.86 L 864.92 612.09 L 865.81 608.85 L 867.19 614.20 L 868.82 619.06 L 872.25 628.30 L 873.64 632.86 L 874.55 637.51 L 874.81 640.66 L 874.70 644.02 L 874.19 647.62 L 873.28 651.15 L 871.78 655.11 L 869.61 659.57 L 867.82 663.30 L 866.42 667.00 L 865.41 670.69 L 864.36 676.31 L 863.75 681.88 L 863.07 692.86 L 862.61 698.21 L 861.80 703.34 L 860.98 706.67 L 859.83 709.89 L 858.36 713.02 L 856.52 715.95 L 854.15 718.81 L 851.17 721.62 L 847.83 724.06 L 844.28 726.08 L 840.50 727.70 L 836.58 728.98 L 832.61 729.95 L 828.58 730.62 L 822.53 731.18 L 816.82 731.29 L 811.31 731.06 L 806.67 730.64 L 799.53 729.57 L 796.84 729.01 L 795.77 726.72 L 793.41 720.58 L 792.18 716.55 L 791.04 711.74 L 790.26 706.71 L 789.93 701.32 L 790.06 697.70 L 790.53 694.09 L 791.37 690.46 L 792.60 686.97 L 794.34 683.58 L 796.61 680.28 L 799.31 677.33 L 802.72 674.54 L 806.95 671.92 Z" fill="url(#linear-gradient-4)" fill-rule="nonzero" group-id="3,6" id="路径_61" node-id="30" stroke="none" target-height="122.44" target-width="84.880005" target-x="789.93" target-y="608.85"></path></g><g node-id="105"><path d="M 880.93 706.29 L 884.91 705.97 L 888.14 705.42 L 890.75 704.69 L 893.27 703.67 L 895.33 702.56 L 897.00 701.38 L 899.22 699.33 L 900.93 697.30 L 903.81 693.43 L 905.26 691.84 L 906.88 690.71 L 908.09 690.24 L 909.57 690.02 L 911.42 690.10 L 916.96 690.80 L 921.60 691.15 L 924.59 691.11 L 927.27 690.74 L 929.68 690.06 L 931.91 688.98 L 934.04 687.37 L 936.09 685.15 L 935.19 689.77 L 934.70 694.05 L 934.30 698.26 L 933.69 702.27 L 933.05 704.85 L 932.05 707.43 L 930.66 710.01 L 928.93 712.37 L 926.49 714.86 L 923.20 717.50 L 920.56 719.63 L 918.27 721.90 L 916.30 724.31 L 913.68 728.17 L 911.38 732.11 L 909.17 736.05 L 906.90 739.76 L 905.25 742.10 L 903.41 744.23 L 901.36 746.15 L 899.09 747.77 L 896.40 749.11 L 893.22 750.15 L 889.87 750.70 L 886.52 750.81 L 883.15 750.48 L 878.19 749.39 L 873.51 747.76 L 869.09 745.74 L 865.34 743.69 L 859.68 740.00 L 857.57 738.38 L 857.63 736.06 L 857.81 733.66 L 858.28 730.25 L 859.02 726.65 L 860.22 722.65 L 861.90 718.74 L 864.18 714.98 L 866.04 712.71 L 868.25 710.71 L 870.84 708.96 L 873.67 707.64 L 877.00 706.74 L 880.93 706.29 Z" fill="url(#linear-gradient-5)" fill-rule="nonzero" group-id="3,7" id="路径_62" node-id="31" stroke="none" target-height="65.65997" target-width="78.52002" target-x="857.57" target-y="685.15"></path></g><g node-id="106"><path d="M 764.87 247.43 L 760.33 247.17 L 756.00 246.49 L 751.85 245.41 L 747.86 243.92 L 744.01 242.05 L 740.43 239.86 L 737.09 237.35 L 733.98 234.51 L 731.16 231.38 L 728.66 228.03 L 726.49 224.44 L 724.63 220.59 L 723.17 216.59 L 722.10 212.43 L 721.45 208.10 L 721.21 203.56 L 721.45 199.02 L 722.10 194.68 L 723.17 190.53 L 724.63 186.53 L 726.49 182.68 L 728.66 179.08 L 731.16 175.73 L 733.98 172.61 L 737.09 169.77 L 740.43 167.26 L 744.01 165.07 L 747.86 163.19 L 751.85 161.71 L 756.00 160.63 L 760.33 159.95 L 764.87 159.69 L 769.04 159.88 L 773.12 160.47 L 777.12 161.44 L 781.06 162.81 L 780.94 159.69 L 781.16 155.74 L 781.74 151.94 L 782.68 148.27 L 783.98 144.71 L 785.62 141.28 L 787.55 138.07 L 789.78 135.06 L 792.33 132.24 L 795.13 129.69 L 798.17 127.42 L 801.47 125.44 L 805.03 123.74 L 808.76 122.42 L 812.49 121.49 L 816.24 120.94 L 820.02 120.77 L 823.82 120.96 L 827.53 121.51 L 831.17 122.41 L 834.75 123.68 L 838.19 125.28 L 841.45 127.21 L 844.54 129.48 L 847.49 132.12 L 850.14 135.05 L 852.43 138.13 L 854.39 141.38 L 856.01 144.81 L 857.29 148.38 L 858.21 152.02 L 858.78 155.72 L 859.00 159.52 L 858.85 163.30 L 858.32 167.06 L 857.41 170.79 L 856.12 174.52 L 859.23 172.83 L 862.44 171.44 L 865.78 170.34 L 869.20 169.55 L 872.68 169.08 L 876.22 168.92 L 880.28 169.16 L 884.15 169.77 L 887.86 170.73 L 891.43 172.06 L 895.97 174.36 L 900.09 177.17 L 903.84 180.49 L 907.15 184.26 L 909.93 188.40 L 912.21 192.95 L 913.52 196.52 L 914.47 200.24 L 915.06 204.12 L 915.27 208.18 L 915.06 212.24 L 914.47 216.12 L 913.52 219.83 L 912.21 223.41 L 909.93 227.95 L 907.15 232.10 L 903.84 235.86 L 900.09 239.19 L 895.97 241.99 L 891.43 244.29 L 887.86 245.62 L 884.15 246.59 L 880.28 247.20 L 876.22 247.43 Z" fill="url(#linear-gradient-6)" fill-rule="nonzero" group-id="3,8" id="联合_38" node-id="32" stroke="none" target-height="126.659996" target-width="194.06" target-x="721.21" target-y="120.77"></path></g><g node-id="107"><path d="M 146.09 301.80 L 142.20 301.56 L 138.48 300.96 L 134.93 300.02 L 131.51 298.74 L 127.16 296.52 L 123.21 293.82 L 119.62 290.63 L 116.46 287.01 L 113.79 283.03 L 111.62 278.67 L 110.36 275.24 L 109.45 271.67 L 108.89 267.95 L 108.68 264.06 L 108.89 260.16 L 109.45 256.44 L 110.36 252.88 L 111.62 249.45 L 113.79 245.08 L 116.46 241.11 L 119.62 237.49 L 123.21 234.29 L 127.16 231.60 L 131.51 229.38 L 134.93 228.09 L 138.48 227.15 L 142.20 226.56 L 146.09 226.32 L 150.83 226.62 L 155.44 227.51 L 159.95 229.00 L 159.85 226.32 L 160.05 222.32 L 160.70 218.47 L 161.79 214.74 L 163.30 211.16 L 165.20 207.81 L 167.50 204.67 L 170.14 201.82 L 173.12 199.30 L 176.45 197.08 L 180.03 195.27 L 183.69 193.93 L 187.48 193.04 L 191.34 192.59 L 195.19 192.59 L 199.05 193.04 L 202.83 193.93 L 206.50 195.27 L 210.07 197.08 L 213.40 199.30 L 216.38 201.82 L 219.02 204.67 L 221.32 207.81 L 223.22 211.16 L 224.74 214.74 L 225.83 218.47 L 226.47 222.32 L 226.67 226.32 L 226.39 230.68 L 225.57 234.93 L 224.20 239.08 L 228.23 236.99 L 232.47 235.48 L 236.89 234.57 L 241.41 234.26 L 246.02 234.62 L 250.35 235.54 L 254.45 237.01 L 258.34 238.99 L 261.87 241.41 L 265.08 244.26 L 267.91 247.50 L 270.29 251.06 L 272.24 254.96 L 273.67 259.08 L 274.55 263.42 L 274.86 268.03 L 274.55 272.64 L 273.67 276.98 L 272.24 281.10 L 270.29 285.00 L 267.91 288.56 L 265.08 291.80 L 261.87 294.66 L 258.34 297.07 L 254.45 299.06 L 250.35 300.52 L 246.02 301.44 L 241.41 301.80 Z" fill="url(#linear-gradient-6)" fill-rule="nonzero" group-id="3,9" id="联合_39" node-id="33" stroke="none" target-height="109.20999" target-width="166.18" target-x="108.68" target-y="192.59"></path></g><g node-id="108"><g node-id="110"><path d="M 423.29 413.63 L 419.64 413.52 L 415.76 413.63 L 409.97 414.13 L 403.71 415.10 L 396.20 416.87 L 391.16 418.45 L 385.85 420.52 L 380.25 423.15 L 374.89 426.19 L 369.50 429.92 L 364.06 434.38 L 360.29 438.00 L 356.61 442.11 L 353.03 446.76 L 349.53 451.97 L 346.49 457.28 L 343.64 463.24 L 341.00 469.90 L 338.59 477.33 L 336.72 484.66 L 335.16 492.80 L 333.97 501.85 L 333.17 511.88 L 332.89 521.57 L 333.10 532.26 L 333.85 544.05 L 335.19 557.01 L 338.55 552.12 L 342.03 547.78 L 345.61 543.95 L 349.30 540.60 L 354.63 536.53 L 360.02 533.15 L 365.47 530.42 L 371.14 528.15 L 376.70 526.39 L 382.17 525.11 L 387.71 524.19 L 392.93 523.60 L 397.84 523.34 L 405.03 523.36 L 410.95 523.74 L 416.36 524.38 L 419.95 524.98 L 423.29 525.69 Z" fill="url(#linear-gradient-8)" fill-rule="nonzero" group-id="3,10,12" id="路径_8751" node-id="35" stroke="none" target-height="143.49002" target-width="90.399994" target-x="332.89" target-y="413.52"></path></g><g node-id="111"><path d="M 630.28 413.63 L 633.93 413.52 L 637.81 413.63 L 643.60 414.13 L 649.86 415.10 L 657.37 416.87 L 662.41 418.44 L 667.72 420.52 L 673.32 423.15 L 678.68 426.19 L 684.07 429.91 L 689.52 434.38 L 693.28 438.00 L 696.96 442.11 L 700.54 446.75 L 704.04 451.97 L 707.08 457.28 L 709.93 463.24 L 712.57 469.90 L 714.98 477.33 L 716.86 484.65 L 718.41 492.80 L 719.60 501.85 L 720.40 511.87 L 720.68 521.56 L 720.47 532.26 L 719.72 544.04 L 718.38 557.00 L 715.02 552.12 L 711.54 547.78 L 707.96 543.95 L 704.27 540.59 L 698.94 536.52 L 693.55 533.14 L 688.10 530.41 L 682.43 528.15 L 676.87 526.39 L 671.41 525.11 L 665.86 524.18 L 660.64 523.60 L 655.73 523.34 L 648.54 523.36 L 642.62 523.74 L 637.21 524.38 L 633.62 524.97 L 630.28 525.68 Z" fill="url(#linear-gradient-8)" fill-rule="nonzero" group-id="3,10,13" id="路径_8747" node-id="36" stroke="none" target-height="143.48001" target-width="90.39996" target-x="630.28" target-y="413.52"></path></g><g node-id="112"><path d="M 623.83 598.42 L 429.75 598.42 L 427.31 594.31 L 422.50 585.42 L 418.01 576.04 L 413.87 566.15 L 410.19 556.08 L 406.87 545.54 L 403.92 534.53 L 401.27 522.42 L 399.12 510.25 L 397.45 497.99 L 396.27 485.68 L 395.59 473.34 L 395.40 460.95 L 395.69 452.02 L 396.40 443.17 L 397.52 434.37 L 399.07 425.62 L 401.05 416.91 L 404.09 405.78 L 407.59 394.82 L 411.53 384.01 L 415.94 373.35 L 421.64 360.85 L 428.14 347.93 L 435.47 334.58 L 443.23 321.50 L 451.78 308.08 L 461.13 294.31 L 471.84 279.55 L 482.94 265.10 L 494.43 250.96 L 506.32 237.13 L 517.04 225.32 L 524.21 217.80 L 526.86 215.12 L 526.90 215.14 L 530.05 218.37 L 537.18 225.90 L 547.41 237.23 L 559.29 251.10 L 570.79 265.28 L 581.89 279.76 L 592.60 294.56 L 601.96 308.35 L 610.50 321.79 L 618.26 334.87 L 625.59 348.23 L 632.09 361.14 L 637.79 373.63 L 642.20 384.27 L 646.14 395.06 L 649.64 406.00 L 652.68 417.10 L 654.66 425.77 L 656.21 434.48 L 657.33 443.24 L 658.04 452.06 L 658.33 460.95 L 658.13 473.76 L 657.39 486.53 L 656.11 499.26 L 654.31 511.93 L 651.98 524.50 L 649.12 536.99 L 645.92 548.37 L 642.33 559.22 L 638.35 569.58 L 633.87 579.73 L 629.03 589.34 L 623.83 598.42 Z" fill="url(#linear-gradient-10)" fill-rule="nonzero" group-id="3,10,14" id="减去_9" node-id="37" stroke="none" target-height="383.3" target-width="262.93002" target-x="395.4" target-y="215.12"></path></g><g node-id="113"><path d="M 430.84 342.88 L 437.90 330.42 L 445.30 318.17 L 453.04 306.13 L 461.14 294.31 L 471.84 279.55 L 482.94 265.10 L 494.43 250.96 L 506.33 237.13 L 517.04 225.32 L 524.21 217.80 L 526.87 215.12 L 526.90 215.14 L 530.06 218.37 L 537.18 225.90 L 547.41 237.23 L 559.30 251.10 L 570.79 265.28 L 581.89 279.76 L 592.60 294.56 L 600.64 306.33 L 608.34 318.30 L 615.70 330.49 L 622.73 342.88 Z" fill="#d7dbe1" fill-rule="nonzero" group-id="3,10,15" id="交叉_4" node-id="38" stroke="none" target-height="127.76001" target-width="191.88998" target-x="430.84" target-y="215.12"></path></g><g node-id="114"><path d="M 527.21 768.77 L 524.84 768.85 L 522.52 768.51 L 520.21 767.76 L 517.90 766.57 L 515.05 764.55 L 512.17 761.96 L 509.24 758.73 L 505.20 753.43 L 501.16 747.29 L 497.31 740.87 L 493.55 734.30 L 486.35 721.79 L 482.75 716.19 L 479.45 711.81 L 477.04 709.22 L 474.83 707.47 L 472.78 706.38 L 471.11 706.00 L 469.49 706.00 L 467.87 706.38 L 466.22 707.17 L 464.18 708.59 L 462.07 710.48 L 459.87 712.90 L 456.78 716.80 L 453.63 721.11 L 450.54 725.34 L 447.51 729.19 L 445.35 731.59 L 443.29 733.48 L 441.29 734.92 L 439.14 735.93 L 437.03 736.26 L 434.89 735.95 L 433.44 735.33 L 431.86 734.20 L 430.13 732.46 L 428.21 729.93 L 426.50 726.74 L 425.18 722.95 L 424.27 718.48 L 423.82 713.91 L 423.69 708.90 L 423.93 703.38 L 424.79 695.07 L 426.22 686.24 L 428.07 677.40 L 430.22 668.65 L 432.60 660.07 L 434.98 652.20 L 439.54 638.47 L 442.98 629.07 L 444.33 625.58 L 610.10 625.58 L 611.45 629.07 L 614.88 638.47 L 619.45 652.20 L 621.83 660.07 L 624.20 668.65 L 626.35 677.40 L 628.20 686.24 L 629.63 695.07 L 630.50 703.38 L 630.73 708.89 L 630.60 713.91 L 630.15 718.47 L 629.25 722.95 L 627.92 726.73 L 626.22 729.93 L 624.30 732.45 L 622.57 734.20 L 620.99 735.32 L 619.53 735.95 L 617.39 736.26 L 615.28 735.93 L 613.13 734.92 L 611.14 733.47 L 609.07 731.59 L 606.92 729.18 L 603.88 725.34 L 600.79 721.10 L 597.64 716.79 L 594.55 712.90 L 592.35 710.47 L 590.24 708.58 L 588.21 707.16 L 586.55 706.38 L 584.93 706.00 L 583.31 706.00 L 581.65 706.38 L 579.64 707.44 L 577.48 709.13 L 575.14 711.61 L 571.92 715.83 L 568.42 721.23 L 561.42 733.34 L 554.04 746.05 L 550.12 752.13 L 546.21 757.48 L 543.38 760.79 L 540.60 763.52 L 537.84 765.72 L 535.59 767.11 L 533.36 768.08 L 531.13 768.67 L 528.87 768.89 L 527.21 768.77 Z" fill="url(#linear-gradient)" fill-rule="nonzero" group-id="3,10,16" id="联合_45" node-id="39" stroke="none" target-height="143.31" target-width="207.03998" target-x="423.69" target-y="625.58"></path></g><g node-id="115"><path d="M 527.22 490.12 L 522.81 489.92 L 518.56 489.35 L 514.44 488.44 L 510.43 487.17 L 505.29 484.96 L 500.50 482.23 L 496.02 478.97 L 491.94 475.23 L 488.32 471.07 L 485.14 466.47 L 483.10 462.79 L 481.39 458.94 L 480.00 454.88 L 478.92 450.60 L 478.25 446.24 L 477.95 441.96 L 478.03 437.74 L 478.47 433.56 L 479.61 428.08 L 481.33 422.84 L 483.63 417.81 L 486.48 413.06 L 489.84 408.68 L 493.72 404.65 L 496.91 401.92 L 500.35 399.48 L 504.05 397.30 L 508.03 395.40 L 512.84 393.68 L 517.63 392.49 L 522.40 391.79 L 527.18 391.58 L 531.98 391.84 L 536.65 392.54 L 541.21 393.68 L 545.67 395.26 L 549.96 397.25 L 554.01 399.63 L 557.84 402.40 L 561.45 405.58 L 564.71 409.08 L 567.63 412.92 L 570.21 417.12 L 572.45 421.72 L 574.18 426.52 L 575.40 431.30 L 576.12 436.07 L 576.34 440.85 L 576.11 445.66 L 575.43 450.33 L 574.31 454.89 L 572.75 459.36 L 570.77 463.66 L 568.41 467.72 L 565.66 471.55 L 562.49 475.18 L 559.01 478.46 L 555.19 481.40 L 551.00 483.99 L 546.41 486.25 L 541.75 487.95 L 537.01 489.15 L 532.17 489.88 L 527.22 490.12 Z M 527.22 417.38 L 524.00 417.61 L 520.97 418.22 L 518.10 419.23 L 515.37 420.59 L 512.90 422.26 L 510.65 424.25 L 508.66 426.50 L 506.99 428.98 L 505.62 431.70 L 504.62 434.57 L 504.00 437.60 L 503.78 440.82 L 504.00 444.04 L 504.62 447.07 L 505.62 449.94 L 506.99 452.66 L 508.66 455.14 L 510.65 457.39 L 512.90 459.38 L 515.38 461.05 L 518.10 462.42 L 520.97 463.42 L 524.00 464.04 L 527.22 464.26 L 530.44 464.04 L 533.47 463.42 L 536.34 462.42 L 539.06 461.05 L 541.54 459.38 L 543.79 457.39 L 545.78 455.14 L 547.45 452.67 L 548.82 449.94 L 549.82 447.07 L 550.43 444.04 L 550.66 440.82 L 550.43 437.60 L 549.81 434.57 L 548.81 431.70 L 547.44 428.98 L 545.77 426.51 L 543.78 424.26 L 541.53 422.27 L 539.06 420.60 L 536.34 419.23 L 533.47 418.23 L 530.44 417.61 L 527.22 417.38 Z" fill="#ffffff" fill-rule="nonzero" group-id="3,10,17" id="减去_12" node-id="40" stroke="none" target-height="98.54001" target-width="98.390015" target-x="477.95" target-y="391.58"></path></g><path d="M 444.84 580.90 L 609.60 580.90 L 612.71 581.19 L 615.55 581.96 L 618.18 583.22 L 620.57 584.91 L 622.59 586.93 L 624.28 589.32 L 625.54 591.95 L 626.32 594.80 L 626.60 597.90 L 626.60 618.68 L 626.32 621.78 L 625.54 624.63 L 624.28 627.26 L 622.59 629.64 L 620.57 631.67 L 618.18 633.36 L 615.55 634.62 L 612.71 635.39 L 609.60 635.68 L 444.84 635.68 L 441.73 635.39 L 438.89 634.62 L 436.26 633.36 L 433.87 631.67 L 431.85 629.64 L 430.16 627.26 L 428.90 624.63 L 428.12 621.78 L 427.84 618.68 L 427.84 597.90 L 428.12 594.80 L 428.90 591.95 L 430.16 589.32 L 431.85 586.93 L 433.87 584.91 L 436.26 583.22 L 438.89 581.96 L 441.73 581.19 L 444.84 580.90 Z" fill="url(#linear-gradient-12)" fill-rule="nonzero" group-id="3,10,18" id="矩形_351" node-id="41" stroke="none" target-height="54.77997" target-width="198.75998" target-x="427.84" target-y="580.9"></path></g><path d="M 867.20 500.48 L 865.45 500.68 L 863.65 500.39 L 861.77 499.56 L 859.09 497.71 L 856.28 495.11 L 850.96 489.20 L 848.36 486.27 L 846.04 483.88 L 844.39 482.49 L 842.98 481.63 L 841.74 481.20 L 840.40 481.28 L 839.15 481.91 L 838.05 482.95 L 836.94 484.40 L 834.90 487.79 L 833.56 490.11 L 832.22 492.09 L 831.20 493.24 L 830.17 493.97 L 829.12 494.37 L 828.05 494.38 L 826.78 493.86 L 825.21 492.62 L 824.20 491.16 L 823.59 489.29 L 823.44 486.87 L 823.89 483.06 L 825.08 478.51 L 826.74 473.90 L 828.76 469.17 L 830.97 464.57 L 833.10 460.48 L 836.71 454.08 L 838.23 451.58 L 839.83 449.51 L 841.58 447.47 L 844.13 444.82 L 847.02 442.24 L 850.37 439.82 L 852.78 438.46 L 855.25 437.47 L 857.80 436.82 L 860.41 436.65 L 863.00 436.85 L 865.59 437.41 L 869.31 438.71 L 872.61 440.31 L 875.60 442.08 L 877.69 443.51 L 879.65 445.02 L 881.86 446.93 L 887.28 451.90 L 890.56 455.13 L 894.09 458.82 L 897.47 462.69 L 900.47 466.56 L 903.01 470.52 L 904.62 474.01 L 905.22 476.36 L 905.22 478.33 L 904.72 480.03 L 903.60 481.69 L 902.55 482.57 L 901.53 482.90 L 900.41 482.85 L 899.21 482.46 L 897.88 481.69 L 895.99 480.22 L 894.00 478.43 L 891.02 475.83 L 889.52 474.80 L 888.14 474.15 L 886.76 473.93 L 885.46 474.28 L 884.44 475.05 L 883.38 476.25 L 882.28 478.02 L 880.84 480.90 L 879.32 484.38 L 876.19 491.48 L 874.40 494.80 L 872.51 497.45 L 871.03 498.92 L 869.50 499.89 L 867.88 500.42 L 867.20 500.48 Z" fill="url(#linear-gradient)" fill-rule="nonzero" group-id="3,11" id="路径_8753" node-id="42" stroke="none" target-height="64.03" target-width="81.77997" target-x="823.44" target-y="436.65"></path></g></svg>