<svg viewBox="0 0 1200 1200" height="1200" width="1200" xmlns="http://www.w3.org/2000/svg">
  <g transform="translate(91.788 127.741)" id="服务集成">
    <g stroke-width="1" stroke="#707070" fill="#fff" transform="translate(-91.788 -127.741)" id="矩形_1573">
      <rect stroke="none" height="1200" width="1200"></rect>
      <rect fill="none" height="1199" width="1199" y="0.5" x="0.5"></rect>
    </g>
    <path stroke-dasharray="5 5" stroke-width="1" stroke="#7b68e7" fill="none" transform="translate(0 139.206)" d="M21.625,0H903.938a21.625,21.625,0,0,1,21.625,21.625V707.148a21.626,21.626,0,0,1-21.625,21.625H21.625A21.625,21.625,0,0,1,0,707.148V21.625A21.625,21.625,0,0,1,21.625,0Z" id="line"></path>
    <g transform="translate(62.713 59.735)" id="block">
      <path fill-rule="evenodd" stroke-width="1" stroke="#eee" fill="#fff" transform="translate(-17.837 411)" d="M63.251-411H928.263a43.251,43.251,0,0,1,43.251,43.251V216.134a43.251,43.251,0,0,1-43.251,43.251H63.251A43.251,43.251,0,0,1,20,216.134V-367.749A43.251,43.251,0,0,1,63.251-411Z" id="bg"></path>
      <path fill-rule="evenodd" fill="#efefef" transform="translate(-19 411)" d="M62.251-411H929.426a43.251,43.251,0,0,1,43.251,43.251v42.386H19v-42.386A43.251,43.251,0,0,1,62.251-411Z" id="bg_title"></path>
      <g transform="translate(821.762 32.438)" id="dot">
        <path opacity="0.3" fill-rule="evenodd" fill="#2968ff" transform="translate(-399 396)" d="M410.678-396a11.678,11.678,0,0,1,11.678,11.678,11.678,11.678,0,0,1-11.678,11.678A11.678,11.678,0,0,1,399-384.322,11.678,11.678,0,0,1,410.678-396Zm36.979,0a11.678,11.678,0,0,1,11.678,11.678,11.678,11.678,0,0,1-11.678,11.678,11.678,11.678,0,0,1-11.678-11.678A11.678,11.678,0,0,1,447.657-396Z" id="路径_1292"></path>
        <path fill-rule="evenodd" fill="#2968ff" transform="translate(-360.288 396)" d="M443.978-396a11.678,11.678,0,0,1,11.678,11.678,11.678,11.678,0,0,1-11.678,11.678A11.678,11.678,0,0,1,432.3-384.322,11.678,11.678,0,0,1,443.978-396Z" id="路径_1295"></path>
      </g>
      <g transform="translate(49.738 125.427)" id="block-2">
        <path opacity="0.049" fill="#8b93a0" transform="translate(-53 436.741)" d="M61.65-214H468.206a8.65,8.65,0,0,1,8.65,8.65v242.2a8.65,8.65,0,0,1-8.65,8.65H61.65A8.65,8.65,0,0,1,53,36.854v-242.2A8.65,8.65,0,0,1,61.65-214Z" id="路径_1491"></path>
        <path opacity="0.049" fill="#8b93a0" transform="translate(191.132 436.741)" d="M271.65-214H678.206a8.65,8.65,0,0,1,8.65,8.65v242.2a8.65,8.65,0,0,1-8.65,8.65H271.65a8.65,8.65,0,0,1-8.65-8.65v-242.2A8.65,8.65,0,0,1,271.65-214Z" id="路径_1494"></path>
        <path opacity="0.09" fill="#8b93a0" transform="translate(-36.725 447.203)" d="M113.494-112.011a46.494,46.494,0,0,0,46.494-46.494A46.494,46.494,0,0,0,113.494-205,46.494,46.494,0,0,0,67-158.506,46.494,46.494,0,0,0,113.494-112.011Z" id="路径_1497"></path>
        <path opacity="0.09" fill-rule="evenodd" fill="#8b93a0" transform="translate(22.565 453.016)" d="M124.813-200H347.936a6.8,6.8,0,0,1,6.813,6.789,6.8,6.8,0,0,1-6.813,6.789H124.813A6.8,6.8,0,0,1,118-193.211,6.8,6.8,0,0,1,124.813-200Zm0,30.549H347.936a6.8,6.8,0,0,1,6.813,6.789,6.8,6.8,0,0,1-6.813,6.789H124.813A6.8,6.8,0,0,1,118-162.662,6.8,6.8,0,0,1,124.813-169.451Zm0,30.549H347.936a6.8,6.8,0,0,1,6.813,6.789,6.8,6.8,0,0,1-6.813,6.789H124.813A6.8,6.8,0,0,1,118-132.113,6.8,6.8,0,0,1,124.813-138.9Zm0,28.852H347.936a6.8,6.8,0,0,1,6.813,6.789,6.8,6.8,0,0,1-6.813,6.789H124.813A6.8,6.8,0,0,1,118-103.261,6.8,6.8,0,0,1,124.813-110.05Zm0,30.549H347.936a6.8,6.8,0,0,1,6.813,6.789,6.8,6.8,0,0,1-6.813,6.789H124.813A6.8,6.8,0,0,1,118-72.712,6.8,6.8,0,0,1,124.813-79.5ZM465.46-200H688.583a6.8,6.8,0,0,1,6.813,6.789,6.8,6.8,0,0,1-6.813,6.789H465.46a6.8,6.8,0,0,1-6.813-6.789A6.8,6.8,0,0,1,465.46-200Zm0,30.549H688.583a6.8,6.8,0,0,1,6.813,6.789,6.8,6.8,0,0,1-6.813,6.789H465.46a6.8,6.8,0,0,1-6.813-6.789A6.8,6.8,0,0,1,465.46-169.451Z" id="路径_1500"></path>
        <path fill-rule="evenodd" fill="#f8f8f8" transform="translate(-27.424 317)" d="M88.638-317h78.421A13.685,13.685,0,0,1,180.7-303.27V-222.6a13.685,13.685,0,0,1-13.638,13.73H88.638A13.685,13.685,0,0,1,75-222.6V-303.27A13.685,13.685,0,0,1,88.638-317Zm228.444,0H395.5a13.685,13.685,0,0,1,13.638,13.73V-222.6a13.685,13.685,0,0,1-13.638,13.73H317.082a13.685,13.685,0,0,1-13.638-13.73V-303.27A13.685,13.685,0,0,1,317.082-317Zm226.739,0h78.421a13.685,13.685,0,0,1,13.638,13.73V-222.6a13.685,13.685,0,0,1-13.638,13.73H543.821a13.685,13.685,0,0,1-13.638-13.73V-303.27A13.685,13.685,0,0,1,543.821-317Zm228.444,0h78.421a13.685,13.685,0,0,1,13.638,13.73V-222.6a13.685,13.685,0,0,1-13.638,13.73H772.265a13.685,13.685,0,0,1-13.638-13.73V-303.27A13.685,13.685,0,0,1,772.265-317Z" id="路径_2348"></path>
        <path fill-rule="evenodd" fill="#f8f8f8" transform="translate(-35.562 389.077)" d="M74.808-255H197.355c3.76,0,6.808,3.874,6.808,8.65s-3.048,8.65-6.808,8.65H74.808c-3.76,0-6.808-3.874-6.808-8.65S71.048-255,74.808-255Zm226.37,0H423.725c3.76,0,6.808,3.874,6.808,8.65s-3.048,8.65-6.808,8.65H301.179c-3.76,0-6.808-3.874-6.808-8.65S297.419-255,301.179-255Zm226.37,0H650.1c3.76,0,6.808,3.874,6.808,8.65s-3.048,8.65-6.808,8.65H527.549c-3.76,0-6.808-3.874-6.808-8.65S523.789-255,527.549-255Zm226.371,0H876.466c3.76,0,6.808,3.874,6.808,8.65s-3.048,8.65-6.808,8.65H753.92c-3.76,0-6.808-3.874-6.808-8.65S750.16-255,753.92-255Z" id="路径_2347"></path>
        <path fill-rule="evenodd" fill="#f1f1f3" transform="translate(195.782 455.341)" d="M267,3.115S285.778-80.8,357.476-67.1s81.941,10.275,110.961-22.263,32.435-58.225,81.941-49.662,46.092-22.262,64.87-35.962,25.607-29.112,39.263-20.55,0,198.649,0,198.649Z" id="路径_2349"></path>
      </g>
    </g>
    <g transform="translate(21.625 0)" id="mine">
      <g transform="translate(0 74.873)" id="icon">
        <path fill="#2867ff" transform="translate(437.737 667.933)" d="M466.2-110a69.2,69.2,0,0,1,69.2,69.2,69.2,69.2,0,0,1-69.2,69.2A69.2,69.2,0,0,1,397-40.8,69.2,69.2,0,0,1,466.2-110Z" id="路径_1518"></path>
        <path fill="#fff" transform="translate(458.663 688.859)" d="M465.2-51.949a11.712,11.712,0,0,0-5.648,1.578l-2.822-2.839a18.608,18.608,0,0,0,.629-4.1,12.782,12.782,0,0,0-9.728-12.3v-2.839a10.121,10.121,0,0,0,7.219-9.459A10.136,10.136,0,0,0,444.8-92c-5.648,0-9.722,4.417-9.722,10.092a10.123,10.123,0,0,0,7.216,9.463v2.836a12.508,12.508,0,0,0-9.725,12.3,12.681,12.681,0,0,0,.942,4.733l-2.826,2.839a8.727,8.727,0,0,0-5.651-1.894A9.938,9.938,0,0,0,415-41.541a9.936,9.936,0,0,0,10.038,10.092,9.937,9.937,0,0,0,10.041-10.092,15.775,15.775,0,0,0-.629-3.784l2.826-2.839a12.5,12.5,0,0,0,8.157,3.155,11.562,11.562,0,0,0,8.47-3.468l2.51,2.523a8.734,8.734,0,0,0-.942,4.1,9.936,9.936,0,0,0,10.038,10.092,9.935,9.935,0,0,0,10.041-10.092A10.2,10.2,0,0,0,465.2-51.949ZM440.727-81.908a4.5,4.5,0,0,1,4.39-4.417,4.3,4.3,0,0,1,4.393,4.417c0,2.523-1.884,4.1-4.393,4.1A4.451,4.451,0,0,1,440.727-81.908ZM425.038-37.124a4.3,4.3,0,0,1-4.39-4.417,4.3,4.3,0,0,1,4.39-4.417,4.3,4.3,0,0,1,4.393,4.417,4.3,4.3,0,0,1-4.393,4.417Zm20.083-13.563a6.979,6.979,0,0,1-6.9-6.936,6.981,6.981,0,0,1,6.9-6.94,6.982,6.982,0,0,1,6.9,6.94,6.782,6.782,0,0,1-6.9,6.936ZM465.2-37.44a4.3,4.3,0,0,1-4.39-4.417,4.3,4.3,0,0,1,4.39-4.413,4.3,4.3,0,0,1,4.393,4.413A4.3,4.3,0,0,1,465.2-37.44Z" id="路径_1521"></path>
        <path fill="#00bea6" transform="translate(-11 667.933)" d="M72.632-110a61.632,61.632,0,0,1,61.632,61.632A61.632,61.632,0,0,1,72.632,13.264,61.632,61.632,0,0,1,11-48.368,61.632,61.632,0,0,1,72.632-110Z" id="路径_1524"></path>
        <path fill="#fff" transform="translate(10.131 686.534)" d="M72.174-86.041c-8.7-.984-15.244-3.338-19.452-7L51.615-94l-1.194.852c-6.6,4.709-13.118,7.1-19.384,7.1h-1.86v26.046c0,7.985,7.04,15.227,21.523,22.143l.761.363.776-.333c14.327-6.154,21.59-13.613,21.59-22.172V-85.853l-1.652-.188ZM70.106-60.006c0,6.791-6.244,12.986-18.565,18.418C39.169-47.621,32.9-53.817,32.9-60.006V-82.391c6.085-.394,12.3-2.714,18.517-6.915,4.461,3.4,10.736,5.669,18.692,6.757Zm-27.454-8.1h0a1.861,1.861,0,0,0-2.627-.162,1.861,1.861,0,0,0-.162,2.627h0l7.081,8.013a3.709,3.709,0,0,0,2.785,1.254h0a3.743,3.743,0,0,0,2.889-1.367L64.106-71.853h0a1.861,1.861,0,0,0-.268-2.618,1.861,1.861,0,0,0-2.618.268L49.732-60.094l-7.081-8.013Z" id="路径_1527"></path>
        <path fill="#e9a100" transform="translate(-11 368)" d="M74.795-368a63.8,63.8,0,0,1,63.795,63.795,63.8,63.8,0,0,1-63.795,63.795A63.8,63.8,0,0,1,11-304.205,63.8,63.8,0,0,1,74.795-368Z" id="路径_1530"></path>
        <path fill="#fff" transform="translate(5.275 382.821)" d="M76.907-301.28a27.982,27.982,0,0,1-3.914,2.6,1.79,1.79,0,0,0-.681,2.534,1.976,1.976,0,0,0,1.682.9,2.032,2.032,0,0,0,1-.26,31.523,31.523,0,0,0,4.469-2.98,1.775,1.775,0,0,0,.205-2.606A2.042,2.042,0,0,0,76.907-301.28ZM86.99-312.935a2.108,2.108,0,0,0-2.679,1.024,29.97,29.97,0,0,1-2.243,4.052,1.817,1.817,0,0,0,.681,2.608h0a2.154,2.154,0,0,0,1.067.279h0a2.1,2.1,0,0,0,1.752-.908,33.5,33.5,0,0,0,2.529-4.576,1.849,1.849,0,0,0-1.107-2.48Zm.618-13.122h-.025a2.235,2.235,0,0,0-2.3,2.136l-.011.663c-.006.331-.01.642-.01.9a33.092,33.092,0,0,1-.239,3.636,2.2,2.2,0,0,0,2.029,2.388c.085.008.172.011.254.011a2.249,2.249,0,0,0,2.28-1.922,36.987,36.987,0,0,0,.266-4.115c0-.234.008-.516.01-.819.007-.224.012-.457.012-.689A2.225,2.225,0,0,0,87.608-326.057Zm-3.663-6.166a2.232,2.232,0,0,0,2.085,1.3,2.46,2.46,0,0,0,.765-.121,1.931,1.931,0,0,0,1.322-2.544,38.033,38.033,0,0,0-2.155-4.37,2.361,2.361,0,0,0-2.994-.854,1.886,1.886,0,0,0-.956,2.67,33.866,33.866,0,0,1,1.932,3.919ZM57.878-343.9a2.056,2.056,0,0,0-2.062,2.048v19.535a2.049,2.049,0,0,0,1.174,1.847l18.585,8.808h0a2.054,2.054,0,0,0,.885.2,2.059,2.059,0,0,0,1.861-1.167,2.039,2.039,0,0,0-.973-2.728l-17.41-8.251V-341.85a2.055,2.055,0,0,0-2.061-2.048Zm21.33-9.38c-.234-.862-.86-.978-1.394-.259l-2.423,3.27a33.059,33.059,0,0,0-13.806-4.772h0a33.794,33.794,0,0,0-3.785-.213A32.658,32.658,0,0,0,25-322.813a32.658,32.658,0,0,0,32.8,32.438,34.7,34.7,0,0,0,8.857-1.134,2.026,2.026,0,0,0,1.451-2.483,2.048,2.048,0,0,0-2.51-1.434,30.55,30.55,0,0,1-7.8,1,28.577,28.577,0,0,1-28.7-28.384A28.576,28.576,0,0,1,57.8-351.2a29.511,29.511,0,0,1,3.316.186,29.03,29.03,0,0,1,11.845,4.022l-2.806,3.79c-.534.719-.232,1.275.669,1.235l9.673-.428a1.254,1.254,0,0,0,1.215-1.639l-2.5-9.249Z" id="路径_1533"></path>
      </g>
      <g opacity="0.3" transform="translate(387.039 196.79)" id="block-3">
        <path stroke-width="1" stroke="#8b93a0" fill="#fff" transform="translate(-117.975 402.623)" d="M315.248-274.4H122.458a4.49,4.49,0,0,1-3.168-1.315,4.489,4.489,0,0,1-1.315-3.169V-398.14a4.489,4.489,0,0,1,1.315-3.169,4.49,4.49,0,0,1,3.168-1.315h192.79a4.49,4.49,0,0,1,3.168,1.315,4.489,4.489,0,0,1,1.315,3.169v119.26a4.489,4.489,0,0,1-1.315,3.169A4.49,4.49,0,0,1,315.248-274.4Z" id="路径_2346"></path>
        <path opacity="0.577" fill="#8b93a0" transform="translate(-97.247 419.696)" d="M256.409-379.866H139.84a4.038,4.038,0,0,1-2.855-1.182A4.042,4.042,0,0,1,135.8-383.9a4.043,4.043,0,0,1,1.181-2.853,4.038,4.038,0,0,1,2.855-1.182H256.409a4.038,4.038,0,0,1,2.855,1.182,4.034,4.034,0,0,1,1.181,2.853,4.034,4.034,0,0,1-1.181,2.853A4.038,4.038,0,0,1,256.409-379.866Z" id="路径_1580"></path>
        <path opacity="0.577" fill="#8b93a0" transform="translate(-97.247 434.639)" d="M256.409-367.012H139.84a4.038,4.038,0,0,1-2.855-1.182,4.043,4.043,0,0,1-1.181-2.853,4.042,4.042,0,0,1,1.181-2.853,4.037,4.037,0,0,1,2.855-1.182H256.409a4.037,4.037,0,0,1,2.855,1.182,4.033,4.033,0,0,1,1.181,2.853,4.034,4.034,0,0,1-1.181,2.853A4.038,4.038,0,0,1,256.409-367.012Z" id="路径_1583"></path>
        <path fill="#e9a100" transform="translate(-45.748 447.166)" d="M194.526-335.466a14.419,14.419,0,0,0,14.42-14.42,14.42,14.42,0,0,0-14.42-14.42,14.421,14.421,0,0,0-14.422,14.42A14.421,14.421,0,0,0,194.526-335.466Z" id="路径_1586"></path>
        <path fill="#fff" transform="translate(-39.716 450.528)" d="M188.89-360.041v-1.374h.407v1.374a4.385,4.385,0,0,1,1.663.407,2.439,2.439,0,0,1,.949.791,1.842,1.842,0,0,1,.344,1.08,1.168,1.168,0,0,1-.266.777.821.821,0,0,1-.292.234.818.818,0,0,1-.363.082.679.679,0,0,1-.275-.051.663.663,0,0,1-.231-.156.668.668,0,0,1-.158-.236.687.687,0,0,1-.052-.279,1,1,0,0,1,.082-.389l.162-.343a1.117,1.117,0,0,0,.082-.452,1.065,1.065,0,0,0-.216-.664,1.322,1.322,0,0,0-.616-.43,3.477,3.477,0,0,0-.813-.163v4.944l.091.054a8.963,8.963,0,0,1,2.286,1.726,4.007,4.007,0,0,1,.692,1.171,3.6,3.6,0,0,1,.249,1.3,3.149,3.149,0,0,1-.432,1.636,2.949,2.949,0,0,1-1.2,1.13,5.083,5.083,0,0,1-1.682.488v1.473h-.407v-1.446a4.537,4.537,0,0,1-1.717-.353,3.25,3.25,0,0,1-1.388-.994,2.253,2.253,0,0,1-.491-1.419,1.594,1.594,0,0,1,.316-1.008.928.928,0,0,1,.333-.3.944.944,0,0,1,.435-.111.663.663,0,0,1,.266.046.678.678,0,0,1,.227.148.637.637,0,0,1,.147.226.659.659,0,0,1,.048.266,1.332,1.332,0,0,1-.335.748,2.352,2.352,0,0,0-.249.415.936.936,0,0,0-.067.361,1.467,1.467,0,0,0,.32.906,2.05,2.05,0,0,0,.863.645,3.186,3.186,0,0,0,1.222.217h.071v-5.9l-.515-.3a13.121,13.121,0,0,1-1.116-.705,4.653,4.653,0,0,1-.692-.615,2.972,2.972,0,0,1-.8-2.043,2.76,2.76,0,0,1,.344-1.351,2.683,2.683,0,0,1,.949-1.008A3.86,3.86,0,0,1,188.89-360.041Zm0,.2a2.8,2.8,0,0,0-1.016.226,1.734,1.734,0,0,0-.757.731,2.259,2.259,0,0,0-.288,1.128,2.285,2.285,0,0,0,.424,1.344,2.729,2.729,0,0,0,.526.569,10.025,10.025,0,0,0,1.021.667l.091.054Zm.407,12.257a2.79,2.79,0,0,0,.683-.145,1.777,1.777,0,0,0,.5-.289,2.257,2.257,0,0,0,.631-.881,3.07,3.07,0,0,0,.234-1.189,3.74,3.74,0,0,0-.6-1.838,3.714,3.714,0,0,0-1.44-1.29Z" id="路径_1589"></path>
      </g>
      <g opacity="0.6" transform="translate(317.838 101.639)" id="block-4">
        <path stroke-width="1" stroke="#8b93a0" fill="#fff" transform="translate(-117.975 402.623)" d="M315.248-274.4H122.458a4.49,4.49,0,0,1-3.168-1.315,4.489,4.489,0,0,1-1.315-3.169V-398.14a4.489,4.489,0,0,1,1.315-3.169,4.49,4.49,0,0,1,3.168-1.315h192.79a4.49,4.49,0,0,1,3.168,1.315,4.489,4.489,0,0,1,1.315,3.169v119.26a4.489,4.489,0,0,1-1.315,3.169A4.49,4.49,0,0,1,315.248-274.4Z" id="路径_2346-2"></path>
        <path opacity="0.577" fill="#8b93a0" transform="translate(-97.247 419.696)" d="M256.409-379.866H139.84a4.038,4.038,0,0,1-2.855-1.182A4.042,4.042,0,0,1,135.8-383.9a4.043,4.043,0,0,1,1.181-2.853,4.038,4.038,0,0,1,2.855-1.182H256.409a4.038,4.038,0,0,1,2.855,1.182,4.034,4.034,0,0,1,1.181,2.853,4.034,4.034,0,0,1-1.181,2.853A4.038,4.038,0,0,1,256.409-379.866Z" id="路径_1580-2"></path>
        <path opacity="0.577" fill="#8b93a0" transform="translate(-97.247 434.639)" d="M256.409-367.012H139.84a4.038,4.038,0,0,1-2.855-1.182,4.043,4.043,0,0,1-1.181-2.853,4.042,4.042,0,0,1,1.181-2.853,4.037,4.037,0,0,1,2.855-1.182H256.409a4.037,4.037,0,0,1,2.855,1.182,4.033,4.033,0,0,1,1.181,2.853,4.034,4.034,0,0,1-1.181,2.853A4.038,4.038,0,0,1,256.409-367.012Z" id="路径_1583-2"></path>
        <path fill="#e9a100" transform="translate(-45.748 447.166)" d="M194.526-335.466a14.419,14.419,0,0,0,14.42-14.42,14.42,14.42,0,0,0-14.42-14.42,14.421,14.421,0,0,0-14.422,14.42A14.421,14.421,0,0,0,194.526-335.466Z" id="路径_1586-2"></path>
        <path fill="#fff" transform="translate(-39.716 450.528)" d="M188.89-360.041v-1.374h.407v1.374a4.385,4.385,0,0,1,1.663.407,2.439,2.439,0,0,1,.949.791,1.842,1.842,0,0,1,.344,1.08,1.168,1.168,0,0,1-.266.777.821.821,0,0,1-.292.234.818.818,0,0,1-.363.082.679.679,0,0,1-.275-.051.663.663,0,0,1-.231-.156.668.668,0,0,1-.158-.236.687.687,0,0,1-.052-.279,1,1,0,0,1,.082-.389l.162-.343a1.117,1.117,0,0,0,.082-.452,1.065,1.065,0,0,0-.216-.664,1.322,1.322,0,0,0-.616-.43,3.477,3.477,0,0,0-.813-.163v4.944l.091.054a8.963,8.963,0,0,1,2.286,1.726,4.007,4.007,0,0,1,.692,1.171,3.6,3.6,0,0,1,.249,1.3,3.149,3.149,0,0,1-.432,1.636,2.949,2.949,0,0,1-1.2,1.13,5.083,5.083,0,0,1-1.682.488v1.473h-.407v-1.446a4.537,4.537,0,0,1-1.717-.353,3.25,3.25,0,0,1-1.388-.994,2.253,2.253,0,0,1-.491-1.419,1.594,1.594,0,0,1,.316-1.008.928.928,0,0,1,.333-.3.944.944,0,0,1,.435-.111.663.663,0,0,1,.266.046.678.678,0,0,1,.227.148.637.637,0,0,1,.147.226.659.659,0,0,1,.048.266,1.332,1.332,0,0,1-.335.748,2.352,2.352,0,0,0-.249.415.936.936,0,0,0-.067.361,1.467,1.467,0,0,0,.32.906,2.05,2.05,0,0,0,.863.645,3.186,3.186,0,0,0,1.222.217h.071v-5.9l-.515-.3a13.121,13.121,0,0,1-1.116-.705,4.653,4.653,0,0,1-.692-.615,2.972,2.972,0,0,1-.8-2.043,2.76,2.76,0,0,1,.344-1.351,2.683,2.683,0,0,1,.949-1.008A3.86,3.86,0,0,1,188.89-360.041Zm0,.2a2.8,2.8,0,0,0-1.016.226,1.734,1.734,0,0,0-.757.731,2.259,2.259,0,0,0-.288,1.128,2.285,2.285,0,0,0,.424,1.344,2.729,2.729,0,0,0,.526.569,10.025,10.025,0,0,0,1.021.667l.091.054Zm.407,12.257a2.79,2.79,0,0,0,.683-.145,1.777,1.777,0,0,0,.5-.289,2.257,2.257,0,0,0,.631-.881,3.07,3.07,0,0,0,.234-1.189,3.74,3.74,0,0,0-.6-1.838,3.714,3.714,0,0,0-1.44-1.29Z" id="路径_1589-2"></path>
      </g>
      <g transform="translate(231.337)" id="block-5">
        <path stroke-width="1" stroke="#8b93a0" fill="#fff" transform="translate(-117.975 402.623)" d="M315.248-274.4H122.458a4.49,4.49,0,0,1-3.168-1.315,4.489,4.489,0,0,1-1.315-3.169V-398.14a4.489,4.489,0,0,1,1.315-3.169,4.49,4.49,0,0,1,3.168-1.315h192.79a4.49,4.49,0,0,1,3.168,1.315,4.489,4.489,0,0,1,1.315,3.169v119.26a4.489,4.489,0,0,1-1.315,3.169A4.49,4.49,0,0,1,315.248-274.4Z" id="路径_2346-3"></path>
        <path opacity="0.577" fill="#8b93a0" transform="translate(-97.247 419.696)" d="M256.409-379.866H139.84a4.038,4.038,0,0,1-2.855-1.182A4.042,4.042,0,0,1,135.8-383.9a4.043,4.043,0,0,1,1.181-2.853,4.038,4.038,0,0,1,2.855-1.182H256.409a4.038,4.038,0,0,1,2.855,1.182,4.034,4.034,0,0,1,1.181,2.853,4.034,4.034,0,0,1-1.181,2.853A4.038,4.038,0,0,1,256.409-379.866Z" id="路径_1580-3"></path>
        <path opacity="0.577" fill="#8b93a0" transform="translate(-97.247 434.639)" d="M256.409-367.012H139.84a4.038,4.038,0,0,1-2.855-1.182,4.043,4.043,0,0,1-1.181-2.853,4.042,4.042,0,0,1,1.181-2.853,4.037,4.037,0,0,1,2.855-1.182H256.409a4.037,4.037,0,0,1,2.855,1.182,4.033,4.033,0,0,1,1.181,2.853,4.034,4.034,0,0,1-1.181,2.853A4.038,4.038,0,0,1,256.409-367.012Z" id="路径_1583-3"></path>
        <path fill="#e9a100" transform="translate(-45.748 447.166)" d="M194.526-335.466a14.419,14.419,0,0,0,14.42-14.42,14.42,14.42,0,0,0-14.42-14.42,14.421,14.421,0,0,0-14.422,14.42A14.421,14.421,0,0,0,194.526-335.466Z" id="路径_1586-3"></path>
        <path fill="#fff" transform="translate(-39.716 450.528)" d="M188.89-360.041v-1.374h.407v1.374a4.385,4.385,0,0,1,1.663.407,2.439,2.439,0,0,1,.949.791,1.842,1.842,0,0,1,.344,1.08,1.168,1.168,0,0,1-.266.777.821.821,0,0,1-.292.234.818.818,0,0,1-.363.082.679.679,0,0,1-.275-.051.663.663,0,0,1-.231-.156.668.668,0,0,1-.158-.236.687.687,0,0,1-.052-.279,1,1,0,0,1,.082-.389l.162-.343a1.117,1.117,0,0,0,.082-.452,1.065,1.065,0,0,0-.216-.664,1.322,1.322,0,0,0-.616-.43,3.477,3.477,0,0,0-.813-.163v4.944l.091.054a8.963,8.963,0,0,1,2.286,1.726,4.007,4.007,0,0,1,.692,1.171,3.6,3.6,0,0,1,.249,1.3,3.149,3.149,0,0,1-.432,1.636,2.949,2.949,0,0,1-1.2,1.13,5.083,5.083,0,0,1-1.682.488v1.473h-.407v-1.446a4.537,4.537,0,0,1-1.717-.353,3.25,3.25,0,0,1-1.388-.994,2.253,2.253,0,0,1-.491-1.419,1.594,1.594,0,0,1,.316-1.008.928.928,0,0,1,.333-.3.944.944,0,0,1,.435-.111.663.663,0,0,1,.266.046.678.678,0,0,1,.227.148.637.637,0,0,1,.147.226.659.659,0,0,1,.048.266,1.332,1.332,0,0,1-.335.748,2.352,2.352,0,0,0-.249.415.936.936,0,0,0-.067.361,1.467,1.467,0,0,0,.32.906,2.05,2.05,0,0,0,.863.645,3.186,3.186,0,0,0,1.222.217h.071v-5.9l-.515-.3a13.121,13.121,0,0,1-1.116-.705,4.653,4.653,0,0,1-.692-.615,2.972,2.972,0,0,1-.8-2.043,2.76,2.76,0,0,1,.344-1.351,2.683,2.683,0,0,1,.949-1.008A3.86,3.86,0,0,1,188.89-360.041Zm0,.2a2.8,2.8,0,0,0-1.016.226,1.734,1.734,0,0,0-.757.731,2.259,2.259,0,0,0-.288,1.128,2.285,2.285,0,0,0,.424,1.344,2.729,2.729,0,0,0,.526.569,10.025,10.025,0,0,0,1.021.667l.091.054Zm.407,12.257a2.79,2.79,0,0,0,.683-.145,1.777,1.777,0,0,0,.5-.289,2.257,2.257,0,0,0,.631-.881,3.07,3.07,0,0,0,.234-1.189,3.74,3.74,0,0,0-.6-1.838,3.714,3.714,0,0,0-1.44-1.29Z" id="路径_1589-3"></path>
      </g>
      <g transform="translate(176.338 375.196)" id="men">
        <path fill="#ffb6b6" transform="translate(10.957 294.869)" d="M230.921-172.541a11.524,11.524,0,0,0-4.939.728,11.534,11.534,0,0,0-4.167,2.749,11.532,11.532,0,0,0-2.612,4.254,11.527,11.527,0,0,0-.569,4.959l-37.061,17.374,18.139,11.109,32.414-18.2a11.583,11.583,0,0,0,7.084-4.186,11.579,11.579,0,0,0,2.515-7.834,11.571,11.571,0,0,0-3.322-7.528A11.581,11.581,0,0,0,230.921-172.541Z" id="路径_1592"></path>
        <path fill="#ffb6b6" transform="translate(-44.962 448.058)" d="M133.473,8.574l12.8,0L152.362-40.8H133.471Z" id="路径_1595"></path>
        <path fill="#0a0a0f" transform="translate(-46.716 472.353)" d="M131.962-19.9H157.17a16.063,16.063,0,0,1,11.359,4.7,16.066,16.066,0,0,1,4.705,11.36v.521l-41.272,0Z" id="路径_1598"></path>
        <path fill="#ffb6b6" transform="translate(-9.851 448.058)" d="M163.675,8.574l12.8,0,6.09-49.371H163.673Z" id="路径_1601"></path>
        <path fill="#0a0a0f" transform="translate(-11.605 472.353)" d="M162.164-19.9h25.209a16.062,16.062,0,0,1,11.36,4.7,16.067,16.067,0,0,1,4.706,11.36v.521l-41.272,0Z" id="路径_1604"></path>
        <path fill="#0a0a0f" transform="translate(-50.069 336.939)" d="M212.443-136.383l6.5,13.987L230.652,2.687l-9.1,107.512H200.253L175.127-59.265,163.325,106.3l-28.732-1.161-5.516-224.462Z" id="路径_1607"></path>
        <path fill="#4a4a71" transform="translate(-64.988 268.995)" d="M123.833-183.869l26.935-10.958,38.017,2.132,33.8,12.317L233.859-54.452c-29.4,16.055-59.188,20.438-89.491,8.957l-28.124-82.019Z" id="路径_1610"></path>
        <path fill="#4a4a71" transform="translate(-15.825 276.251)" d="M162.9-184.306l11.952-3.329s9.042-5.878,12.015,11.6,18.28,44.653,18.28,44.653l26.2-13.963,12.13,26.491L202.107-93.794l-43.573-43.9Z" id="路径_1613"></path>
        <path fill="#ffb6b6" transform="translate(-49.972 235.777)" d="M131.489-184.94a27.409,27.409,0,0,1-2.321-10.439,27.407,27.407,0,0,1,1.851-10.533,27.409,27.409,0,0,1,5.741-9.023,27.412,27.412,0,0,1,8.757-6.139,27.409,27.409,0,0,1,10.439-2.321,27.407,27.407,0,0,1,10.533,1.851,27.409,27.409,0,0,1,9.023,5.741,27.4,27.4,0,0,1,6.138,8.757l.158.362a27.4,27.4,0,0,1,.318,20.979,27.4,27.4,0,0,1-5.806,8.983,27.411,27.411,0,0,1-8.8,6.077,27.413,27.413,0,0,1-20.979.319,27.413,27.413,0,0,1-15.059-14.609Z" id="路径_1616"></path>
        <path fill="#0a0a0f" transform="translate(-55.786 229.124)" d="M174.514-203.372c5.7,1.034,14.518,4.622,19.414.413a23.988,23.988,0,0,0-8.884-6.5,5.493,5.493,0,0,1-1.838-1.039c-1.669-1.686-.379-4.592-1.143-6.872a5.889,5.889,0,0,0-1.634-2.149,5.889,5.889,0,0,0-2.421-1.194c-1.7-.508-3.479-.591-5.148-1.207-3.949-1.484-6.757-5.732-10.8-6.886-3.527-1.02-7.076.565-10.12,2.416s-6.055,4.046-9.616,4.4c-2.661.243-4.346,4.62-7.017,4.748-5.6.272-5.287-3.417-5.7,2.464-.239,3.51-5.254,10.492-5.172,14.032.083,2.32-.327,4.617-.261,6.944a18.04,18.04,0,0,0,4.993,11.857c2.549,2.621,5.864,4.389,8.009,7.377,1.116,1.586,1.89,3.437,3.188,4.872s3.5,2.3,4.948,1.274,1.477-3.242,2.2-4.929a5.39,5.39,0,0,1,2.155-2.49,5.392,5.392,0,0,1,3.2-.771,6.312,6.312,0,0,1,3.174,1.37,6.31,6.31,0,0,1,1.977,2.836c-.679-3.729-2.468-7.223-3.148-10.954s.206-8.189,3.419-9.646c1.38-.642,3.243-.814,3.8-2.294.34-.891.029-1.944.16-2.908C162.945-202.933,170.8-204.1,174.514-203.372Z" id="路径_1619"></path>
        <path fill="#ffb6b6" transform="translate(-73.377 326.096)" d="M155.987-104.051a11.516,11.516,0,0,0-1.781-4.665,11.5,11.5,0,0,0-3.587-3.471,11.521,11.521,0,0,0-4.719-1.631,11.54,11.54,0,0,0-4.965.521l-25-32.414-6.911,20.118,24.8,27.7a11.585,11.585,0,0,0,5.622,6.008,11.587,11.587,0,0,0,8.193.757A11.583,11.583,0,0,0,154.269-96,11.584,11.584,0,0,0,155.987-104.051Z" id="路径_1622"></path>
        <path fill="#4a4a71" transform="translate(-92.542 274.877)" d="M160.022-183.637l-8.634-6.114s-19.753-1.132-22.626,15.086L92.542-115.083,137.45-53.129l21.772-22.921-27.472-32.1,23.066-42.35Z" id="路径_1625"></path>
        <path fill="#0a0a0f" transform="translate(34.718 272.716)" d="M243.116-172.036h-.452v-12.409a7.18,7.18,0,0,0-.547-2.749,7.2,7.2,0,0,0-1.557-2.33,7.176,7.176,0,0,0-2.331-1.557,7.166,7.166,0,0,0-2.746-.547h-26.29a7.184,7.184,0,0,0-2.749.547,7.2,7.2,0,0,0-2.331,1.557,7.2,7.2,0,0,0-1.557,2.33,7.218,7.218,0,0,0-.545,2.748v68.075a7.219,7.219,0,0,0,.545,2.749,7.185,7.185,0,0,0,1.557,2.329,7.182,7.182,0,0,0,2.331,1.557,7.181,7.181,0,0,0,2.749.547h26.29a7.162,7.162,0,0,0,2.746-.547,7.159,7.159,0,0,0,2.331-1.557,7.184,7.184,0,0,0,1.557-2.329,7.181,7.181,0,0,0,.547-2.749V-163.2h.452Z" id="路径_1628"></path>
        <path fill="#ffda58" transform="translate(35.783 273.721)" d="M234.708-190.763h-3.432a2.54,2.54,0,0,1,.175,1.222,2.574,2.574,0,0,1-.42,1.161,2.56,2.56,0,0,1-.917.827,2.551,2.551,0,0,1-1.2.3H213.854a2.551,2.551,0,0,1-1.2-.3,2.563,2.563,0,0,1-.917-.827,2.575,2.575,0,0,1-.42-1.161,2.54,2.54,0,0,1,.175-1.222h-3.2a5.367,5.367,0,0,0-3.793,1.571,5.364,5.364,0,0,0-1.57,3.792v67.976a5.364,5.364,0,0,0,1.57,3.793,5.367,5.367,0,0,0,3.793,1.57h26.417a5.362,5.362,0,0,0,3.791-1.57,5.366,5.366,0,0,0,1.572-3.793V-185.4a5.366,5.366,0,0,0-1.572-3.792A5.362,5.362,0,0,0,234.708-190.763Z" id="路径_1631"></path>
      </g>
    </g>
  </g>
</svg>
