<?xml version="1.0" standalone="no"?><!DOCTYPE svg PUBLIC "-//W3C//DTD SVG 1.1//EN" "http://www.w3.org/Graphics/SVG/1.1/DTD/svg11.dtd"><svg height="8775" node-id="1" sillyvg="true" template-height="8775" template-width="11776" version="1.1" viewBox="0 0 11776 8775" width="11776" xmlns="http://www.w3.org/2000/svg" xmlns:xlink="http://www.w3.org/1999/xlink"><defs node-id="117"></defs><path d="M 11776.00 7710.93 L 0.00 7710.93 L 0.00 7716.81 L 11776.00 7716.81 L 11776.00 7710.93 Z" fill="#ebebeb" fill-rule="nonzero" node-id="119" stroke="none" target-height="5.879883" target-width="11776" target-x="0" target-y="7710.93"></path><path d="M 10596.00 7935.14 L 8455.17 7935.14 L 8455.17 7941.03 L 10596.00 7941.03 L 10596.00 7935.14 Z" fill="#ebebeb" fill-rule="nonzero" node-id="121" stroke="none" target-height="5.8896484" target-width="2140.83" target-x="8455.17" target-y="7935.14"></path><path d="M 7800.89 7871.31 L 7214.68 7871.31 L 7214.68 7877.20 L 7800.89 7877.20 L 7800.89 7871.31 Z" fill="#ebebeb" fill-rule="nonzero" node-id="123" stroke="none" target-height="5.8901367" target-width="586.20996" target-x="7214.68" target-y="7871.31"></path><path d="M 9140.77 8153.94 L 8231.89 8153.94 L 8231.89 8159.83 L 9140.77 8159.83 L 9140.77 8153.94 Z" fill="#ebebeb" fill-rule="nonzero" node-id="125" stroke="none" target-height="5.8901367" target-width="908.8799" target-x="8231.89" target-y="8153.94"></path><path d="M 1768.75 8114.37 L 1235.54 8114.37 L 1235.54 8120.26 L 1768.75 8120.26 L 1768.75 8114.37 Z" fill="#ebebeb" fill-rule="nonzero" node-id="127" stroke="none" target-height="5.8896484" target-width="533.20996" target-x="1235.54" target-y="8114.37"></path><path d="M 2611.68 8114.37 L 1978.37 8114.37 L 1978.37 8120.26 L 2611.68 8120.26 L 2611.68 8114.37 Z" fill="#ebebeb" fill-rule="nonzero" node-id="129" stroke="none" target-height="5.8896484" target-width="633.30994" target-x="1978.37" target-y="8114.37"></path><path d="M 5302.73 8014.98 L 4199.56 8014.98 L 4199.56 8020.87 L 5302.73 8020.87 L 5302.73 8014.98 Z" fill="#ebebeb" fill-rule="nonzero" node-id="131" stroke="none" target-height="5.8901367" target-width="1103.1699" target-x="4199.56" target-y="8014.98"></path><path d="M 5581.82 6660.51 L 1034.17 6660.51 C 998.54 6660.44 964.40 6646.25 939.23 6621.03 C 914.06 6595.82 899.92 6561.65 899.92 6526.02 L 899.92 133.30 C 900.23 97.88 914.50 64.01 939.64 39.05 C 964.78 14.09 998.75 0.06 1034.17 0.00 L 5581.82 0.00 C 5617.49 0.00 5651.70 14.17 5676.92 39.39 C 5702.14 64.61 5716.31 98.82 5716.31 134.48 L 5716.31 6526.02 C 5716.31 6561.69 5702.14 6595.90 5676.92 6621.12 C 5651.70 6646.34 5617.49 6660.51 5581.82 6660.51 Z M 1034.17 4.71 C 1000.10 4.77 967.46 18.35 943.39 42.46 C 919.33 66.57 905.81 99.24 905.81 133.30 L 905.81 6526.02 C 905.81 6560.09 919.33 6592.76 943.39 6616.87 C 967.46 6640.98 1000.10 6654.55 1034.17 6654.62 L 5581.82 6654.62 C 5615.91 6654.56 5648.58 6640.99 5672.68 6616.88 C 5696.79 6592.78 5710.36 6560.11 5710.42 6526.02 L 5710.42 133.30 C 5710.36 99.22 5696.79 66.55 5672.68 42.44 C 5648.58 18.34 5615.91 4.77 5581.82 4.71 L 1034.17 4.71 Z" fill="#ebebeb" fill-rule="nonzero" node-id="133" stroke="none" target-height="6660.51" target-width="4816.388" target-x="899.922" target-y="0"></path><path d="M 10676.40 6660.51 L 6128.47 6660.51 C 6092.82 6660.44 6058.65 6646.25 6033.44 6621.05 C 6008.24 6595.84 5994.05 6561.67 5993.98 6526.02 L 5993.98 133.30 C 5994.36 97.86 6008.68 63.99 6033.85 39.04 C 6059.03 14.09 6093.02 0.06 6128.47 0.00 L 10676.40 0.00 C 10711.70 0.12 10745.60 14.18 10770.70 39.14 C 10795.80 64.09 10810.10 97.92 10810.40 133.30 L 10810.40 6526.02 C 10810.40 6561.61 10796.30 6595.74 10771.10 6620.95 C 10746.00 6646.16 10711.90 6660.38 10676.40 6660.51 Z M 6128.47 4.71 C 6094.38 4.77 6061.71 18.34 6037.61 42.44 C 6013.50 66.55 5999.93 99.22 5999.87 133.30 L 5999.87 6526.02 C 5999.93 6560.11 6013.50 6592.78 6037.61 6616.88 C 6061.71 6640.99 6094.38 6654.56 6128.47 6654.62 L 10676.40 6654.62 C 10710.40 6654.56 10743.10 6640.99 10767.20 6616.88 C 10791.30 6592.78 10804.90 6560.11 10805.00 6526.02 L 10805.00 133.30 C 10804.90 99.22 10791.30 66.55 10767.20 42.44 C 10743.10 18.34 10710.40 4.77 10676.40 4.71 L 6128.47 4.71 Z" fill="#ebebeb" fill-rule="nonzero" node-id="135" stroke="none" target-height="6660.51" target-width="4816.4204" target-x="5993.98" target-y="0"></path><path d="M 1235.30 7710.69 L 4051.18 7710.69 L 4051.18 1483.31 L 1235.30 1483.31 L 1235.30 7710.69 Z" fill="#f0f0f0" fill-rule="nonzero" node-id="137" stroke="none" target-height="6227.38" target-width="2815.88" target-x="1235.3" target-y="1483.31"></path><path d="M 1235.54 7710.69 L 3917.88 7710.69 L 3917.87 1483.31 L 1235.54 1483.31 L 1235.54 7710.69 Z" fill="#f5f5f5" fill-rule="nonzero" node-id="139" stroke="none" target-height="6227.38" target-width="2682.3398" target-x="1235.54" target-y="1483.31"></path><path d="M 3776.56 7569.61 L 3776.56 1624.85 L 1376.85 1624.85 L 1376.85 7569.61 L 3776.56 7569.61 Z" fill="#f0f0f0" fill-rule="nonzero" node-id="141" stroke="none" target-height="5944.76" target-width="2399.71" target-x="1376.85" target-y="1624.85"></path><path d="M 2152.18 4427.78 L 1663.01 4427.78 C 1646.35 4427.71 1630.39 4421.07 1618.61 4409.29 C 1606.83 4397.51 1600.19 4381.55 1600.12 4364.89 C 1600.19 4348.23 1606.83 4332.27 1618.61 4320.49 C 1630.39 4308.71 1646.35 4302.07 1663.01 4302.01 L 2152.18 4302.01 C 2168.84 4302.07 2184.80 4308.71 2196.58 4320.49 C 2208.36 4332.27 2215.00 4348.23 2215.07 4364.89 C 2215.00 4381.55 2208.36 4397.51 2196.58 4409.29 C 2184.80 4421.07 2168.84 4427.71 2152.18 4427.78 Z" fill="#ffffff" fill-rule="nonzero" node-id="143" stroke="none" target-height="125.77002" target-width="614.9501" target-x="1600.12" target-y="4302.01"></path><path d="M 1413.59 7569.61 L 1413.59 1624.85 L 1376.85 1624.85 L 1376.85 7569.61 L 1413.59 7569.61 Z" fill="#f0f0f0" fill-rule="nonzero" node-id="145" stroke="none" target-height="5944.76" target-width="36.73999" target-x="1376.85" target-y="1624.85"></path><path d="M 5370.56 7592.70 L 5789.79 7592.70 L 5789.79 5774.48 L 5370.56 5774.48 L 5370.56 7592.70 Z" fill="#f0f0f0" fill-rule="nonzero" node-id="147" stroke="none" target-height="1818.2202" target-width="419.22998" target-x="5370.56" target-y="5774.48"></path><path d="M 3641.85 7708.10 L 5709.24 7708.10 L 5709.24 7592.93 L 3641.85 7592.93 L 3641.85 7708.10 Z" fill="#f0f0f0" fill-rule="nonzero" node-id="149" stroke="none" target-height="115.16992" target-width="2067.3901" target-x="3641.85" target-y="7592.93"></path><path d="M 5370.56 5774.71 L 3561.30 5774.71 L 3561.30 7592.93 L 5370.56 7592.93 L 5370.56 5774.71 Z" fill="#f5f5f5" fill-rule="nonzero" node-id="151" stroke="none" target-height="1818.2202" target-width="1809.26" target-x="3561.3" target-y="5774.71"></path><path d="M 5205.46 5998.46 L 3725.93 5998.46 L 3725.93 6594.80 L 5205.46 6594.80 L 5205.46 5998.46 Z" fill="#f0f0f0" fill-rule="nonzero" node-id="153" stroke="none" target-height="596.33984" target-width="1479.53" target-x="3725.93" target-y="5998.46"></path><path d="M 5205.46 6772.61 L 3725.93 6772.61 L 3725.93 7368.95 L 5205.46 7368.95 L 5205.46 6772.61 Z" fill="#f0f0f0" fill-rule="nonzero" node-id="155" stroke="none" target-height="596.34033" target-width="1479.53" target-x="3725.93" target-y="6772.61"></path><path d="M 4299.65 6048.62 L 4631.97 6048.62 C 4642.76 6048.56 4653.09 6044.25 4660.71 6036.62 C 4668.34 6028.99 4672.65 6018.67 4672.72 6007.88 C 4672.72 5997.05 4668.43 5986.66 4660.80 5978.98 C 4653.16 5971.31 4642.80 5966.96 4631.97 5966.90 L 4299.65 5966.90 C 4288.83 5966.96 4278.46 5971.31 4270.83 5978.98 C 4263.19 5986.66 4258.91 5997.05 4258.91 6007.88 C 4258.97 6018.67 4263.28 6028.99 4270.91 6036.62 C 4278.54 6044.25 4288.87 6048.56 4299.65 6048.62 Z" fill="#f5f5f5" fill-rule="nonzero" node-id="157" stroke="none" target-height="81.720215" target-width="413.81006" target-x="4258.91" target-y="5966.9"></path><path d="M 4299.65 6823.01 L 4631.97 6823.01 C 4642.64 6822.96 4652.86 6818.74 4660.47 6811.26 C 4668.08 6803.79 4672.47 6793.64 4672.72 6782.98 C 4672.65 6772.19 4668.34 6761.86 4660.71 6754.23 C 4653.09 6746.61 4642.76 6742.29 4631.97 6742.23 L 4299.65 6742.23 C 4288.87 6742.29 4278.54 6746.61 4270.91 6754.23 C 4263.28 6761.86 4258.97 6772.19 4258.91 6782.98 C 4259.15 6793.64 4263.55 6803.79 4271.15 6811.26 C 4278.76 6818.74 4288.99 6822.96 4299.65 6823.01 Z" fill="#f5f5f5" fill-rule="nonzero" node-id="159" stroke="none" target-height="80.779785" target-width="413.81006" target-x="4258.91" target-y="6742.23"></path><path d="M 4603.71 5738.91 C 4595.48 5738.85 4587.61 5735.56 4581.79 5729.74 C 4575.98 5723.92 4572.68 5716.05 4572.62 5707.83 L 4572.62 4763.15 C 4572.62 4754.91 4575.90 4747.00 4581.73 4741.17 C 4587.56 4735.34 4595.46 4732.07 4603.71 4732.07 C 4611.94 4732.13 4619.81 4735.42 4625.62 4741.24 C 4631.44 4747.06 4634.74 4754.93 4634.80 4763.15 L 4634.80 5707.83 C 4634.74 5716.05 4631.44 5723.92 4625.62 5729.74 C 4619.81 5735.56 4611.94 5738.85 4603.71 5738.91 Z" fill="#f5f5f5" fill-rule="nonzero" node-id="161" stroke="none" target-height="1006.84033" target-width="62.179688" target-x="4572.62" target-y="4732.07"></path><path d="M 4894.58 5702.18 L 4312.84 5702.18 L 4312.84 5775.42 L 4894.58 5775.42 L 4894.58 5702.18 Z" fill="#f0f0f0" fill-rule="nonzero" node-id="163" stroke="none" target-height="73.239746" target-width="581.74023" target-x="4312.84" target-y="5702.18"></path><path d="M 4764.81 5173.67 C 4760.72 5173.67 4756.81 5172.06 4753.90 5169.20 C 4750.99 5166.33 4749.32 5162.44 4749.26 5158.36 L 4749.26 4686.85 C 4749.32 4682.75 4750.98 4678.83 4753.88 4675.92 C 4756.78 4673.02 4760.70 4671.37 4764.81 4671.30 C 4768.91 4671.37 4772.83 4673.02 4775.73 4675.92 C 4778.63 4678.83 4780.29 4682.75 4780.35 4686.85 L 4780.35 5157.89 C 4780.38 5159.95 4780.00 5162.00 4779.24 5163.91 C 4778.47 5165.82 4777.33 5167.56 4775.88 5169.03 C 4774.44 5170.50 4772.71 5171.67 4770.81 5172.46 C 4768.91 5173.26 4766.87 5173.67 4764.81 5173.67 Z" fill="#f0f0f0" fill-rule="nonzero" node-id="165" stroke="none" target-height="502.37012" target-width="31.120117" target-x="4749.26" target-y="4671.3"></path><path d="M 4151.28 4849.36 C 4151.28 4849.36 4162.82 4404.22 4603.71 4404.22 C 5044.60 4404.22 5055.91 4848.88 5055.91 4848.88 L 4151.28 4849.36 Z" fill="#f0f0f0" fill-rule="nonzero" node-id="167" stroke="none" target-height="445.13965" target-width="904.6304" target-x="4151.28" target-y="4404.22"></path><path d="M 7967.88 5478.20 C 7980.36 5478.20 7993.08 5478.20 8005.80 5479.37 C 8136.07 5488.79 8258.55 5544.95 8350.69 5637.52 C 8442.82 5730.09 8498.41 5852.84 8507.22 5983.15 C 8510.94 6042.35 8505.05 6101.76 8489.79 6159.08 C 8430.75 6389.00 8402.24 6625.69 8405.00 6863.05 L 8405.00 7554.07 C 8405.03 7566.04 8402.69 7577.89 8398.12 7588.95 C 8393.55 7600.01 8386.83 7610.05 8378.36 7618.51 C 8369.89 7626.96 8359.82 7633.65 8348.75 7638.19 C 8337.68 7642.73 8325.82 7645.04 8313.85 7644.98 L 6120.46 7644.98 L 6120.46 5478.20 L 7967.88 5478.20 Z" fill="#f0f0f0" fill-rule="nonzero" node-id="169" stroke="none" target-height="2166.8398" target-width="2390.4805" target-x="6120.46" target-y="5478.2"></path><path d="M 5579.94 6018.71 C 5580.17 5941.88 5596.79 5865.99 5628.68 5796.09 C 5660.57 5726.19 5707.00 5663.89 5764.88 5613.36 C 5822.75 5562.83 5890.74 5525.22 5964.30 5503.05 C 6037.86 5480.88 6115.31 5474.65 6191.47 5484.78 C 6267.63 5494.91 6340.75 5521.17 6405.96 5561.81 C 6471.17 5602.44 6526.96 5656.51 6569.61 5720.42 C 6612.26 5784.32 6640.79 5856.59 6653.30 5932.40 C 6665.80 6008.20 6662.00 6085.81 6642.13 6160.03 C 6583.28 6389.97 6554.86 6626.65 6557.58 6863.99 L 6557.58 7555.01 C 6557.58 7566.94 6555.23 7578.75 6550.66 7589.76 C 6546.09 7600.78 6539.39 7610.79 6530.94 7619.21 C 6522.50 7627.63 6512.47 7634.31 6501.44 7638.85 C 6490.42 7643.39 6478.60 7645.72 6466.67 7645.69 L 5774.01 7645.69 C 5762.10 7645.69 5750.31 7643.34 5739.31 7638.78 C 5728.31 7634.23 5718.31 7627.55 5709.89 7619.13 C 5701.47 7610.71 5694.79 7600.71 5690.23 7589.71 C 5685.68 7578.71 5683.33 7566.92 5683.33 7555.01 L 5683.33 6822.54 C 5685.33 6599.94 5657.13 6378.10 5599.49 6163.09 C 5586.50 6116.06 5579.92 6067.50 5579.94 6018.71 Z" fill="#f5f5f5" fill-rule="nonzero" node-id="171" stroke="none" target-height="2171.0703" target-width="1085.8799" target-x="5579.92" target-y="5474.65"></path><path d="M 6865.17 7644.98 L 8834.36 7644.98 L 8834.36 6329.37 L 6865.17 6329.37 L 6865.17 7644.98 Z" fill="#f0f0f0" fill-rule="nonzero" node-id="173" stroke="none" target-height="1315.6099" target-width="1969.1904" target-x="6865.17" target-y="6329.37"></path><path d="M 10461.80 6627.06 L 7826.09 6627.06 L 7826.09 4609.36 C 7826.09 4500.93 7869.17 4396.93 7945.85 4320.25 C 8022.52 4243.58 8126.52 4200.50 8234.96 4200.50 L 10052.90 4200.50 C 10161.40 4200.50 10265.40 4243.58 10342.00 4320.25 C 10418.70 4396.93 10461.80 4500.93 10461.80 4609.36 L 10461.80 6627.06 Z" fill="#e0e0e0" fill-rule="nonzero" node-id="175" stroke="none" target-height="2426.56" target-width="2635.71" target-x="7826.09" target-y="4200.5"></path><path d="M 9946.72 6627.06 L 7311.01 6627.06 L 7311.01 4589.58 C 7311.01 4486.33 7352.03 4387.30 7425.04 4314.29 C 7498.05 4241.28 7597.08 4200.26 7700.33 4200.26 L 9556.46 4200.26 C 9659.71 4200.26 9758.74 4241.28 9831.75 4314.29 C 9904.76 4387.30 9945.78 4486.33 9945.78 4589.58 L 9945.78 6627.06 L 9946.72 6627.06 Z" fill="#f5f5f5" fill-rule="nonzero" node-id="177" stroke="none" target-height="2426.8003" target-width="2635.71" target-x="7311.01" target-y="4200.26"></path><path d="M 8705.76 6745.06 L 6890.61 6745.06 C 6859.38 6745.06 6829.42 6732.65 6807.34 6710.57 C 6785.25 6688.48 6772.85 6658.53 6772.85 6627.30 L 6772.85 6328.89 C 6772.85 6297.66 6785.25 6267.71 6807.34 6245.63 C 6829.42 6223.54 6859.38 6211.13 6890.61 6211.13 L 8705.76 6211.13 C 8715.19 6211.13 8724.24 6214.88 8730.91 6221.55 C 8737.58 6228.22 8741.32 6237.27 8741.32 6246.70 L 8741.32 6709.73 C 8741.26 6719.12 8737.49 6728.11 8730.82 6734.73 C 8724.16 6741.34 8715.15 6745.06 8705.76 6745.06 Z" fill="#e0e0e0" fill-rule="nonzero" node-id="179" stroke="none" target-height="533.9302" target-width="1968.4702" target-x="6772.85" target-y="6211.13"></path><path d="M 10656.10 5478.20 C 10668.60 5478.20 10681.10 5478.20 10694.00 5479.37 C 10824.30 5488.84 10946.70 5545.03 11038.80 5637.59 C 11130.90 5730.16 11186.40 5852.87 11195.20 5983.15 C 11199.20 6042.35 11193.30 6101.81 11177.80 6159.08 C 11118.70 6389.08 11090.20 6625.85 11093.00 6863.29 L 11093.00 7554.30 C 11093.00 7566.23 11090.60 7578.04 11086.10 7589.06 C 11081.50 7600.08 11074.80 7610.08 11066.40 7618.50 C 11057.90 7626.93 11047.90 7633.60 11036.90 7638.14 C 11025.80 7642.69 11014.00 7645.01 11002.10 7644.98 L 8808.45 7644.98 L 8808.45 5478.20 L 10656.10 5478.20 Z" fill="#f0f0f0" fill-rule="nonzero" node-id="181" stroke="none" target-height="2166.8096" target-width="2390.75" target-x="8808.45" target-y="5478.2"></path><path d="M 8268.16 6018.71 C 8267.21 5877.85 8321.31 5742.19 8418.94 5640.64 C 8516.56 5539.09 8649.98 5479.68 8790.77 5475.07 C 8931.55 5470.47 9068.57 5521.03 9172.62 5615.98 C 9276.67 5710.93 9339.53 5842.76 9347.79 5983.38 C 9351.51 6042.59 9345.62 6102.00 9330.36 6159.32 C 9271.32 6389.24 9242.81 6625.93 9245.57 6863.29 L 9245.57 7554.30 C 9245.57 7578.35 9236.02 7601.42 9219.01 7618.42 C 9202.01 7635.42 9178.95 7644.98 9154.90 7644.98 L 8462.00 7644.98 C 8450.09 7644.98 8438.30 7642.63 8427.30 7638.08 C 8416.30 7633.52 8406.30 7626.84 8397.88 7618.42 C 8389.46 7610.00 8382.78 7600.00 8378.22 7589.00 C 8373.67 7578.00 8371.32 7566.21 8371.32 7554.30 L 8371.32 6822.54 C 8373.29 6599.96 8345.16 6378.14 8287.71 6163.09 C 8274.73 6116.06 8268.15 6067.50 8268.16 6018.71 Z" fill="#f5f5f5" fill-rule="nonzero" node-id="183" stroke="none" target-height="2174.5098" target-width="1084.2998" target-x="8267.21" target-y="5470.47"></path><path d="M 6158.85 7710.93 L 10617.50 7710.93 C 10626.10 7710.93 10634.70 7709.22 10642.70 7705.90 C 10650.70 7702.58 10657.90 7697.72 10664.00 7691.60 C 10670.10 7685.47 10675.00 7678.20 10678.30 7670.20 C 10681.50 7662.20 10683.20 7653.63 10683.20 7644.98 L 6093.14 7644.98 C 6093.11 7653.63 6094.78 7662.20 6098.07 7670.20 C 6101.36 7678.20 6106.19 7685.47 6112.30 7691.60 C 6118.40 7697.72 6125.66 7702.58 6133.65 7705.90 C 6141.63 7709.22 6150.20 7710.93 6158.85 7710.93 Z" fill="#e0e0e0" fill-rule="nonzero" node-id="185" stroke="none" target-height="65.950195" target-width="4590.0903" target-x="6093.11" target-y="7644.98"></path><path d="M 8799.50 2658.31 L 10233.60 2658.31 L 10233.60 1094.22 L 8799.50 1094.22 L 8799.50 2658.31 Z" fill="#e0e0e0" fill-rule="nonzero" node-id="187" stroke="none" target-height="1564.0901" target-width="1434.0996" target-x="8799.5" target-y="1094.22"></path><path d="M 8714.00 2658.31 L 10185.30 2658.31 L 10185.30 1094.22 L 8714.00 1094.22 L 8714.00 2658.31 Z" fill="#f5f5f5" fill-rule="nonzero" node-id="189" stroke="none" target-height="1564.0901" target-width="1471.2998" target-x="8714" target-y="1094.22"></path><path d="M 10061.90 2535.14 L 10061.90 1217.40 L 8836.95 1217.40 L 8836.95 2535.14 L 10061.90 2535.14 Z" fill="#ffffff" fill-rule="nonzero" node-id="191" stroke="none" target-height="1317.7399" target-width="1224.9502" target-x="8836.95" target-y="1217.4"></path><path d="M 9449.53 1543.12 L 9784.44 2123.45 L 9114.62 2123.45 L 9449.53 1543.12 Z" fill="#f5f5f5" fill-rule="nonzero" node-id="193" stroke="none" target-height="580.32996" target-width="669.8203" target-x="9114.62" target-y="1543.12"></path><path d="M 6787.68 3571.43 L 8221.77 3571.43 L 8221.77 2007.34 L 6787.68 2007.34 L 6787.68 3571.43 Z" fill="#e0e0e0" fill-rule="nonzero" node-id="195" stroke="none" target-height="1564.09" target-width="1434.0894" target-x="6787.68" target-y="2007.34"></path><path d="M 6702.19 3571.43 L 8173.48 3571.43 L 8173.48 2007.34 L 6702.19 2007.34 L 6702.19 3571.43 Z" fill="#f5f5f5" fill-rule="nonzero" node-id="197" stroke="none" target-height="1564.09" target-width="1471.29" target-x="6702.19" target-y="2007.34"></path><path d="M 8050.07 3448.25 L 8050.07 2130.52 L 6825.13 2130.52 L 6825.13 3448.25 L 8050.07 3448.25 Z" fill="#ffffff" fill-rule="nonzero" node-id="199" stroke="none" target-height="1317.73" target-width="1224.94" target-x="6825.13" target-y="2130.52"></path><path d="M 7287.93 3024.31 L 7142.61 2772.54 C 7127.50 2746.26 7119.56 2716.47 7119.59 2686.15 C 7119.62 2655.83 7127.63 2626.06 7142.80 2599.81 C 7157.98 2573.56 7179.79 2551.77 7206.05 2536.62 C 7232.31 2521.46 7262.09 2513.48 7292.41 2513.47 L 7583.74 2513.47 C 7614.05 2513.51 7643.82 2521.51 7670.07 2536.66 C 7696.32 2551.82 7718.13 2573.60 7733.32 2599.83 C 7748.51 2626.06 7756.54 2655.81 7756.62 2686.12 C 7756.70 2716.43 7748.82 2746.23 7733.77 2772.54 L 7588.45 3024.31 C 7573.31 3050.79 7551.43 3072.80 7525.05 3088.10 C 7498.66 3103.41 7468.70 3111.47 7438.19 3111.47 C 7407.69 3111.47 7377.73 3103.41 7351.34 3088.10 C 7324.95 3072.80 7303.08 3050.79 7287.93 3024.31 Z" fill="#f5f5f5" fill-rule="nonzero" node-id="201" stroke="none" target-height="598" target-width="637.14014" target-x="7119.56" target-y="2513.47"></path><path d="M 5888.00 8774.53 C 8410.01 8774.53 10454.50 8655.17 10454.50 8507.92 C 10454.50 8360.68 8410.01 8241.32 5888.00 8241.32 C 3365.99 8241.32 1321.50 8360.68 1321.50 8507.92 C 1321.50 8655.17 3365.99 8774.53 5888.00 8774.53 Z" fill="#f5f5f5" fill-rule="nonzero" node-id="203" stroke="none" target-height="533.20996" target-width="9133" target-x="1321.5" target-y="8241.32"></path><path d="M 7454.21 1043.36 L 2025.00 1043.36 L 2382.29 8437.27 L 7811.49 8437.27 L 7454.21 1043.36 Z" fill="#429cfd" fill-rule="nonzero" node-id="205" stroke="none" target-height="7393.9097" target-width="5786.49" target-x="2025" target-y="1043.36"></path><g node-id="386"><path d="M 7454.21 1043.36 L 2025.00 1043.36 L 2382.29 8437.27 L 7811.49 8437.27 L 7454.21 1043.36 Z" fill="#000000" fill-opacity="0.2" fill-rule="nonzero" group-id="1" node-id="209" stroke="none" target-height="7393.9097" target-width="5786.49" target-x="2025" target-y="1043.36"></path></g><path d="M 7504.38 1043.36 L 2075.17 1043.36 L 2432.69 8437.27 L 7861.89 8437.27 L 7504.38 1043.36 Z" fill="#429cfd" fill-rule="nonzero" node-id="212" stroke="none" target-height="7393.9097" target-width="5786.72" target-x="2075.17" target-y="1043.36"></path><path d="M 7217.75 1292.06 L 2323.41 1292.06 L 2665.38 8103.07 L 6921.23 8097.41 L 7628.49 7470.46 L 7217.75 1292.06 Z" fill="#000000" fill-opacity="0.2" fill-rule="nonzero" group-id="2" node-id="216" stroke="none" target-height="6811.01" target-width="5305.08" target-x="2323.41" target-y="1292.06"></path><path d="M 7255.19 1291.83 C 7307.39 3331.58 7472.11 5366.90 7748.61 7388.50 C 7360.79 7655.42 6974.93 7922.34 6591.03 8189.27 L 2930.58 8189.27 C 2585.08 5904.97 2382.30 3601.36 2323.41 1291.83 L 7255.19 1291.83 Z" fill="#ffffff" fill-rule="nonzero" node-id="219" stroke="none" target-height="6897.44" target-width="5425.2" target-x="2323.41" target-y="1291.83"></path><path d="M 7748.61 7388.50 C 7360.79 7655.42 6974.92 7922.34 6591.03 8189.27 C 6674.87 7835.99 6762.25 7482.71 6853.16 7129.43 L 7748.61 7388.50 Z" fill="#ebebeb" fill-rule="nonzero" node-id="221" stroke="none" target-height="1059.8398" target-width="1157.5801" target-x="6591.03" target-y="7129.43"></path><path d="M 3650.56 1915.02 C 3659.82 2164.35 3670.66 2413.85 3683.06 2663.50 L 2934.82 2663.50 C 2922.25 2413.85 2911.42 2164.35 2902.31 1915.02 L 3650.56 1915.02 Z M 3726.87 1836.12 L 2820.59 1836.12 C 2831.11 2138.05 2844.22 2440.15 2859.92 2742.40 L 3766.44 2742.40 C 3750.73 2440.30 3737.62 2138.21 3727.10 1836.12 L 3726.87 1836.12 Z" fill="#429cfd" fill-rule="nonzero" node-id="223" stroke="none" target-height="906.2799" target-width="945.84985" target-x="2820.59" target-y="1836.12"></path><path d="M 6708.08 2195.99 L 4145.15 2195.99 C 4142.80 2139.70 4140.68 2083.18 4138.56 2026.89 L 6701.25 2026.89 C 6703.37 2083.18 6705.73 2139.70 6708.08 2195.99 Z" fill="#e0e0e0" fill-rule="nonzero" node-id="225" stroke="none" target-height="169.09998" target-width="2569.52" target-x="4138.56" target-y="2026.89"></path><path d="M 6166.62 2551.63 L 4160.93 2551.63 C 4158.34 2495.10 4155.52 2438.81 4153.16 2382.52 L 6158.61 2382.52 C 6161.28 2438.89 6163.95 2495.26 6166.62 2551.63 Z" fill="#e0e0e0" fill-rule="nonzero" node-id="227" stroke="none" target-height="169.10986" target-width="2013.46" target-x="4153.16" target-y="2382.52"></path><path d="M 3724.04 3380.89 C 3739.74 3630.54 3757.25 3880.19 3776.56 4129.85 L 3028.08 4129.85 C 3008.77 3880.19 2991.26 3630.54 2975.56 3380.89 L 3724.04 3380.89 Z M 3798.00 3301.99 L 2891.71 3301.99 C 2910.24 3604.24 2931.36 3906.49 2955.07 4208.74 L 3862.53 4208.74 C 3838.98 3906.65 3817.78 3604.40 3798.94 3301.99 L 3798.00 3301.99 Z" fill="#429cfd" fill-rule="nonzero" node-id="229" stroke="none" target-height="906.75024" target-width="970.82007" target-x="2891.71" target-y="3301.99"></path><path d="M 5167.31 3662.10 L 4225.23 3662.10 C 4221.46 3605.58 4217.46 3549.29 4213.92 3492.76 L 5156.00 3492.76 C 5159.54 3549.29 5163.30 3605.58 5167.31 3662.10 Z" fill="#e0e0e0" fill-rule="nonzero" node-id="231" stroke="none" target-height="169.34009" target-width="953.39014" target-x="4213.92" target-y="3492.76"></path><path d="M 6059.22 3662.10 L 5366.56 3662.10 C 5362.79 3605.58 5358.79 3549.29 5355.25 3492.76 L 6047.92 3492.76 C 6051.45 3549.29 6055.22 3605.58 6059.22 3662.10 Z" fill="#e0e0e0" fill-rule="nonzero" node-id="233" stroke="none" target-height="169.34009" target-width="703.9702" target-x="5355.25" target-y="3492.76"></path><path d="M 6493.99 4017.97 L 4251.14 4017.97 C 4246.90 3961.45 4242.89 3905.16 4238.65 3848.63 L 6481.51 3848.63 C 6485.75 3905.16 6489.75 3961.45 6493.99 4017.97 Z" fill="#e0e0e0" fill-rule="nonzero" node-id="235" stroke="none" target-height="169.34009" target-width="2255.3403" target-x="4238.65" target-y="3848.63"></path><path d="M 3836.39 4847.47 C 3858.84 5097.12 3883.02 5346.78 3908.93 5596.43 L 3160.44 5596.43 C 3134.54 5346.78 3110.36 5097.12 3087.90 4847.47 L 3836.39 4847.47 Z M 3908.46 4768.57 L 3001.94 4768.57 C 3028.63 5070.98 3057.84 5373.31 3089.55 5675.56 L 3996.07 5675.56 C 3964.67 5373.15 3935.46 5070.82 3908.46 4768.57 Z" fill="#429cfd" fill-rule="nonzero" node-id="237" stroke="none" target-height="906.99023" target-width="994.1301" target-x="3001.94" target-y="4768.57"></path><path d="M 6926.64 5315.45 L 4363.48 5315.45 L 4380.44 5484.56 L 6943.60 5484.56 L 6926.64 5315.45 Z" fill="#e0e0e0" fill-rule="nonzero" node-id="239" stroke="none" target-height="169.10986" target-width="2580.12" target-x="4363.48" target-y="5315.45"></path><path d="M 6335.49 4959.58 L 4329.80 4959.58 C 4334.98 5015.87 4340.16 5072.40 4345.58 5128.69 L 6351.03 5128.69 C 6345.85 5072.40 6340.44 5016.58 6335.49 4959.58 Z" fill="#e0e0e0" fill-rule="nonzero" node-id="241" stroke="none" target-height="169.10986" target-width="2021.23" target-x="4329.8" target-y="4959.58"></path><path d="M 3987.82 6314.06 C 4017.03 6563.71 4047.88 6813.28 4080.38 7062.77 L 3331.90 7062.77 C 3299.40 6813.44 3268.55 6563.86 3239.34 6314.06 L 3987.82 6314.06 Z M 4058.48 6235.16 L 3151.26 6235.16 C 3185.80 6537.56 3223.09 6839.74 3263.13 7141.67 L 4168.70 7141.67 C 4128.98 6839.74 4091.69 6537.56 4056.83 6235.16 L 4058.48 6235.16 Z" fill="#429cfd" fill-rule="nonzero" node-id="243" stroke="none" target-height="906.50977" target-width="1017.4402" target-x="3151.26" target-y="6235.16"></path><path d="M 7067.72 6594.56 L 4504.56 6594.56 C 4497.73 6538.04 4490.90 6481.75 4484.30 6425.22 L 7047.23 6425.22 C 7054.06 6482.45 7060.65 6538.74 7067.72 6594.56 Z" fill="#e0e0e0" fill-rule="nonzero" node-id="245" stroke="none" target-height="169.33984" target-width="2583.4204" target-x="4484.3" target-y="6425.22"></path><path d="M 5715.84 6950.90 L 4549.07 6950.90 C 4541.77 6894.61 4534.70 6838.09 4527.64 6781.80 L 5694.40 6781.80 C 5701.47 6838.09 5708.53 6894.61 5715.84 6950.90 Z" fill="#e0e0e0" fill-rule="nonzero" node-id="247" stroke="none" target-height="169.1001" target-width="1188.1997" target-x="4527.64" target-y="6781.8"></path><path d="M 6412.50 6950.90 L 5908.73 6950.90 C 5901.43 6894.61 5894.36 6838.09 5887.29 6781.80 L 6391.07 6781.80 C 6398.14 6838.09 6406.15 6894.61 6412.50 6950.90 Z" fill="#e0e0e0" fill-rule="nonzero" node-id="249" stroke="none" target-height="169.1001" target-width="525.20996" target-x="5887.29" target-y="6781.8"></path><path d="M 3320.83 2556.57 L 3287.62 2503.81 C 3215.08 2388.41 3067.18 2285.49 3016.07 2255.34 L 3054.22 2187.75 C 3154.49 2248.63 3244.08 2325.57 3319.42 2415.49 C 3433.41 2260.29 3602.04 2099.90 3832.85 1927.50 L 3881.61 1991.09 C 3635.25 2175.50 3462.85 2344.37 3354.04 2506.88 L 3320.83 2556.57 Z" fill="#429cfd" fill-rule="nonzero" node-id="251" stroke="none" target-height="629.07007" target-width="865.54004" target-x="3016.07" target-y="1927.5"></path><path d="M 3410.33 4022.92 L 3375.71 3970.16 C 3300.34 3854.76 3149.61 3751.60 3097.79 3721.45 L 3133.83 3653.86 C 3236.01 3714.77 3327.70 3791.75 3405.38 3881.84 C 3515.14 3726.40 3679.29 3566.01 3905.63 3393.38 C 3922.35 3414.57 3939.31 3435.77 3956.03 3457.20 C 3714.62 3641.85 3546.70 3810.48 3442.36 3973.23 C 3431.53 3989.71 3420.93 4006.43 3410.33 4022.92 Z" fill="#429cfd" fill-rule="nonzero" node-id="253" stroke="none" target-height="629.54004" target-width="858.24" target-x="3097.79" target-y="3393.38"></path><path d="M 3540.34 5493.27 L 3504.30 5440.51 C 3425.64 5325.11 3272.08 5221.95 3219.56 5192.04 C 3230.86 5168.49 3243.11 5146.82 3253.94 5124.45 C 3357.72 5185.46 3451.33 5262.30 3531.39 5352.19 C 3637.14 5196.75 3797.05 5036.60 4018.44 4863.73 L 4070.73 4927.55 C 3835.21 5112.20 3670.34 5280.83 3570.72 5443.58 L 3540.34 5493.27 Z" fill="#429cfd" fill-rule="nonzero" node-id="255" stroke="none" target-height="629.54004" target-width="851.1699" target-x="3219.56" target-y="4863.73"></path><path d="M 5914.61 7782.99 C 5775.66 7782.99 5695.58 7731.65 5624.92 7686.43 C 5554.27 7641.21 5493.50 7602.12 5376.22 7602.12 C 5258.93 7602.12 5206.64 7643.10 5151.29 7686.43 C 5095.95 7729.77 5028.12 7782.99 4889.16 7782.99 C 4750.20 7782.99 4670.13 7731.65 4599.71 7686.43 C 4529.29 7641.21 4468.52 7602.12 4351.00 7602.12 C 4233.47 7602.12 4181.42 7643.10 4126.08 7686.43 C 4070.73 7729.77 4002.90 7782.99 3864.18 7782.99 C 3725.46 7782.99 3645.14 7731.65 3574.49 7686.43 C 3503.83 7641.21 3443.30 7602.12 3325.78 7602.12 C 3322.72 7578.56 3319.42 7556.90 3316.36 7534.29 C 3455.31 7534.29 3535.16 7585.63 3605.81 7630.85 C 3676.47 7676.07 3737.00 7715.16 3854.29 7715.16 C 3971.57 7715.16 4023.86 7674.18 4079.21 7630.85 C 4134.55 7587.51 4202.62 7534.29 4341.58 7534.29 C 4480.53 7534.29 4560.14 7585.63 4630.79 7630.85 C 4701.45 7676.07 4762.21 7715.16 4879.50 7715.16 C 4996.79 7715.16 5049.08 7674.18 5104.43 7630.85 C 5159.77 7587.51 5227.84 7534.29 5366.79 7534.29 C 5505.75 7534.29 5585.59 7585.63 5656.25 7630.85 C 5726.90 7676.07 5787.43 7715.16 5904.96 7715.16 C 5908.02 7737.77 5911.55 7760.38 5914.61 7782.99 Z" fill="#ebebeb" fill-rule="nonzero" node-id="257" stroke="none" target-height="248.7002" target-width="2598.2498" target-x="3316.36" target-y="7534.29"></path><path d="M 6113.86 1226.35 C 6034.26 1014.39 5850.32 875.19 5652.48 875.19 L 5249.27 875.19 C 5219.26 874.93 5189.98 865.87 5165.07 849.12 C 5140.16 832.37 5120.71 808.68 5109.14 780.99 C 5080.63 713.29 5032.97 655.40 4972.00 614.44 C 4911.04 573.48 4839.43 551.22 4765.98 550.41 C 4694.93 549.69 4625.51 571.67 4567.81 613.14 C 4510.12 654.61 4467.16 713.41 4445.21 780.99 C 4436.26 808.63 4418.70 832.70 4395.09 849.65 C 4371.49 866.60 4343.08 875.55 4314.02 875.19 L 3911.05 875.19 C 3712.97 875.19 3542.46 1015.09 3483.58 1226.35 L 3460.03 1310.43 L 6144.95 1310.43 L 6113.86 1226.35 Z" fill="#263238" fill-rule="nonzero" node-id="259" stroke="none" target-height="760.7391" target-width="2684.9202" target-x="3460.03" target-y="549.691"></path><path d="M 6128.23 1393.34 L 3485.70 1393.34 C 3463.41 1393.08 3442.05 1384.38 3425.92 1369.00 C 3409.80 1353.61 3400.10 1332.69 3398.79 1310.44 C 3398.21 1299.75 3399.83 1289.05 3403.54 1279.01 C 3407.25 1268.97 3412.98 1259.79 3420.37 1252.05 C 3427.76 1244.30 3436.66 1238.15 3446.52 1233.98 C 3456.38 1229.80 3466.98 1227.69 3477.69 1227.77 L 6120.22 1227.77 C 6142.47 1228.02 6163.80 1236.69 6179.92 1252.02 C 6196.04 1267.36 6205.76 1288.23 6207.13 1310.44 C 6207.74 1321.14 6206.15 1331.87 6202.46 1341.94 C 6198.76 1352.01 6193.04 1361.21 6185.64 1368.98 C 6178.25 1376.75 6169.34 1382.92 6159.46 1387.11 C 6149.59 1391.30 6138.96 1393.42 6128.23 1393.34 Z" fill="#429cfd" fill-rule="nonzero" node-id="261" stroke="none" target-height="165.7301" target-width="2809.5303" target-x="3398.21" target-y="1227.69"></path><path d="M 6128.23 1393.34 L 3485.70 1393.34 C 3463.41 1393.08 3442.05 1384.38 3425.92 1369.00 C 3409.80 1353.61 3400.10 1332.69 3398.79 1310.44 C 3398.21 1299.75 3399.83 1289.05 3403.54 1279.01 C 3407.25 1268.97 3412.98 1259.79 3420.37 1252.05 C 3427.76 1244.30 3436.66 1238.15 3446.52 1233.98 C 3456.38 1229.80 3466.98 1227.69 3477.69 1227.77 L 6120.22 1227.77 C 6142.47 1228.02 6163.80 1236.69 6179.92 1252.02 C 6196.04 1267.36 6205.76 1288.23 6207.13 1310.44 C 6207.74 1321.14 6206.15 1331.87 6202.46 1341.94 C 6198.76 1352.01 6193.04 1361.21 6185.64 1368.98 C 6178.25 1376.75 6169.34 1382.92 6159.46 1387.11 C 6149.59 1391.30 6138.96 1393.42 6128.23 1393.34 Z" fill="#000000" fill-opacity="0.2" fill-rule="nonzero" group-id="3" node-id="265" stroke="none" target-height="165.7301" target-width="2809.5303" target-x="3398.21" target-y="1227.69"></path><path d="M 8500.39 8366.38 L 8327.75 8366.38 L 8310.56 7966.70 L 8483.20 7966.70 L 8500.39 8366.38 Z" fill="#ffc3bd" fill-rule="nonzero" node-id="268" stroke="none" target-height="399.6797" target-width="189.83008" target-x="8310.56" target-y="7966.7"></path><path d="M 9536.44 8366.38 L 9363.80 8366.38 L 9277.13 7966.70 L 9449.53 7966.70 L 9536.44 8366.38 Z" fill="#ffc3bd" fill-rule="nonzero" node-id="270" stroke="none" target-height="399.6797" target-width="259.31055" target-x="9277.13" target-y="7966.7"></path><path d="M 9351.56 8346.36 L 9545.39 8346.36 C 9548.81 8346.34 9552.13 8347.50 9554.79 8349.64 C 9557.45 8351.79 9559.29 8354.79 9559.99 8358.13 L 9594.14 8511.69 C 9594.92 8515.42 9594.85 8519.27 9593.94 8522.96 C 9593.02 8526.66 9591.30 8530.10 9588.88 8533.04 C 9586.46 8535.98 9583.41 8538.33 9579.96 8539.94 C 9576.51 8541.54 9572.75 8542.35 9568.94 8542.31 C 9501.35 8541.13 9468.37 8537.13 9383.12 8537.13 C 9330.59 8537.13 9222.49 8542.54 9150.19 8542.54 C 9077.88 8542.54 9068.23 8471.89 9097.90 8464.59 C 9230.97 8435.38 9280.90 8395.34 9323.53 8356.95 C 9331.27 8350.13 9341.23 8346.36 9351.56 8346.36 Z" fill="#263238" fill-rule="nonzero" node-id="272" stroke="none" target-height="196.2002" target-width="526.68945" target-x="9068.23" target-y="8346.34"></path><path d="M 8328.93 8346.36 L 8517.34 8346.36 C 8520.76 8346.34 8524.08 8347.50 8526.74 8349.64 C 8529.40 8351.79 8531.24 8354.79 8531.95 8358.13 L 8566.10 8511.69 C 8566.93 8515.29 8566.96 8519.03 8566.18 8522.64 C 8565.40 8526.25 8563.82 8529.65 8561.57 8532.58 C 8559.32 8535.51 8556.44 8537.90 8553.15 8539.58 C 8549.86 8541.26 8546.24 8542.20 8542.54 8542.31 C 8474.48 8541.13 8376.27 8537.13 8290.77 8537.13 C 8190.91 8537.13 8104.71 8542.54 7987.42 8542.54 C 7916.77 8542.54 7896.98 8471.89 7926.66 8464.59 C 8061.61 8434.91 8171.84 8431.85 8288.42 8359.78 C 8300.48 8351.77 8314.47 8347.13 8328.93 8346.36 Z" fill="#263238" fill-rule="nonzero" node-id="274" stroke="none" target-height="196.2002" target-width="669.98" target-x="7896.98" target-y="8346.34"></path><path d="M 8667.14 2070.69 C 8643.58 2196.93 8629.92 2353.32 8718.24 2437.63 C 8718.24 2437.63 8667.61 2565.75 8433.03 2565.75 C 8218.71 2565.75 8326.10 2437.63 8326.10 2437.63 C 8467.42 2403.95 8459.41 2229.90 8434.91 2131.46 L 8667.14 2070.69 Z" fill="#ffc3bd" fill-rule="nonzero" node-id="276" stroke="none" target-height="495.06006" target-width="499.53027" target-x="8218.71" target-y="2070.69"></path><path d="M 8258.75 2455.29 C 8263.46 2423.97 8318.57 2387.46 8381.22 2373.80 C 8443.86 2360.14 8684.57 2329.76 8758.05 2360.14 C 8831.53 2390.53 8745.33 2480.49 8745.33 2480.49 L 8258.75 2455.29 Z" fill="#429cfd" fill-rule="nonzero" node-id="278" stroke="none" target-height="150.72998" target-width="572.7803" target-x="8258.75" target-y="2329.76"></path><path d="M 8258.75 2455.29 C 8263.46 2423.97 8318.57 2387.46 8381.22 2373.80 C 8443.86 2360.14 8684.57 2329.76 8758.05 2360.14 C 8831.53 2390.53 8745.33 2480.49 8745.33 2480.49 L 8258.75 2455.29 Z" fill="#ffffff" fill-opacity="0.4" fill-rule="nonzero" group-id="4" node-id="282" stroke="none" target-height="150.72998" target-width="572.7803" target-x="8258.75" target-y="2329.76"></path><path d="M 8310.56 7966.93 L 8319.51 8172.78 L 8492.15 8172.78 L 8483.20 7966.93 L 8310.56 7966.93 Z" fill="#000000" fill-opacity="0.2" fill-rule="nonzero" group-id="5" node-id="287" stroke="none" target-height="205.84961" target-width="181.59082" target-x="8310.56" target-y="7966.93"></path><path d="M 9449.77 7966.93 L 9277.13 7966.93 L 9321.88 8172.78 L 9494.52 8172.78 L 9449.77 7966.93 Z" fill="#000000" fill-opacity="0.2" fill-rule="nonzero" group-id="6" node-id="292" stroke="none" target-height="205.84961" target-width="217.38965" target-x="9277.13" target-y="7966.93"></path><path d="M 9075.76 2593.07 L 8867.80 2732.03 C 8867.80 2732.03 9166.44 3263.13 9141.47 3348.15 C 9107.32 3464.03 9059.75 3717.21 8994.98 3845.80 C 9003.46 3873.60 9046.56 3936.95 9070.58 3947.79 C 9235.44 3822.49 9401.96 3429.64 9395.83 3319.65 C 9381.47 3070.24 9075.76 2593.07 9075.76 2593.07 Z" fill="#ffc3bd" fill-rule="nonzero" node-id="295" stroke="none" target-height="1354.72" target-width="534.16016" target-x="8867.8" target-y="2593.07"></path><path d="M 8994.98 3846.28 L 8830.12 3833.56 L 8916.55 4015.14 C 8916.55 4015.14 9060.46 4021.50 9084.48 3911.52 L 8994.98 3846.28 Z" fill="#b55b52" fill-rule="nonzero" node-id="297" stroke="none" target-height="187.93994" target-width="254.36035" target-x="8830.12" target-y="3833.56"></path><path d="M 9809.88 4731.83 L 9795.98 4757.97 L 9702.72 4934.38 L 6391.78 3183.76 L 6498.70 2981.21 L 9809.88 4731.83 Z" fill="#429cfd" fill-rule="nonzero" node-id="299" stroke="none" target-height="1953.1699" target-width="3418.1" target-x="6391.78" target-y="2981.21"></path><path d="M 10024.00 4327.44 L 9955.67 4456.51 L 9917.04 4529.52 L 6605.87 2778.90 L 6712.79 2576.35 L 10024.00 4327.44 Z" fill="#429cfd" fill-rule="nonzero" node-id="301" stroke="none" target-height="1953.1699" target-width="3418.13" target-x="6605.87" target-y="2576.35"></path><path d="M 6606.96 2778.30 L 6499.80 2980.60 L 9809.62 4733.80 L 9916.77 4531.50 L 6606.96 2778.30 Z" fill="#429cfd" fill-rule="nonzero" node-id="303" stroke="none" target-height="1955.4998" target-width="3416.9697" target-x="6499.8" target-y="2778.3"></path><path d="M 6606.96 2778.30 L 6499.80 2980.60 L 9809.62 4733.80 L 9916.77 4531.50 L 6606.96 2778.30 Z" fill="#000000" fill-opacity="0.2" fill-rule="nonzero" group-id="7" node-id="307" stroke="none" target-height="1955.4998" target-width="3416.9697" target-x="6499.8" target-y="2778.3"></path><path d="M 6249.05 2603.20 L 6152.72 2785.49 L 6391.78 3183.76 L 6712.79 2576.59 L 6249.05 2603.20 Z" fill="#429cfd" fill-rule="nonzero" node-id="310" stroke="none" target-height="607.1699" target-width="560.0698" target-x="6152.72" target-y="2576.59"></path><path d="M 6249.05 2603.20 L 6152.72 2785.49 L 6391.78 3183.76 L 6712.79 2576.59 L 6249.05 2603.20 Z" fill="#ffffff" fill-opacity="0.8" fill-rule="nonzero" group-id="8" node-id="314" stroke="none" target-height="607.1699" target-width="560.0698" target-x="6152.72" target-y="2576.59"></path><path d="M 6050.27 2614.74 L 6152.72 2785.50 L 6249.05 2603.20 L 6050.27 2614.74 Z" fill="#429cfd" fill-rule="nonzero" node-id="317" stroke="none" target-height="182.30005" target-width="198.77979" target-x="6050.27" target-y="2603.2"></path><path d="M 8697.52 3916.23 L 8783.72 4076.85 L 8917.26 4015.14 L 8830.82 3833.56 L 8697.52 3916.23 Z" fill="#b55b52" fill-rule="nonzero" node-id="319" stroke="none" target-height="243.29004" target-width="219.74023" target-x="8697.52" target-y="3833.56"></path><path d="M 9026.31 2476.73 C 9189.52 2500.28 9376.52 3065.53 9376.52 3065.53 L 9033.61 3259.12 C 9033.61 3259.12 8882.64 2991.10 8808.45 2790.91 C 8730.26 2581.53 8851.31 2451.29 9026.31 2476.73 Z" fill="#263238" fill-rule="nonzero" node-id="321" stroke="none" target-height="807.8301" target-width="646.25977" target-x="8730.26" target-y="2451.29"></path><path d="M 8931.39 2670.56 C 8857.20 2602.73 8902.66 2893.13 8937.98 3078.95 C 8956.12 3115.22 8973.31 3148.19 8987.91 3175.75 C 9070.58 3029.73 9033.61 2764.06 8931.39 2670.56 Z" fill="#000000" fill-opacity="0.2" fill-rule="nonzero" group-id="9" node-id="325" stroke="none" target-height="573.02" target-width="213.37988" target-x="8857.2" target-y="2602.73"></path><path d="M 8059.73 2485.68 C 8059.73 2485.68 7856.01 3006.65 8049.37 3976.99 L 8973.31 3976.99 C 8979.67 3835.68 8890.65 3144.19 9027.25 2476.73 C 8925.20 2457.02 8821.98 2443.96 8718.24 2437.63 C 8587.64 2430.09 8456.71 2430.09 8326.10 2437.63 C 8236.19 2446.62 8147.12 2462.68 8059.73 2485.68 Z" fill="#263238" fill-rule="nonzero" node-id="328" stroke="none" target-height="1546.8999" target-width="1171.2402" target-x="7856.01" target-y="2430.09"></path><path d="M 8201.75 2727.79 L 7969.05 2635.70 C 7969.05 2635.70 7701.03 3182.82 7615.77 3210.37 C 7501.07 3248.05 7265.55 3351.68 7122.83 3371.94 C 7104.93 3395.49 7077.14 3466.15 7081.61 3492.05 C 7278.27 3556.35 7696.79 3471.09 7783.46 3403.73 C 7982.24 3250.17 8201.75 2727.79 8201.75 2727.79 Z" fill="#ffc3bd" fill-rule="nonzero" node-id="330" stroke="none" target-height="920.65015" target-width="1124.6099" target-x="7077.14" target-y="2635.7"></path><path d="M 8227.89 2665.61 C 8189.50 2577.06 8116.02 2540.08 8039.48 2553.04 C 8009.80 2661.61 7959.64 2900.19 7968.82 3259.60 L 8023.70 3285.97 C 8023.70 3285.97 8293.60 2817.05 8227.89 2665.61 Z" fill="#000000" fill-opacity="0.2" fill-rule="nonzero" group-id="10" node-id="334" stroke="none" target-height="745.8899" target-width="333.95947" target-x="7959.64" target-y="2540.08"></path><path d="M 8264.63 2603.67 C 8322.57 2758.17 8029.11 3212.73 8029.11 3212.73 L 7683.84 3024.31 C 7735.71 2882.93 7802.59 2747.52 7883.33 2620.39 C 8004.62 2439.28 8200.81 2434.33 8264.63 2603.67 Z" fill="#263238" fill-rule="nonzero" node-id="337" stroke="none" target-height="778.3999" target-width="638.73047" target-x="7683.84" target-y="2434.33"></path><path d="M 7131.31 3371.47 L 6925.94 3415.04 L 7030.04 3605.10 C 7087.44 3576.55 7139.60 3538.49 7184.30 3492.53 L 7131.31 3371.47 Z" fill="#ffc3bd" fill-rule="nonzero" node-id="339" stroke="none" target-height="233.63013" target-width="258.35986" target-x="6925.94" target-y="3371.47"></path><path d="M 6828.90 3458.14 L 6910.86 3571.66 L 7030.04 3606.05 L 6925.94 3415.98 L 6828.90 3458.14 Z" fill="#ffc3bd" fill-rule="nonzero" node-id="341" stroke="none" target-height="190.07007" target-width="201.14014" target-x="6828.9" target-y="3415.98"></path><path d="M 8275.70 1889.10 C 8275.70 1903.00 8266.99 1912.66 8257.80 1912.66 C 8248.62 1912.66 8242.02 1900.41 8242.96 1886.51 C 8243.91 1872.62 8251.68 1862.96 8260.86 1862.96 C 8270.05 1862.96 8276.64 1875.21 8275.70 1889.10 Z" fill="#263238" fill-rule="nonzero" node-id="343" stroke="none" target-height="49.700073" target-width="34.620117" target-x="8242.02" target-y="1862.96"></path><path d="M 8287.95 1890.28 C 8268.93 1931.78 8244.29 1970.45 8214.70 2005.22 C 8223.80 2012.57 8234.40 2017.84 8245.75 2020.65 C 8257.11 2023.46 8268.94 2023.74 8280.41 2021.47 L 8287.95 1890.28 Z" fill="#ed847e" fill-rule="nonzero" node-id="345" stroke="none" target-height="133.45996" target-width="73.25" target-x="8214.7" target-y="1890.28"></path><path d="M 8258.04 1841.06 C 8256.79 1840.79 8255.59 1840.32 8254.50 1839.64 C 8253.59 1839.07 8252.80 1838.32 8252.18 1837.44 C 8251.57 1836.55 8251.14 1835.55 8250.92 1834.49 C 8250.70 1833.44 8250.69 1832.35 8250.91 1831.29 C 8251.12 1830.23 8251.54 1829.23 8252.15 1828.34 C 8258.97 1817.31 8268.32 1808.06 8279.41 1801.34 C 8290.51 1794.63 8303.04 1790.64 8315.97 1789.71 C 8318.12 1789.83 8320.16 1790.73 8321.68 1792.25 C 8323.20 1793.78 8324.10 1795.81 8324.22 1797.96 C 8324.22 1800.14 8323.35 1802.24 8321.80 1803.79 C 8320.26 1805.33 8318.16 1806.20 8315.97 1806.20 C 8305.93 1807.14 8296.24 1810.42 8287.69 1815.78 C 8279.15 1821.13 8271.97 1828.42 8266.75 1837.05 C 8265.90 1838.55 8264.60 1839.74 8263.03 1840.45 C 8261.47 1841.17 8259.72 1841.38 8258.04 1841.06 Z" fill="#263238" fill-rule="nonzero" node-id="347" stroke="none" target-height="51.670044" target-width="73.5293" target-x="8250.69" target-y="1789.71"></path><path d="M 8743.92 1877.09 C 8723.66 2047.14 8720.36 2147.47 8629.22 2230.37 C 8491.91 2354.73 8285.83 2264.52 8254.74 2091.65 C 8226.95 1936.21 8264.87 1684.44 8435.86 1626.03 C 8473.48 1613.01 8513.81 1609.82 8553.01 1616.77 C 8592.21 1623.72 8628.99 1640.56 8659.85 1665.72 C 8690.71 1690.87 8714.63 1723.49 8729.35 1760.48 C 8744.06 1797.48 8749.07 1837.62 8743.92 1877.09 Z" fill="#ffc3bd" fill-rule="nonzero" node-id="349" stroke="none" target-height="744.91003" target-width="522.1201" target-x="8226.95" target-y="1609.82"></path><path d="M 8401.23 1910.30 C 8341.65 1922.08 8246.50 1789.72 8324.22 1677.37 C 8284.89 1657.82 8156.53 1735.07 8108.25 1663.01 C 8059.96 1590.94 8193.98 1552.55 8168.30 1491.55 C 8259.21 1510.15 8109.42 1623.67 8195.86 1612.60 C 8282.30 1601.53 8381.92 1441.85 8478.48 1507.33 C 8649.24 1622.02 8881.93 1430.78 8787.01 1670.31 C 8903.36 1646.75 8982.97 1784.30 8872.04 1879.68 C 8650.88 2069.28 8787.02 2094.24 8646.88 2103.90 C 8576.70 2109.08 8413.48 2025.47 8401.23 1910.30 Z" fill="#263238" fill-rule="nonzero" node-id="351" stroke="none" target-height="678.30005" target-width="923.00977" target-x="8059.96" target-y="1430.78"></path><path d="M 8489.56 1954.81 C 8481.40 1971.81 8469.93 1987.01 8455.81 1999.51 C 8441.70 2012.01 8425.22 2021.55 8407.36 2027.59 C 8360.26 2043.84 8333.17 2001.68 8344.24 1955.28 C 8354.13 1913.36 8391.34 1854.48 8440.10 1858.72 C 8450.80 1859.77 8461.06 1863.48 8469.96 1869.52 C 8478.86 1875.56 8486.09 1883.73 8491.01 1893.29 C 8495.93 1902.85 8498.38 1913.49 8498.12 1924.24 C 8497.87 1934.98 8494.92 1945.50 8489.56 1954.81 Z" fill="#ffc3bd" fill-rule="nonzero" node-id="353" stroke="none" target-height="189.35999" target-width="165.20996" target-x="8333.17" target-y="1854.48"></path><path d="M 8376.74 3976.99 C 8376.74 3976.99 8572.69 5295.90 8680.09 5790.49 C 8797.85 6332.19 9241.34 8133.68 9241.34 8133.68 L 9557.40 8133.68 C 9557.40 8133.68 9265.12 6375.29 9197.76 5839.48 C 9124.99 5258.22 8972.37 3977.69 8972.37 3977.69 L 8376.74 3976.99 Z" fill="#429cfd" fill-rule="nonzero" node-id="355" stroke="none" target-height="4156.6904" target-width="1180.6602" target-x="8376.74" target-y="3976.99"></path><path d="M 8376.74 3976.99 C 8376.74 3976.99 8572.69 5295.90 8680.09 5790.49 C 8797.85 6332.19 9241.34 8133.68 9241.34 8133.68 L 9557.40 8133.68 C 9557.40 8133.68 9265.12 6375.29 9197.76 5839.48 C 9124.99 5258.22 8972.37 3977.69 8972.37 3977.69 L 8376.74 3976.99 Z" fill="#ffffff" fill-opacity="0.2" fill-rule="nonzero" group-id="11" node-id="359" stroke="none" target-height="4156.6904" target-width="1180.6602" target-x="8376.74" target-y="3976.99"></path><path d="M 8609.43 4438.14 C 8594.83 4417.41 8581.64 4410.35 8569.39 4414.59 L 8566.80 4414.59 C 8564.02 4415.81 8561.40 4417.39 8559.03 4419.30 C 8556.53 4421.33 8554.24 4423.62 8552.20 4426.13 L 8548.43 4430.84 L 8543.49 4438.61 C 8539.39 4445.46 8535.85 4452.63 8532.89 4460.04 C 8531.00 4464.52 8529.12 4469.23 8527.47 4473.94 C 8525.82 4478.65 8523.23 4485.95 8521.35 4492.54 C 8519.46 4499.14 8515.93 4510.44 8513.34 4520.10 C 8513.34 4522.69 8512.16 4525.05 8511.46 4527.64 C 8510.75 4530.23 8508.87 4538.47 8507.69 4543.89 C 8506.51 4549.30 8505.57 4553.31 8504.63 4558.02 C 8502.51 4567.20 8500.62 4576.86 8498.74 4586.75 C 8496.85 4596.64 8494.73 4608.18 8492.85 4619.25 C 8492.85 4623.02 8491.67 4626.79 8490.97 4630.79 C 8488.61 4644.93 8486.49 4659.29 8484.37 4674.13 C 8536.66 5002.45 8598.83 5378.81 8649.24 5641.41 C 8651.59 5632.93 8654.18 5623.98 8656.30 5614.33 C 8666.59 5570.51 8674.45 5526.17 8679.85 5481.49 C 8724.37 5143.05 8703.88 4573.09 8609.43 4438.14 Z" fill="#000000" fill-opacity="0.2" fill-rule="nonzero" group-id="12" node-id="364" stroke="none" target-height="1231.06" target-width="240" target-x="8484.37" target-y="4410.35"></path><path d="M 8049.37 3976.99 C 8049.37 3976.99 8025.82 5267.17 8044.42 5793.55 C 8063.97 6340.90 8255.21 8132.97 8255.21 8132.97 L 8547.49 8132.97 C 8547.49 8132.97 8558.09 6372.70 8571.05 5835.24 C 8585.18 5249.27 8655.83 3976.99 8655.83 3976.99 L 8049.37 3976.99 Z" fill="#429cfd" fill-rule="nonzero" node-id="367" stroke="none" target-height="4155.9805" target-width="630.01025" target-x="8025.82" target-y="3976.99"></path><path d="M 8049.37 3976.99 C 8049.37 3976.99 8025.82 5267.17 8044.42 5793.55 C 8063.97 6340.90 8255.21 8132.97 8255.21 8132.97 L 8547.49 8132.97 C 8547.49 8132.97 8558.09 6372.70 8571.05 5835.24 C 8585.18 5249.27 8655.83 3976.99 8655.83 3976.99 L 8049.37 3976.99 Z" fill="#ffffff" fill-opacity="0.2" fill-rule="nonzero" group-id="13" node-id="371" stroke="none" target-height="4155.9805" target-width="630.01025" target-x="8025.82" target-y="3976.99"></path><path d="M 8566.80 8043.48 C 8567.98 8043.48 8566.80 8138.87 8566.80 8138.87 L 8229.78 8138.87 L 8215.64 8031.70 L 8566.80 8043.48 Z" fill="#263238" fill-rule="nonzero" node-id="374" stroke="none" target-height="107.16992" target-width="352.34082" target-x="8215.64" target-y="8031.7"></path><path d="M 9557.40 8050.54 C 9558.81 8050.54 9573.18 8138.86 9573.18 8138.86 L 9225.79 8138.86 L 9195.17 8037.59 L 9557.40 8050.54 Z" fill="#263238" fill-rule="nonzero" node-id="376" stroke="none" target-height="101.27002" target-width="378.00977" target-x="9195.17" target-y="8037.59"></path><path d="M 9294.56 8376.50 C 9282.82 8377.46 9271.11 8374.38 9261.35 8367.79 C 9258.19 8365.22 9255.74 8361.87 9254.25 8358.07 C 9252.77 8354.28 9252.29 8350.16 9252.88 8346.12 C 9252.90 8343.77 9253.55 8341.46 9254.75 8339.44 C 9255.95 8337.41 9257.66 8335.74 9259.71 8334.58 C 9278.78 8324.92 9334.60 8358.13 9340.96 8362.84 C 9341.61 8363.32 9342.11 8363.97 9342.40 8364.72 C 9342.69 8365.47 9342.76 8366.29 9342.61 8367.08 C 9342.49 8367.87 9342.13 8368.61 9341.58 8369.20 C 9341.04 8369.79 9340.33 8370.20 9339.55 8370.38 C 9324.82 8374.06 9309.74 8376.11 9294.56 8376.50 Z M 9268.89 8340.94 C 9267.11 8340.54 9265.26 8340.54 9263.47 8340.94 C 9262.65 8341.41 9261.98 8342.10 9261.52 8342.93 C 9261.06 8343.76 9260.84 8344.70 9260.88 8345.65 C 9260.52 8348.40 9260.85 8351.19 9261.84 8353.78 C 9262.82 8356.37 9264.44 8358.68 9266.54 8360.49 C 9285.76 8369.42 9307.69 8370.60 9327.77 8363.78 C 9309.80 8352.45 9289.81 8344.69 9268.89 8340.94 Z" fill="#429cfd" fill-rule="nonzero" node-id="378" stroke="none" target-height="52.54004" target-width="90.46973" target-x="9252.29" target-y="8324.92"></path><path d="M 9338.60 8370.62 C 9337.99 8370.82 9337.33 8370.82 9336.72 8370.62 C 9318.82 8360.96 9284.43 8323.51 9287.97 8303.96 C 9288.57 8300.97 9290.19 8298.28 9292.55 8296.35 C 9294.91 8294.42 9297.87 8293.36 9300.92 8293.37 C 9304.03 8292.90 9307.20 8293.12 9310.21 8294.02 C 9313.22 8294.91 9316.00 8296.46 9318.35 8298.55 C 9338.37 8314.80 9341.90 8364.73 9341.90 8366.85 C 9341.88 8367.58 9341.71 8368.29 9341.38 8368.94 C 9341.06 8369.60 9340.59 8370.17 9340.02 8370.62 C 9339.55 8370.70 9339.07 8370.70 9338.60 8370.62 Z M 9303.75 8299.96 L 9303.04 8299.96 C 9297.62 8299.96 9297.15 8303.02 9296.92 8304.20 C 9294.80 8315.51 9316.70 8344.00 9334.60 8357.43 C 9333.37 8337.79 9326.22 8318.99 9314.11 8303.49 C 9312.61 8302.20 9310.83 8301.25 9308.92 8300.72 C 9307.01 8300.19 9305.00 8300.09 9303.04 8300.43 L 9303.75 8299.96 Z" fill="#429cfd" fill-rule="nonzero" node-id="380" stroke="none" target-height="77.91992" target-width="57.470703" target-x="9284.43" target-y="8292.9"></path><path d="M 8257.09 8376.50 C 8242.32 8377.88 8227.52 8374.13 8215.17 8365.90 C 8212.46 8363.42 8210.36 8360.34 8209.05 8356.91 C 8207.75 8353.47 8207.26 8349.78 8207.63 8346.12 C 8207.64 8343.88 8208.26 8341.69 8209.42 8339.78 C 8210.58 8337.87 8212.25 8336.32 8214.23 8335.29 C 8235.19 8323.51 8304.67 8358.84 8312.44 8362.84 C 8313.23 8363.20 8313.87 8363.82 8314.25 8364.59 C 8314.64 8365.36 8314.75 8366.24 8314.56 8367.08 C 8314.46 8367.92 8314.08 8368.70 8313.48 8369.30 C 8312.89 8369.90 8312.10 8370.28 8311.26 8370.38 C 8293.45 8374.18 8275.31 8376.23 8257.09 8376.50 Z M 8225.77 8340.94 C 8223.18 8340.84 8220.61 8341.32 8218.23 8342.35 C 8217.45 8342.81 8216.79 8343.46 8216.34 8344.24 C 8215.89 8345.03 8215.64 8345.92 8215.64 8346.83 C 8215.31 8349.23 8215.58 8351.68 8216.45 8353.94 C 8217.31 8356.20 8218.74 8358.21 8220.59 8359.78 C 8231.19 8369.20 8259.68 8370.85 8297.84 8364.49 C 8275.31 8352.66 8250.94 8344.69 8225.77 8340.94 Z" fill="#429cfd" fill-rule="nonzero" node-id="382" stroke="none" target-height="54.370117" target-width="107.490234" target-x="8207.26" target-y="8323.51"></path><path d="M 8310.56 8370.61 L 8308.91 8370.61 C 8287.95 8361.19 8246.73 8323.51 8250.03 8304.43 C 8250.03 8299.96 8254.03 8294.07 8265.10 8293.13 C 8269.29 8292.51 8273.56 8292.79 8277.62 8293.97 C 8281.69 8295.15 8285.45 8297.19 8288.66 8299.96 C 8310.56 8318.09 8315.03 8364.49 8315.27 8366.61 C 8315.37 8367.30 8315.27 8368.00 8314.98 8368.62 C 8314.68 8369.25 8314.21 8369.78 8313.62 8370.14 C 8312.70 8370.68 8311.60 8370.85 8310.56 8370.61 Z M 8268.40 8299.96 L 8266.75 8299.96 C 8259.45 8299.96 8258.98 8303.49 8258.74 8304.67 C 8256.86 8316.21 8284.89 8345.65 8305.85 8358.37 C 8303.81 8338.58 8295.57 8319.95 8282.30 8305.14 C 8278.28 8302.13 8273.42 8300.48 8268.40 8300.43 L 8268.40 8299.96 Z" fill="#429cfd" fill-rule="nonzero" node-id="384" stroke="none" target-height="78.33984" target-width="68.63965" target-x="8246.73" target-y="8292.51"></path></svg>