<?xml version="1.0" standalone="no"?><!DOCTYPE svg PUBLIC "-//W3C//DTD SVG 1.1//EN" "http://www.w3.org/Graphics/SVG/1.1/DTD/svg11.dtd"><svg t="1747365096170" class="icon" viewBox="0 0 1024 1024" version="1.1" xmlns="http://www.w3.org/2000/svg" p-id="4572" xmlns:xlink="http://www.w3.org/1999/xlink" width="200" height="200"><path d="M861.696 8.192h-665.6c-45.568 0-82.944 36.864-82.944 82.944v79.36h-5.12c-15.872 0-29.184 12.8-29.184 29.184v105.984c0 15.872 12.8 29.184 29.184 29.184h5.12V430.08h-5.12c-15.872 0-29.184 12.8-29.184 29.184v105.984c0 15.872 12.8 29.184 29.184 29.184h5.12v95.744h-5.12c-15.872 0-29.184 12.8-29.184 29.184V824.32c0 15.872 12.8 29.184 29.184 29.184h5.12v79.36c0 45.568 36.864 82.944 82.944 82.944h665.6c45.568 0 82.944-36.864 82.944-82.944V91.136c0-45.568-37.376-82.944-82.944-82.944z" fill="#FF6B6A" p-id="4573"></path><path d="M718.848 443.392c0 18.432-15.36 33.792-33.792 33.792h-112.64V542.72h111.616c18.432 0 33.792 14.848 33.792 33.792v2.56c0 18.432-15.36 33.792-33.792 33.792h-111.616v105.472c0 18.432-14.848 33.792-33.792 33.792h-2.56c-18.432 0-33.792-15.36-33.792-33.792v-105.472H390.656c-18.432 0-33.792-15.36-33.792-33.792v-2.56c0-18.432 15.36-33.792 33.792-33.792h111.616V477.184H390.144c-18.432 0-33.792-14.848-33.792-33.792v-2.048c0-18.432 15.36-33.792 33.792-33.792h77.824L375.296 314.88c-13.312-13.312-13.312-34.304 0-47.616l1.536-1.536c13.312-13.312 34.304-13.312 47.616 0l112.64 112.64 112.64-112.64c13.312-13.312 34.304-13.312 47.616 0l1.536 1.536c13.312 13.312 13.312 34.304 0 47.616l-92.672 92.672h78.336c18.432 0 33.792 14.848 33.792 33.792l0.512 2.048z" fill="#FFFFFF" p-id="4574"></path></svg>