<?xml version="1.0" standalone="no"?><!DOCTYPE svg PUBLIC "-//W3C//DTD SVG 1.1//EN" "http://www.w3.org/Graphics/SVG/1.1/DTD/svg11.dtd"><svg t="1691169094614" class="icon" viewBox="0 0 1024 1024" version="1.1" xmlns="http://www.w3.org/2000/svg" p-id="9600" xmlns:xlink="http://www.w3.org/1999/xlink" width="200" height="200"><path d="M928.24804 636.904l-194.822-199.546c-21.47-21.668-51.248-34.094-81.694-34.094H333.22804c-30.478 0-60.272 12.426-81.714 34.07l-197.108 199.634a93.69 93.69 0 0 0-20.242 30.552 94.464 94.464 0 0 0-7.102 36.01 94.71 94.71 0 0 0 41.194 78.148l2.948 2.022c36.78 25.24 79.798 38.578 124.408 38.576 36.004 0 71.822-8.97 103.582-25.942l45.53-24.324c26.452-14.136 36.98-47.418 23.468-74.194-9.528-18.882-28.602-30.612-49.778-30.612-9.1 0-17.834 2.178-25.96 6.474l-30.544 16.152-0.004-237.862 229.222 67.494 229.224-67.494v243.73l-29.24-12.938a55.006 55.006 0 0 0-22.39-4.744c-21.176 0-40.25 11.732-49.778 30.612-13.51 26.776-2.984 60.058 23.47 74.192l37.118 19.832c31.764 16.974 67.578 25.944 103.566 25.944 48.446 0 96.218-16.318 134.672-46.056 23.454-17.81 37.458-46.032 37.458-75.498v-3.886c0.002-24.9-9.58-48.428-26.98-66.252z" fill="#DFDFDE" p-id="9601"></path><path d="M491.14804 38.188c-96.64 0-175.264 78.622-175.264 175.262s78.624 175.262 175.264 175.262c96.638 0 175.262-78.622 175.262-175.262s-78.624-175.262-175.262-175.262z m0 338.036c-89.754 0-162.774-73.02-162.774-162.772s73.02-162.772 162.774-162.772c89.75 0 162.772 73.02 162.772 162.772s-73.022 162.772-162.772 162.772z" fill="#4B555F" p-id="9602"></path><path d="M491.14804 65.248c-81.72 0-148.202 66.482-148.202 148.202s66.482 148.202 148.202 148.202c81.718 0 148.202-66.482 148.202-148.202s-66.484-148.202-148.202-148.202z" fill="#FFD351" p-id="9603"></path><path d="M947.60804 617.998l-194.96-199.686c-26.516-26.76-63.296-42.108-100.916-42.108H333.22804c-37.648 0-74.448 15.348-100.972 42.116l-197.07 199.596a120.638 120.638 0 0 0-26.058 39.336A121.4 121.4 0 0 0 0.00004 703.534a121.754 121.754 0 0 0 52.94 100.456l2.952 2.024c41.304 28.348 89.62 43.33 139.718 43.328 40.438-0.002 80.666-10.078 116.336-29.136l45.53-24.328c39.308-21.002 54.952-70.462 34.874-110.25-14.156-28.054-42.488-45.482-73.936-45.482-10.026 0-20.042 1.872-29.444 5.462l-0.004-157.458 202.162 59.526 202.164-59.526v166.56a81.76 81.76 0 0 0-24.568-3.75c-31.452 0-59.78 17.428-73.936 45.482-20.08 39.79-4.432 89.248 34.874 110.252l37.118 19.832c35.676 19.062 75.892 29.136 116.304 29.136h0.016c54.41-0.004 108.062-18.328 151.036-51.562 30.154-22.896 48.156-59.176 48.156-97.054v-3.886c0-32.008-12.32-62.25-34.684-85.162z m22.194 89.046c0 33.994-16.156 66.558-43.266 87.14-40.838 31.586-91.78 48.982-143.436 48.986h-0.016c-38.362-0.002-76.546-9.566-110.416-27.662l-37.12-19.832c-33.374-17.834-46.66-59.826-29.614-93.61 12.022-23.82 36.082-38.618 62.788-38.618 9.62 0 18.974 1.948 27.822 5.788l123.47 65.05 0.052 0.028 5.83-11.046-118.568-62.696a94.96 94.96 0 0 0-1.55-0.798v-188.32L491.12404 534.66l-214.65-63.206 0.004 180.066-115.24 60.938 5.838 11.042 118.566-62.696 0.076-0.04a70.38 70.38 0 0 1 32.694-8.124c26.708 0 50.764 14.798 62.786 38.618 17.048 33.782 3.766 75.776-29.61 93.61l-45.53 24.326c-33.866 18.094-72.058 27.66-110.45 27.662-47.568 0.002-93.436-14.224-132.654-41.136L60.00004 793.694a109.268 109.268 0 0 1-47.514-90.156 108.956 108.956 0 0 1 8.192-41.54 108.22 108.22 0 0 1 23.382-35.292l197.07-199.598c24.188-24.408 57.752-38.408 92.092-38.408h318.506c34.308 0 67.858 14 92.012 38.374l194.926 199.654c20.076 20.564 31.13 47.71 31.13 76.434v3.882z" fill="#4B555F" p-id="9604"></path><path d="M697.00004 669.476l5.074-11.412c-40.29-17.918-87.41-1.062-107.278 38.356-5.834 11.54-8.916 24.418-8.916 37.246 0 30.592 16.77 58.574 43.774 73.036l37.142 19.822c4.102 2.18 8.14 4.2 12.348 6.176l5.31-11.306a259.94 259.94 0 0 1-11.786-5.894l-37.126-19.812a70.256 70.256 0 0 1-37.17-62.022c0-11.036 2.548-21.672 7.578-31.618 16.864-33.468 56.858-47.778 91.05-32.572zM392.33604 685.648c-14.126-28.08-42.458-45.526-73.936-45.526-13.344 0-26.69 3.332-38.6 9.636l5.842 11.038c10.118-5.354 21.444-8.184 32.758-8.184 26.728 0 50.786 14.812 62.784 38.66 17.062 33.782 3.786 75.766-29.59 93.59l-45.548 24.316a213.15 213.15 0 0 1-17.44 8.376l4.882 11.498a226.324 226.324 0 0 0 18.444-8.856l45.544-24.314c39.316-21 54.952-70.452 34.86-110.234z" fill="#4B555F" p-id="9605"></path><path d="M492.89204 535.174l-208.406-61.366a6.248 6.248 0 0 0-8.008 5.99v175.478a6.244 6.244 0 0 0 9.164 5.518c10.118-5.354 21.444-8.184 32.758-8.184 26.728 0 50.786 14.812 62.784 38.66 17.062 33.782 3.786 75.766-29.59 93.59l-45.548 24.316a213.84 213.84 0 0 1-17.44 8.378 6.244 6.244 0 0 0 0.132 11.548l200.078 79.724a6.234 6.234 0 0 0 5.816-0.632 6.24 6.24 0 0 0 2.74-5.168v-361.86a6.25 6.25 0 0 0-4.48-5.992z m-8.01 358.64l-178.076-70.956c1.698-0.856 3.402-1.744 5.124-2.666l45.544-24.314c39.316-20.996 54.952-70.448 34.86-110.23-14.126-28.08-42.458-45.526-73.936-45.526a82.54 82.54 0 0 0-29.434 5.476v-157.45l195.916 57.688v347.978z" fill="#4B555F" p-id="9606"></path><path d="M303.53804 507.628v119.088a95.858 95.858 0 0 1 14.864-1.164c37.016 0 70.334 20.518 86.938 53.52 23.636 46.798 5.246 104.962-41 129.66l-22.916 12.234 128.89 51.358V556.736l-166.776-49.108z" fill="#71CBDF" p-id="9607"></path><path d="M703.27604 474.798a6.25 6.25 0 0 0-5.504-0.99l-208.408 61.366a6.246 6.246 0 0 0-4.48 5.99v361.86a6.236 6.236 0 0 0 6.244 6.244c0.782 0 1.566-0.146 2.314-0.444l190.67-75.978a6.242 6.242 0 0 0 0.342-11.454 263.11 263.11 0 0 1-11.786-5.894l-37.126-19.812a70.256 70.256 0 0 1-37.17-62.022c0-11.036 2.548-21.672 7.578-31.618 11.998-23.808 36.032-38.596 62.726-38.596 9.806 0 19.336 2.026 28.326 6.024a6.246 6.246 0 0 0 8.782-5.706V479.8a6.26 6.26 0 0 0-2.508-5.002z m-9.984 179.938a81.624 81.624 0 0 0-24.618-3.772c-31.438 0-59.748 17.42-73.878 45.458-5.834 11.538-8.916 24.418-8.916 37.246 0 30.592 16.77 58.574 43.774 73.036l36.908 19.694-169.188 67.416V545.836l195.918-57.688v166.588z" fill="#4B555F" p-id="9608"></path><path d="M511.94404 556.736V872.32l120.068-47.844-9.246-4.934c-31.74-16.998-51.458-49.904-51.458-85.876 0-15.104 3.626-30.256 10.472-43.796 16.624-32.988 49.916-53.48 86.894-53.48 3.374 0 6.724 0.172 10.046 0.516v-129.278l-166.776 49.108z" fill="#F58E70" p-id="9609"></path><path d="M270.81404 828.598h12.49v157.212h-12.49zM693.29004 833.82h12.49v151.99h-12.49z" fill="#4B555F" p-id="9610"></path><path d="M490.88604 922.89l-190.224-73.476v136.396h380.446v-136.396z" fill="#DFDFDE" p-id="9611"></path><path d="M183.37804 409.816l8.626 9.03 9.03-8.626-8.626-9.03-9.03 8.626z m37.202-34.266l7.664 9.858a166.134 166.134 0 0 1 9.766-7.034l-6.928-10.392a178.47 178.47 0 0 0-10.502 7.568z m-13.774 11.878l-5.368 5.13 8.626 9.03 5.372-5.132a164.086 164.086 0 0 1 3.572-3.316l-8.35-9.286a171.058 171.058 0 0 0-3.852 3.574zM165.32004 427.074l8.628 9.03 9.03-8.628-8.626-9.03-9.032 8.628z m159.854-88.944a181.958 181.958 0 0 0-9.42 0.502l0.988 12.448a172.134 172.134 0 0 1 8.602-0.464h3.378v-12.49l-3.548 0.004z m-83.072 23.074l6.152 10.868a166.24 166.24 0 0 1 10.68-5.542l-5.346-11.286a176.016 176.016 0 0 0-11.486 5.96z m48.094-18.658l2.786 12.176a164.492 164.492 0 0 1 11.812-2.252l-1.886-12.348a177.486 177.486 0 0 0-12.712 2.424z m-24.726 7.578l4.516 11.644a167.66 167.66 0 0 1 11.37-3.942l-3.664-11.94a181.03 181.03 0 0 0-12.222 4.238zM992.62204 614.36l-10.286 7.078a199.048 199.048 0 0 1 6.55 10.192l10.708-6.424a204.64 204.64 0 0 0-6.972-10.846z m14.95 61.452l12.116-3.042a160.928 160.928 0 0 0-3.692-12.47l-11.824 4.028a145.038 145.038 0 0 1 3.4 11.484z m3.744 23.524l12.464-0.818a142.626 142.626 0 0 0-1.464-12.984l-12.334 1.972c0.63 3.936 1.078 7.916 1.334 11.83z m-34.952-105.39l-8.916 8.746c0.028 0.03 3.174 3.26 7.716 9.01l9.798-7.74c-4.996-6.33-8.452-9.868-8.598-10.016z m34.992 54.248a190.258 190.258 0 0 0-5.498-11.702l-11.116 5.7a173.452 173.452 0 0 1 5.13 10.916l11.484-4.914z m-6.322 97.866l11.806 4.086a132.814 132.814 0 0 0 3.666-12.578l-12.148-2.896a118.42 118.42 0 0 1-3.324 11.388z m6.484-34.858a117.596 117.596 0 0 1-0.984 11.814l12.376 1.664a129.54 129.54 0 0 0 1.09-13.066l-12.482-0.412z m-16.31 56.548l10.872 6.144a148.732 148.732 0 0 0 5.916-11.618l-11.376-5.164a136.84 136.84 0 0 1-5.412 10.638z" fill="#4B555F" p-id="9612"></path></svg>